<?xml version="1.0" standalone="no"?>
<!DOCTYPE svg PUBLIC "-//W3C//DTD SVG 1.1//EN" "http://www.w3.org/Graphics/SVG/1.1/DTD/svg11.dtd" >
<svg xmlns="http://www.w3.org/2000/svg" xmlns:xlink="http://www.w3.org/1999/xlink" version="1.1">
<metadata></metadata>
<defs>
<font id="karnvaylaregular" horiz-adv-x="0" >
<font-face units-per-em="2048" ascent="1655" descent="-393" />
<missing-glyph horiz-adv-x="606" />
<glyph unicode="&#xe2f;&#xe2f;" horiz-adv-x="1285" d="M82 1194q0 49 7 84t12 54h187q-7 -28 -13.5 -58.5t-6.5 -63.5q0 -40 23 -63.5t82 -23.5q94 0 158 61.5t91 147.5h140v-1332h-187v1079q-30 -28 -92.5 -62t-151.5 -34q-125 0 -187 55t-62 156zM902 0v1330h186v-1330h-186z" />
<glyph unicode="&#xe4f;&#x22;" horiz-adv-x="1318" d="M122 626q0 162 43.5 280.5t117 196t172 114t206.5 36.5q106 0 203 -36.5t171 -114t117.5 -196t43.5 -280.5t-43.5 -280t-117.5 -195.5t-171 -114t-203 -36.5q-108 0 -206.5 36.5t-172 114t-117 195.5t-43.5 280zM270 626q0 -258 107 -384.5t284 -126.5t280 126.5 t103 384.5t-103 385t-280 127q-176 0 -283.5 -127t-107.5 -385zM472 626q0 134 54 192.5t133 58.5t133 -58.5t54 -192.5q0 -120 -56 -178.5t-131 -58.5q-76 0 -131.5 58.5t-55.5 178.5z" />
<glyph unicode="&#xe24;&#xe32;" horiz-adv-x="2115" d="M113 1084v108q131 68 272 113.5t259 45.5q228 0 338.5 -108t110.5 -291v-1343h-188v1343q0 105 -55.5 171t-205.5 66q-84 0 -165 -19.5t-165 -60.5v-7l42 -38v-806q0 -56 15 -79.5t56 -23.5q19 0 35.5 3.5t27.5 5.5v-152q-24 -7 -58 -13t-78 -6q-32 0 -65 10.5t-60 40 t-44.5 79t-17.5 125.5v798zM1180 1093v175q27 15 68.5 28.5t88.5 24.5t92.5 18t82.5 7q125 0 206 -29t130 -95t69 -171t20 -252v-1177h-187v1133q0 122 -8.5 204.5t-32 131.5t-68 69t-117.5 20q-86 0 -175.5 -28.5t-168.5 -58.5z" />
<glyph unicode="&#xe26;&#xe32;" horiz-adv-x="2125" d="M32 12v152q10 -2 25.5 -5.5t36.5 -3.5q44 0 57 23.5t13 79.5v788l-54 38v108q131 68 272 113.5t260 45.5q228 0 338.5 -108t110.5 -291v-1346h-189v1346q0 105 -55.5 171t-204.5 66q-84 0 -165 -19.5t-165 -60.5v-7l42 -38v-816q0 -75 -17.5 -125t-44.5 -79.5t-61 -40 t-67 -10.5q-42 0 -73.5 6t-58.5 13zM1189 1093v175q30 15 71.5 28.5t88.5 24.5t92.5 18t82.5 7q125 0 206 -29t130 -95t69 -171t20 -252v-1177h-190v1133q0 122 -7 204.5t-30.5 131.5t-68 69t-117.5 20q-86 0 -177 -28.5t-170 -58.5z" />
<glyph unicode="fi" horiz-adv-x="1201" d="M68 997v171h153v134q0 82 19.5 147t65.5 110t121 68.5t185 23.5q76 0 168 -13t186 -34v-164q-86 24 -173 35.5t-151 11.5q-71 0 -116 -11t-68.5 -33t-30.5 -52.5t-7 -70.5v-152h595v-1168h-199v997h-396v-997h-199v997h-153z" />
<glyph unicode="fl" horiz-adv-x="1236" d="M68 997v171h153v134q0 82 19.5 147t65.5 110t121 68.5t185 23.5q76 0 130.5 -6t73.5 -11h199v-1362q0 -61 15.5 -85.5t62.5 -24.5q19 0 35.5 5t27.5 7v-162q-24 -5 -59 -11t-82 -6q-35 0 -70 12t-63.5 42t-47 81.5t-18.5 129.5v1215q-49 5 -94.5 8.5t-79.5 3.5 q-71 0 -116 -11t-68.5 -33t-30.5 -52.5t-7 -70.5v-152h224v-171h-224v-997h-199v997h-153z" />
<glyph unicode=" "  horiz-adv-x="606" />
<glyph unicode="&#x09;" horiz-adv-x="606" />
<glyph unicode="&#xa0;" horiz-adv-x="606" />
<glyph unicode="!" horiz-adv-x="582" d="M174 0v234h234v-234h-234zM192 487v1147h199v-1147h-199z" />
<glyph unicode="&#x22;" horiz-adv-x="840" d="M127 1423v211h222v-211l-47 -366h-128zM490 1423v211h223v-211l-47 -366h-131z" />
<glyph unicode="#" horiz-adv-x="1095" d="M68 420l16 175h164l42 467h-165l15 174h162l38 398h186l-36 -398h186l37 398h187l-37 -398h164l-14 -174h-162l-42 -467h162l-15 -175h-162l-37 -420h-187l37 420h-187l-37 -420h-186l37 420h-166zM434 595h188l42 467h-188z" />
<glyph unicode="$" horiz-adv-x="1189" d="M192 1153q0 106 24.5 176.5t66 115t96.5 69t115 41.5v267h200v-246q58 -3 131 -13t121 -22v-169q-62 12 -147.5 22.5t-146.5 10.5q-45 0 -89.5 -4.5t-81 -27t-60 -67.5t-23.5 -126q0 -76 16 -123t43 -74t66.5 -42t86.5 -24q84 -17 154.5 -43t123.5 -76t83 -133t30 -213 q0 -124 -24.5 -203.5t-66.5 -127.5t-98.5 -73.5t-117.5 -40.5v-265h-200v246q-58 2 -138.5 10.5t-137.5 23.5v172q28 -7 66 -13.5t81 -11.5t87.5 -7t82.5 -2q61 0 108 11t80.5 40.5t50.5 82.5t17 136q0 93 -18 147t-47.5 83.5t-68 42t-77.5 19.5q-89 17 -161 49.5t-122.5 83 t-77.5 122.5t-27 176z" />
<glyph unicode="%" horiz-adv-x="1998" d="M199 1168q0 110 12 198t47 152.5t97.5 98.5t162.5 34q104 0 167 -34t97 -98.5t45 -152.5t11 -198q0 -111 -12 -203.5t-46.5 -159t-97.5 -103t-164 -36.5q-100 0 -162.5 36.5t-97.5 103t-47 159t-12 203.5zM359 1158q0 -190 34 -272t125 -82q89 0 123.5 83.5t34.5 270.5 q0 190 -34.5 273t-123.5 83q-91 0 -125 -82.5t-34 -273.5zM624 0l570 1634h182l-570 -1634h-182zM1160 487q0 108 12 197.5t46.5 152.5t97.5 97t164 34q103 0 165.5 -34t97 -97t45.5 -152.5t11 -197.5q0 -110 -12 -202.5t-47 -159t-97.5 -104.5t-162.5 -38q-101 0 -164 38 t-97.5 104.5t-46.5 158.5t-12 203zM1322 476q0 -192 34.5 -274t123.5 -82q91 0 125 83.5t34 272.5q0 188 -34 271t-125 83q-89 0 -123.5 -82t-34.5 -272z" />
<glyph unicode="&#x26;" horiz-adv-x="1184" d="M152 462q0 86 8.5 166t29.5 145t57 113t93 68q-84 49 -121 116.5t-37 177.5q0 131 32 210.5t89.5 123t135 56.5t168.5 13q89 0 151.5 -14.5t81.5 -21.5v-170q-10 2 -38 8.5t-63.5 11.5t-72.5 10t-64 5q-44 0 -83.5 -6t-70 -28.5t-49.5 -64.5t-19 -110q0 -101 42 -172.5 t155 -71.5h549v-169h-195v-846q-89 -14 -179.5 -21.5t-200.5 -7.5q-195 0 -297 109.5t-102 369.5zM352 440q0 -138 56 -211.5t145 -73.5q71 0 120 6t75 11v686h-207q-61 0 -98 -36t-58 -95t-27 -134t-6 -153z" />
<glyph unicode="'" horiz-adv-x="478" d="M127 1423v211h222v-211l-47 -366h-128z" />
<glyph unicode="(" horiz-adv-x="746" d="M127 816q0 164 15 312t48 283t89 260t134 243h194q-73 -122 -126.5 -246.5t-87.5 -257t-50.5 -279t-16.5 -315.5q0 -167 16.5 -313.5t50.5 -279t87 -256.5t127 -247h-194q-79 118 -134.5 243.5t-88.5 260.5t-48 282.5t-15 309.5z" />
<glyph unicode=")" horiz-adv-x="746" d="M140 -280q74 123 126.5 247t87.5 256.5t50.5 279t15.5 313.5q0 169 -15.5 315.5t-50.5 279t-87.5 257t-126.5 246.5h195q157 -239 220.5 -505.5t63.5 -592.5t-63.5 -592t-220.5 -504h-195z" />
<glyph unicode="*" horiz-adv-x="1119" d="M94 1278l63 187l330 -135l-32 356h211l-32 -356l334 130l59 -184l-344 -75l248 -287l-167 -120l-206 332l-211 -332l-165 123l250 284z" />
<glyph unicode="+" horiz-adv-x="1282" d="M197 642v174h351v371h186v-371h352v-174h-352v-367h-186v367h-351z" />
<glyph unicode="," horiz-adv-x="535" d="M59 -326l93 326v234h234v-234l-170 -326h-157z" />
<glyph unicode="-" horiz-adv-x="1154" d="M199 642v174h757v-174h-757z" />
<glyph unicode="." horiz-adv-x="535" d="M152 0v234h234v-234h-234z" />
<glyph unicode="/" horiz-adv-x="758" d="M12 -258l551 2148h185l-551 -2148h-185z" />
<glyph unicode="0" horiz-adv-x="1166" d="M120 835q0 207 21 359t74 254t143 152.5t224 50.5q138 0 228 -50.5t143 -152.5t73 -254t20 -359q0 -213 -20 -374t-74 -266.5t-144 -158.5t-226 -53t-225 53t-142 158.5t-74 266.5t-21 374zM319 823q0 -189 15 -317t47 -205.5t81 -111.5t120 -34q68 0 119 34t84 111.5 t48 205.5t15 317q0 192 -15 318.5t-48 201.5t-83 106t-120 31q-68 0 -118.5 -31t-82.5 -106t-47 -201.5t-15 -318.5z" />
<glyph unicode="1" horiz-adv-x="1166" d="M214 1330v187l307 117h221v-1460h255v-174h-758v174h305v1276z" />
<glyph unicode="2" horiz-adv-x="1166" d="M174 0v206l421 509q61 73 99 123.5t60 104.5t31 120.5t9 172.5t-67.5 175t-178.5 69q-37 0 -83.5 -4t-92.5 -10t-87 -12.5t-69 -13.5v169q10 3 46 10.5t84 15t102 12t100 4.5q209 0 326.5 -109t117.5 -328q0 -91 -9.5 -163.5t-33 -138.5t-65.5 -131.5t-105 -138.5 l-393 -470h582v-172h-794z" />
<glyph unicode="3" horiz-adv-x="1166" d="M187 22v177q22 -5 65 -11t93.5 -12.5t102 -10t87.5 -3.5q45 0 89 17.5t78.5 53t55.5 87t21 120.5q0 82 -8.5 142t-34.5 100t-75 61t-128 21h-238v170h214q89 0 138 31.5t73.5 77t29.5 95t5 84.5q0 68 -18.5 117t-49.5 80t-70.5 46t-83.5 15q-40 0 -87.5 -4t-94 -10 t-87.5 -13.5t-65 -12.5v169q10 3 45.5 9.5t83.5 13.5t102 13t98 6q91 0 168.5 -22t134 -73.5t90 -138.5t33.5 -218q0 -118 -41 -212.5t-139 -123.5q115 -17 160.5 -123t45.5 -278q0 -131 -31.5 -221.5t-90.5 -148t-140.5 -83.5t-178.5 -26q-42 0 -100.5 6t-111 13.5 t-93 13.5t-47.5 6z" />
<glyph unicode="4" horiz-adv-x="1166" d="M160 364v201l231 1069h189l-224 -1099h359l15 532h182v-532h164v-171h-164v-364h-197v364h-555z" />
<glyph unicode="5" horiz-adv-x="1166" d="M192 22v172q14 -4 52.5 -11t87 -13t103.5 -10.5t104 -4.5q103 0 168 83.5t65 233.5q0 100 -17.5 167t-50.5 104.5t-80 54t-106 16.5h-304v820h712v-169h-513v-482h93q254 0 360.5 -117.5t106.5 -371.5q0 -145 -33 -243.5t-92.5 -157t-140.5 -84.5t-177 -26q-44 0 -92.5 5 t-95.5 11t-86.5 12t-63.5 11z" />
<glyph unicode="6" horiz-adv-x="1166" d="M131 887q0 241 41.5 391t114 232t169.5 111.5t208 29.5q27 0 66 -3.5t80 -9.5t75 -12t49 -11v-165q-47 12 -133 24.5t-163 12.5q-63 0 -117 -18.5t-96 -74t-66 -158.5t-30 -272q39 27 122.5 50t172.5 23q122 0 202.5 -36.5t127.5 -104.5t65 -165t18 -217q0 -150 -38 -251 t-102 -163.5t-147.5 -89.5t-172.5 -27q-108 0 -191.5 32t-139.5 129t-85.5 274t-29.5 469zM329 806q0 -218 19.5 -347.5t52.5 -198t79 -88.5t97 -20q111 0 186 87t75 253q0 199 -53 287.5t-178 88.5q-44 0 -89.5 -7.5t-83.5 -17.5t-66 -21t-39 -16z" />
<glyph unicode="7" horiz-adv-x="1166" d="M180 1460v174h805v-225l-469 -1409h-209l497 1460h-624z" />
<glyph unicode="8" horiz-adv-x="1166" d="M110 462q0 96 17.5 157t47 103t65 68t72.5 50q-84 42 -126.5 141.5t-42.5 217.5q0 131 35.5 218t96 138.5t140 73.5t167.5 22q91 0 171 -22t140.5 -73.5t96 -138.5t35.5 -218q0 -115 -36.5 -192.5t-146.5 -138.5q116 -28 165.5 -131t49.5 -275q0 -246 -118 -362.5 t-357 -116.5t-355.5 116.5t-116.5 362.5zM307 440q0 -84 21 -139t57.5 -88t87 -47t109.5 -14q61 0 112 14t87.5 47t57.5 88t21 139q0 185 -90 263t-301 78q-47 -27 -78.5 -52.5t-50 -64t-26 -92.5t-7.5 -132zM337 1222q0 -162 89.5 -230t258.5 -68q84 35 114.5 116t30.5 182 q0 130 -64.5 195t-183.5 65q-118 0 -181.5 -65.5t-63.5 -194.5z" />
<glyph unicode="9" horiz-adv-x="1166" d="M131 1160q0 136 39 229t103 152t146.5 84.5t167.5 25.5q113 0 198 -34t141.5 -127.5t83.5 -255.5t27 -418q0 -280 -36.5 -446t-103.5 -252t-161 -110.5t-208 -24.5q-28 0 -68 3.5t-80 9.5t-75 12t-49 11v171q46 -12 132 -25t163 -13q61 0 112.5 17.5t88 71.5t57.5 156 t26 271q-19 -12 -49.5 -24.5t-70 -23t-84 -16.5t-87.5 -6q-118 0 -198.5 36.5t-128.5 108t-67 175.5t-19 242zM329 1142q0 -199 53.5 -287t177.5 -88q45 0 89.5 7t83.5 17.5t66 21t39 15.5q0 218 -19.5 347t-54 198t-81.5 89t-101 20q-108 0 -180.5 -87t-72.5 -253z" />
<glyph unicode=":" horiz-adv-x="535" d="M152 0v234h234v-234h-234zM152 934v234h234v-234h-234z" />
<glyph unicode=";" horiz-adv-x="535" d="M59 -326l93 326v234h234v-234l-170 -326h-157zM152 934v234h234v-234h-234z" />
<glyph unicode="&#x3c;" horiz-adv-x="1282" d="M199 654v246l887 418v-216l-725 -318l725 -320v-218z" />
<glyph unicode="=" horiz-adv-x="1282" d="M199 408v174h887v-174h-887zM199 875v174h887v-174h-887z" />
<glyph unicode="&#x3e;" horiz-adv-x="1282" d="M199 246v218l737 320l-737 318v216l887 -418v-246z" />
<glyph unicode="?" horiz-adv-x="840" d="M82 1442v170q46 9 122 24t140 15q96 0 173.5 -14.5t130.5 -57.5t82.5 -119t29.5 -199q0 -68 -6 -113.5t-25 -86.5t-53 -86.5t-94 -114.5l-125 -150v-223h-199v282l140 165q57 66 90 108t49 76.5t19.5 71t3.5 93.5q0 113 -52.5 155t-141.5 42q-71 0 -149.5 -13t-134.5 -25 zM244 0v234h232v-234h-232z" />
<glyph unicode="@" horiz-adv-x="1902" d="M199 806q0 246 39 409.5t129 260.5t234 136t353 39q206 0 348.5 -28t231 -106.5t129 -218t40.5 -362.5q0 -133 -11 -253t-47 -212.5t-102 -146.5t-176 -54q-30 0 -64.5 9t-66 29.5t-56 54t-35.5 82.5q-35 -47 -104.5 -77.5t-170.5 -30.5q-56 0 -111.5 15.5t-100 63.5 t-72.5 135t-28 230q0 150 38 246t104.5 150t154.5 74t191 20q52 0 118.5 -11.5t118.5 -23.5v-720q0 -35 23.5 -64.5t65.5 -29.5q44 0 72 36t42.5 102t20 162t5.5 214q0 172 -20 279t-80.5 167t-169.5 81t-288 21q-174 0 -284 -31.5t-171 -109t-83 -207.5t-22 -330 q0 -180 18 -305t76 -202.5t166 -113t289 -35.5q42 0 96 3.5t105.5 7t96 8.5t69.5 7v-164q-30 -5 -75.5 -9.5t-96 -9.5t-102 -7.5t-93.5 -2.5q-225 0 -369 44t-227.5 142.5t-115.5 255.5t-32 381zM745 791q0 -96 12 -152.5t35.5 -88.5t55.5 -41.5t71 -9.5q52 0 86 14.5 t56.5 38t31.5 50.5t9 54v446q-12 4 -36 8t-51 4q-54 0 -103 -13t-86.5 -47t-59 -97t-21.5 -166z" />
<glyph unicode="A" horiz-adv-x="1213" d="M59 0l417 1634h269l411 -1634h-207l-103 413h-478l-103 -413h-206zM406 587h403l-202 893z" />
<glyph unicode="B" horiz-adv-x="1240" d="M199 0v1634q71 3 141 8q58 4 125.5 6.5t124.5 2.5q228 0 350 -97t122 -330q0 -148 -58 -236t-129 -118q35 -12 75 -35.5t73.5 -66.5t56 -110.5t22.5 -165.5q0 -145 -34 -243.5t-95 -157.5t-151 -83.5t-203 -24.5q-73 0 -148 1.5t-136 5.5q-71 5 -136 10zM401 164 q39 -2 80 -4q35 -3 78 -4t79 -1q57 0 103.5 12.5t81.5 46.5t53 96.5t18 165.5q0 150 -54 224t-198 74h-241v-610zM401 943h218q45 0 88 6.5t77 32.5t55 79t21 146q0 73 -10 125t-37 85t-73 49t-121 16q-42 0 -82 -2.5t-70 -4.5q-37 -3 -66 -5v-527z" />
<glyph unicode="C" horiz-adv-x="1034" d="M152 842q0 258 34.5 417t102 246t169.5 116.5t240 29.5q57 0 132 -10.5t124 -22.5v-173q-59 14 -144 22t-154 8q-73 0 -128.5 -22.5t-92.5 -91.5t-56.5 -196.5t-19.5 -338.5q0 -221 19.5 -352.5t57.5 -201.5t94.5 -91t128.5 -21q37 0 78.5 3.5t82 8t76 11.5t58.5 11v-172 q-19 -5 -55 -11t-77 -12t-81 -11t-70 -5q-136 0 -232.5 36.5t-160.5 132.5t-95 263t-31 427z" />
<glyph unicode="D" horiz-adv-x="1274" d="M199 0v1634q69 3 141 8q61 4 130 6.5t130 2.5q133 0 231 -29.5t163.5 -116.5t97 -246t31.5 -417q0 -260 -30.5 -427t-91 -263t-153.5 -132.5t-219 -36.5q-71 0 -146 1.5t-139 5.5q-73 5 -145 10zM401 162q42 -2 86 -5q37 -2 81 -2h81q61 0 111.5 33t83.5 110.5 t51.5 206.5t18.5 321q0 208 -18.5 337t-51.5 199.5t-82 94t-110 23.5q-35 0 -77 -1.5t-81 -3.5q-44 -3 -93 -5v-1308z" />
<glyph unicode="E" horiz-adv-x="1128" d="M199 0v1634h789v-169h-587v-536h528v-169h-528v-591h587v-169h-789z" />
<glyph unicode="F" horiz-adv-x="1093" d="M199 0v1634h789v-169h-587v-558h528v-173h-528v-734h-202z" />
<glyph unicode="G" horiz-adv-x="1213" d="M152 842q0 258 37 417t108 246t177 116.5t244 29.5q30 0 69 -3.5t79.5 -8.5t77 -11t59.5 -10v-168q-73 14 -163 22t-164 8q-76 0 -135.5 -22.5t-99.5 -92.5t-61 -199t-21 -340q0 -221 19.5 -352.5t56.5 -203t91 -93.5t123 -22q42 0 102 4.5t107 9.5v519h-209v172h400 v-838q-94 -17 -194 -28t-194 -11q-135 0 -230.5 36.5t-157.5 132.5t-91.5 263t-29.5 427z" />
<glyph unicode="H" horiz-adv-x="1328" d="M199 0v1634h202v-710h528v710h204v-1634h-204v752h-528v-752h-202z" />
<glyph unicode="I" horiz-adv-x="739" d="M106 0v167h162v1301h-162v166h528v-166h-162v-1301h162v-167h-528z" />
<glyph unicode="J" horiz-adv-x="908" d="M82 19v173q51 -12 111 -22t112 -10q59 0 99.5 13.5t66.5 50t38 103.5t12 172v969h-327v166h528v-1130q0 -150 -23 -249.5t-72.5 -159.5t-125.5 -86t-182 -26q-56 0 -121 11t-116 25z" />
<glyph unicode="K" horiz-adv-x="1194" d="M199 0v1634h202v-717l483 717h218l-488 -724l512 -910h-228l-408 739l-89 -129v-610h-202z" />
<glyph unicode="L" horiz-adv-x="980" d="M199 0v1634h202v-1458h545v-176h-747z" />
<glyph unicode="M" horiz-adv-x="1468" d="M199 0v1634h190l350 -813l328 813h206v-1634h-194v1210l-273 -662h-147l-273 662v-1210h-187z" />
<glyph unicode="N" horiz-adv-x="1323" d="M199 0v1634h192l545 -1182v1182h190v-1634h-195l-542 1182v-1182h-190z" />
<glyph unicode="O" horiz-adv-x="1326" d="M152 835q0 207 26 359t85 254t157 152.5t244 50.5q145 0 243.5 -50.5t157 -152.5t84.5 -254t26 -359q0 -213 -26 -374t-84.5 -266.5t-157 -158.5t-243.5 -53q-146 0 -244 53t-157 158.5t-85 266.5t-26 374zM359 823q0 -189 18.5 -317t55 -205.5t94 -111.5t137.5 -34 q79 0 135.5 34t93 111.5t55 205.5t18.5 317q0 192 -18.5 318.5t-55 201.5t-93.5 106t-135 31q-80 0 -137.5 -31t-94 -106t-55 -201.5t-18.5 -318.5z" />
<glyph unicode="P" horiz-adv-x="1189" d="M199 0v1634q64 3 136 8q61 4 135 6.5t147 2.5q133 0 221 -39t140 -106.5t74 -161.5t22 -202q0 -265 -102 -395t-350 -130h-221v-617h-202zM401 786h243q99 0 160 75t61 267q0 176 -48 265t-173 89q-49 0 -92 -2.5t-78 -4.5q-40 -3 -73 -5v-684z" />
<glyph unicode="Q" horiz-adv-x="1326" d="M152 835q0 207 26 359t85 254t157 152.5t244 50.5q145 0 243.5 -50.5t157 -152.5t84.5 -254t26 -359q0 -295 -61.5 -493.5t-194.5 -287.5l277 -54v-197l-532 180q-146 0 -244 53t-157 158.5t-85 266.5t-26 374zM359 823q0 -189 18.5 -317t55 -205.5t94 -111.5t137.5 -34 q79 0 135.5 34t93 111.5t55 205.5t18.5 317q0 192 -18.5 318.5t-55 201.5t-93.5 106t-135 31q-80 0 -137.5 -31t-94 -106t-55 -201.5t-18.5 -318.5z" />
<glyph unicode="R" horiz-adv-x="1225" d="M199 0v1634q64 3 136 8q61 4 135 6.5t147 2.5q133 0 220 -34t138.5 -97t72.5 -150t21 -195q0 -183 -54 -299t-180 -166l321 -710h-225l-300 676h-230v-676h-202zM401 848h243q50 0 90 12t68 46.5t44.5 95t16.5 156.5q0 169 -47 246.5t-172 77.5q-49 0 -92 -2.5t-78 -4.5 q-40 -3 -73 -5v-622z" />
<glyph unicode="S" horiz-adv-x="1058" d="M136 1199q0 125 37.5 211t103 140t153.5 77.5t189 23.5q30 0 65.5 -2.5t72.5 -8.5t71.5 -12t60.5 -13v-170q-30 7 -67.5 13.5t-78 11.5t-80 7.5t-68.5 2.5q-44 0 -88.5 -14t-80 -44.5t-59 -78.5t-23.5 -117q0 -70 11 -117t34.5 -77.5t62 -49t94.5 -28.5q84 -17 155 -48 t123.5 -86.5t82 -141.5t29.5 -214q0 -145 -36.5 -238t-102 -147.5t-155 -75t-192.5 -20.5q-28 0 -65.5 2.5t-78.5 7.5t-80 12t-69 14v171q54 -15 138.5 -25t178.5 -10q120 0 186.5 70t66.5 218q0 84 -15.5 139.5t-42.5 91.5t-66.5 56t-86.5 30q-98 19 -169.5 52.5t-118 85 t-69.5 125t-23 176.5z" />
<glyph unicode="T" horiz-adv-x="992" d="M35 1457v177h921v-177h-358v-1457h-202v1457h-361z" />
<glyph unicode="U" horiz-adv-x="1294" d="M187 432v1202h204v-1245q0 -123 76.5 -178.5t181.5 -55.5q106 0 182 55t76 179v1245h202v-1202q0 -118 -35 -203.5t-95 -139.5t-144.5 -80t-185.5 -26t-186 26t-146 80t-95.5 139.5t-34.5 203.5z" />
<glyph unicode="V" horiz-adv-x="1149" d="M82 1634h206l280 -1428l300 1428h201l-366 -1634h-278z" />
<glyph unicode="W" horiz-adv-x="1503" d="M136 1634h195l129 -1202l216 829h154l219 -829l133 1202h187l-173 -1634h-228l-216 851l-231 -851h-216z" />
<glyph unicode="X" horiz-adv-x="1203" d="M82 0l420 846l-387 788h225l267 -562l275 562h216l-390 -786l415 -848h-229l-289 626l-303 -626h-220z" />
<glyph unicode="Y" horiz-adv-x="1191" d="M47 1634h223l332 -678l332 678h211l-447 -874v-760h-208v760z" />
<glyph unicode="Z" horiz-adv-x="1063" d="M106 0v206l649 1257h-595v171h799v-206l-647 -1256h624v-172h-830z" />
<glyph unicode="[" horiz-adv-x="758" d="M199 -280v2194h443v-174h-256v-1846h256v-174h-443z" />
<glyph unicode="\" horiz-adv-x="758" d="M12 1890h185l551 -2148h-185z" />
<glyph unicode="]" horiz-adv-x="758" d="M115 -106h258v1846h-258v174h445v-2194h-445v174z" />
<glyph unicode="^" horiz-adv-x="1137" d="M106 980l337 795h265l324 -795h-214l-241 654l-267 -654h-204z" />
<glyph unicode="_" horiz-adv-x="1189" d="M7 -221h1177v-177h-1177v177z" />
<glyph unicode="`" horiz-adv-x="706" d="M110 1669h254l243 -315h-189z" />
<glyph unicode="a" horiz-adv-x="1122" d="M115 337q0 190 108 286.5t310 96.5h185v126q0 73 -44.5 121t-132.5 48q-101 0 -176 -11.5t-161 -37.5v172q64 19 146 32.5t168 13.5q113 0 189.5 -23t122 -70t65 -120t19.5 -172v-560q0 -35 23.5 -56t80.5 -21v-162h-69q-17 0 -42 5t-51 17.5t-48 34.5t-36 58 q-42 -63 -109.5 -97.5t-186.5 -34.5q-169 0 -265 93t-96 261zM319 349q0 -105 47 -151t145 -46q61 0 101 19t63 44.5t33 54t10 44.5v246h-197q-82 0 -142 -48t-60 -163z" />
<glyph unicode="b" horiz-adv-x="1164" d="M187 12v1622h199v-553q52 49 115.5 76t142.5 27q204 0 286.5 -132.5t82.5 -392.5q0 -192 -26 -321t-83.5 -209t-152.5 -113t-235 -33q-125 0 -195 9.5t-134 19.5zM386 162q28 -5 64.5 -7.5t88.5 -2.5q84 0 136 29.5t82.5 89.5t42 151.5t11.5 211.5q0 110 -11.5 184 t-34.5 118t-62 61.5t-96 17.5q-49 0 -90 -18.5t-70 -48t-45 -65t-16 -67.5v-654z" />
<glyph unicode="c" horiz-adv-x="943" d="M152 607q0 157 23.5 266.5t74 178.5t126.5 100.5t182 31.5q56 0 131 -12t127 -25v-171q-66 14 -124 23t-148 9q-52 0 -88 -21t-58 -72.5t-33 -138t-11 -216.5q0 -133 13 -211.5t38 -120t59.5 -55t79.5 -13.5q96 0 158 11t114 23v-172q-56 -17 -124 -28t-132 -11 q-100 0 -176.5 22.5t-128 88.5t-77.5 189t-26 324z" />
<glyph unicode="d" horiz-adv-x="1176" d="M152 533q0 171 29.5 295t91.5 203.5t157.5 116t230.5 36.5q42 0 72.5 -2t57.5 -7v459h199v-1634h-164l-15 98q-54 -56 -121.5 -85.5t-156.5 -29.5q-111 0 -184.5 34.5t-117.5 103.5t-61.5 172t-17.5 240zM354 509q0 -106 12 -175t39 -109t68 -56.5t97 -16.5q54 0 96 19 t69 48t41.5 63.5t14.5 66.5v657q-28 4 -64.5 6.5t-90.5 2.5q-84 0 -137.5 -33t-86 -98.5t-45.5 -160t-13 -214.5z" />
<glyph unicode="e" horiz-adv-x="1093" d="M152 582q0 324 107 463t318 139q202 0 289.5 -131t87.5 -365v-174h-605q3 -116 17 -187t40 -109t62 -52t80 -14q96 0 178.5 12t136.5 26v-168q-30 -8 -66.5 -15t-76.5 -13t-77.5 -8.5t-70.5 -2.5q-100 0 -179 20.5t-133 84.5t-81 182.5t-27 311.5zM352 673h408v61 q0 134 -42 209t-146 75q-56 0 -95 -16.5t-66.5 -55.5t-41 -105.5t-17.5 -167.5z" />
<glyph unicode="f" horiz-adv-x="724" d="M68 997v171h153v181q0 152 82.5 227t214.5 75q76 0 130.5 -10.5t88.5 -18.5v-165q-37 9 -81 17t-108 8q-63 0 -95.5 -33t-32.5 -82v-199h283v-171h-283v-997h-199v997h-153z" />
<glyph unicode="g" horiz-adv-x="1215" d="M140 776q0 125 39 205.5t106 126t155 61t186 15.5q101 0 183 -34l336 18v-176l-160 9q54 -103 54 -241q0 -200 -115 -297t-356 -97q-89 0 -155 14q-22 -49 -22 -100q0 -66 39 -66q63 0 134.5 10t129.5 10q84 0 154.5 -14t122 -53.5t81 -106.5t29.5 -175q0 -89 -34 -150 t-93.5 -102t-140.5 -59.5t-175 -18.5q-44 0 -106.5 5.5t-126 11.5t-121.5 13t-90 14v167q45 -7 101.5 -14.5t118.5 -13.5t125 -8t120 -2q117 0 167.5 45t50.5 112q0 89 -40 131.5t-157 42.5q-32 0 -77 -3.5t-90.5 -9.5t-84.5 -10t-62 -4q-28 0 -57 18t-53 49.5t-40.5 70.5 t-16.5 83q0 71 16.5 115.5t44.5 79.5q-66 51 -93 133.5t-27 194.5zM340 760q0 -50 10.5 -93t36.5 -73.5t70.5 -48t110.5 -17.5q58 0 107.5 10t86.5 37t57.5 74.5t20.5 126.5q0 50 -11 93t-38 76t-73.5 53t-115.5 20q-152 0 -207 -62t-55 -196z" />
<glyph unicode="h" horiz-adv-x="1182" d="M187 0v1634h199v-553q54 49 120 76t148 27q199 0 275.5 -100.5t76.5 -314.5v-769h-197v794q0 111 -37.5 166t-152.5 55q-49 0 -92 -18.5t-75 -48t-49 -65t-17 -67.5v-816h-199z" />
<glyph unicode="i" horiz-adv-x="572" d="M174 1423v211h222v-211h-222zM187 0v1168h199v-1168h-199z" />
<glyph unicode="j" horiz-adv-x="572" d="M-108 -232q37 -4 91 -6.5t83 -2.5q120 0 121 128v1281h199v-1269q0 -131 -72.5 -219t-217.5 -88q-56 0 -105.5 2.5t-98.5 7.5v166zM174 1423v211h222v-211h-222z" />
<glyph unicode="k" horiz-adv-x="1083" d="M187 0v1634h199v-886l356 420h243l-395 -450l413 -718h-234l-314 582l-69 -83v-499h-199z" />
<glyph unicode="l" horiz-adv-x="619" d="M187 260v1374h199v-1362q0 -61 14.5 -85.5t61.5 -24.5q19 0 36.5 5t27.5 7v-162q-28 -5 -62 -12t-78 -7q-34 0 -70 12t-64.5 43t-46.5 82.5t-18 129.5z" />
<glyph unicode="m" horiz-adv-x="1702" d="M187 0v1168h162l17 -104q108 120 263 120q110 0 176.5 -41t104.5 -106q110 147 291 147q180 0 254 -99.5t74 -315.5v-769h-199v794q0 111 -31 166t-131 55q-47 0 -86.5 -18.5t-66.5 -48t-43 -65t-16 -67.5v-816h-196v794q0 111 -32 166t-133 55q-47 0 -85 -18.5 t-66.5 -48t-43 -65t-14.5 -67.5v-816h-199z" />
<glyph unicode="n" horiz-adv-x="1182" d="M187 0v1168h162l17 -106q115 122 288 122q199 0 275.5 -100.5t76.5 -314.5v-769h-197v794q0 111 -37.5 166t-152.5 55q-49 0 -92 -18.5t-75 -48t-49 -65t-17 -67.5v-816h-199z" />
<glyph unicode="o" horiz-adv-x="1189" d="M152 607q0 298 107 437.5t336 139.5q232 0 338 -139.5t106 -437.5q0 -185 -28 -305t-84.5 -191t-140 -99.5t-191.5 -28.5t-192 28.5t-139 99.5t-83.5 191t-28.5 305zM354 572q0 -228 55 -326t186 -98t185.5 98t54.5 326q0 125 -10.5 210.5t-39 138t-75 76t-115.5 23.5 q-71 0 -117 -23.5t-74 -76t-39 -137.5t-11 -211z" />
<glyph unicode="p" horiz-adv-x="1164" d="M187 -398v1566h162l19 -101q113 117 276 117q204 0 286.5 -132.5t82.5 -392.5q0 -192 -26 -321t-83.5 -209t-152.5 -113t-235 -33q-42 0 -72.5 2.5t-57.5 7.5v-391h-199zM386 162q28 -5 64.5 -7.5t88.5 -2.5q84 0 136 29.5t82.5 89.5t42 151.5t11.5 211.5 q0 110 -11.5 184t-34.5 118t-62 61.5t-96 17.5q-49 0 -90 -18.5t-70 -48t-45 -65t-16 -67.5v-654z" />
<glyph unicode="q" horiz-adv-x="1176" d="M152 533q0 171 29.5 295t91.5 203.5t157.5 116t230.5 36.5q125 0 195 -9.5t134 -18.5v-1554h-199v477q-52 -44 -115.5 -70t-142.5 -26q-111 0 -184.5 34.5t-117.5 103.5t-61.5 172t-17.5 240zM354 509q0 -106 12 -175t39 -109t68 -56.5t97 -16.5q54 0 96 19t69 48 t41.5 63.5t14.5 66.5v657q-28 4 -64.5 6.5t-90.5 2.5q-84 0 -137.5 -33t-86 -98.5t-45.5 -160t-13 -214.5z" />
<glyph unicode="r" horiz-adv-x="788" d="M187 0v1168h162l15 -119q42 59 99.5 97t143.5 38q79 0 123 -12v-208q-30 7 -68 14t-72 7q-56 0 -95.5 -23.5t-64 -61t-34.5 -85.5t-10 -95v-720h-199z" />
<glyph unicode="s" horiz-adv-x="938" d="M140 830q0 96 29.5 163t82.5 109.5t125.5 62t155.5 19.5q91 0 153 -15.5t95 -26.5v-169q-59 15 -116.5 28.5t-150.5 13.5q-54 0 -87 -15t-52 -39.5t-25 -55t-6 -63.5q0 -127 148 -152q182 -30 255.5 -115t73.5 -235q0 -99 -27 -166.5t-78.5 -111t-124.5 -61.5t-161 -18 q-101 0 -170.5 13.5t-109.5 25.5v170q44 -10 129 -23.5t166 -13.5q91 0 130 55t39 116q0 87 -30.5 126.5t-116.5 53.5q-180 33 -253.5 114t-73.5 210z" />
<glyph unicode="t" horiz-adv-x="748" d="M59 992v176h150v279h199v-279h270v-176h-270v-712q0 -17 5 -39.5t17.5 -41.5t36 -33t59.5 -14q51 0 88.5 7.5t63.5 14.5v-162q-22 -7 -78 -18t-121 -11q-143 0 -206.5 88.5t-63.5 221.5v699h-150z" />
<glyph unicode="u" horiz-adv-x="1144" d="M174 406v762h199v-785q0 -57 6.5 -99.5t24.5 -72t50.5 -44.5t86.5 -15q49 0 88 19t68.5 47t46 61t18.5 65v824h197v-1168h-162l-18 96q-49 -56 -114 -84.5t-154 -28.5q-96 0 -160.5 26t-104.5 78.5t-56 131.5t-16 187z" />
<glyph unicode="v" horiz-adv-x="1078" d="M82 1168h213l251 -1004l245 1004h206l-314 -1168h-287z" />
<glyph unicode="w" horiz-adv-x="1422" d="M140 1168h207l87 -844l210 563h162l197 -563l88 844h192l-141 -1168h-206l-218 614l-234 -614h-201z" />
<glyph unicode="x" horiz-adv-x="1083" d="M94 0l338 602l-312 566h229l202 -387l204 387h216l-315 -556l347 -612h-234l-223 432l-234 -432h-218z" />
<glyph unicode="y" horiz-adv-x="1081" d="M82 1168h216l270 -964l229 964h204l-340 -1271q-19 -69 -40 -124.5t-53.5 -96t-78.5 -62.5t-118 -22q-37 0 -75 5t-57 7v173q24 -5 54.5 -8t65.5 -3q66 0 93 107l38 127h-47z" />
<glyph unicode="z" horiz-adv-x="940" d="M106 0v187l506 808h-460v173h671v-209l-504 -787h483v-172h-696z" />
<glyph unicode="{" horiz-adv-x="758" d="M82 688v258q32 0 65 7.5t61 30t45 65t17 116.5v465q0 157 58 227t198 70q21 0 53.5 -4t49.5 -9v-160q-10 3 -29.5 5.5t-41.5 2.5q-54 0 -80 -22t-26 -77v-567q0 -69 -23 -119.5t-58.5 -84.5t-79 -52.5t-82.5 -23.5q39 -5 82.5 -23.5t79 -51.5t58.5 -83.5t23 -118.5v-569 q0 -54 26 -75.5t80 -21.5q22 0 41.5 2.5t29.5 4.5v-160q-17 -4 -49 -8.5t-54 -4.5q-141 0 -198.5 70.5t-57.5 227.5v464q0 73 -17 116.5t-45 65.5t-61.5 29.5t-64.5 7.5z" />
<glyph unicode="|" horiz-adv-x="675" d="M246 -258v2148h186v-2148h-186z" />
<glyph unicode="}" horiz-adv-x="758" d="M127 -120q12 -2 30.5 -4.5t44.5 -2.5q54 0 78.5 21.5t24.5 75.5v569q0 68 23.5 118.5t60 83.5t79.5 51.5t83 23.5q-40 5 -83 23.5t-79.5 52.5t-60 84.5t-23.5 119.5v567q0 54 -24.5 76.5t-78.5 22.5q-24 0 -43 -2.5t-32 -5.5v160q19 5 51.5 9t55.5 4q140 0 198 -70 t58 -227v-465q0 -73 16.5 -116t43.5 -65.5t60.5 -30t65.5 -7.5v-258q-33 0 -66 -7.5t-60 -29.5t-43.5 -64.5t-16.5 -117.5v-464q0 -157 -58.5 -227.5t-197.5 -70.5q-22 0 -54 3.5t-53 9.5v160z" />
<glyph unicode="~" horiz-adv-x="1189" d="M199 622v182q79 49 133 62.5t106 13.5q47 0 88.5 -14.5t82 -31t81 -31.5t84.5 -15q64 0 116.5 25t101.5 59v-182q-54 -35 -114 -55.5t-123 -20.5q-49 0 -90 15t-80 31t-80 31t-90 15q-61 0 -114 -25t-102 -59z" />
<glyph unicode="&#xa1;" horiz-adv-x="582" d="M174 934v234h234v-234h-234zM194 -467v1147h200v-1147h-200z" />
<glyph unicode="&#xa2;" horiz-adv-x="1095" d="M232 605q0 279 77 412t244 158v225h186v-225q42 -5 83 -13.5t72 -16.5v-172q-64 15 -122.5 24t-147.5 9q-52 0 -87 -21t-57.5 -73t-34 -138t-11.5 -216q0 -131 14 -210.5t37.5 -121t59 -55.5t79.5 -14q94 0 156 11.5t114 23.5v-173q-35 -12 -74 -19t-81 -12v-246h-186 v244q-79 7 -139 38.5t-101 100.5t-61 185.5t-20 294.5z" />
<glyph unicode="&#xa3;" horiz-adv-x="1095" d="M155 0v169h162v625h-162v170h162v132q0 171 23.5 279.5t75 170t130 83.5t188.5 22q42 0 105 -6t120 -15v-176q-24 5 -55.5 9.5t-60.5 6.5t-54 3.5t-39 1.5q-68 0 -112.5 -12.5t-70.5 -50.5t-36 -110.5t-10 -190.5v-147h297v-170h-297v-625h462v-169h-828z" />
<glyph unicode="&#xa4;" horiz-adv-x="1328" d="M73 241l148 148q-69 125 -69 312q0 185 69 309l-148 150l133 130l138 -137q134 96 322 95q187 0 317 -95l140 137l130 -130l-147 -150q35 -61 53 -138.5t18 -170.5q0 -94 -18.5 -172.5t-52.5 -139.5l147 -148l-130 -131l-140 138q-64 -49 -145 -72.5t-172 -23.5 q-194 0 -322 96l-138 -138zM354 701q0 -192 89.5 -289.5t222.5 -97.5t220 97.5t87 289.5t-87 288.5t-220 96.5t-222.5 -97t-89.5 -288z" />
<glyph unicode="&#xa5;" horiz-adv-x="1095" d="M47 1634h223l286 -637l282 637h211l-393 -840h300v-175h-304v-176h304v-175h-304v-268h-209v268h-305v175h305v176h-305v175h296z" />
<glyph unicode="&#xa6;" horiz-adv-x="675" d="M246 -258v840h186v-840h-186zM246 1049v841h186v-841h-186z" />
<glyph unicode="&#xa7;" horiz-adv-x="1095" d="M194 811q0 94 40.5 156.5t105.5 104.5q-52 34 -78 98t-26 138q0 96 29.5 161t82.5 105.5t125.5 58.5t155.5 18q91 0 152 -12t96 -21v-173q-56 17 -115 28t-152 11q-52 0 -86 -16t-55 -40.5t-30 -54t-9 -53.5q0 -143 150 -167q180 -30 252.5 -118.5t72.5 -211.5 q0 -101 -44.5 -162t-108.5 -101q57 -37 84 -103t27 -133q0 -94 -30.5 -158.5t-83.5 -105.5t-124.5 -59t-155.5 -18q-91 0 -153.5 12t-97.5 24v168q59 -14 117.5 -24.5t154.5 -10.5q51 0 85.5 17.5t55.5 41t29 51.5t8 50q0 68 -35 112.5t-115 56.5q-182 30 -253 119t-71 211z M396 821q0 -40 6 -70.5t26 -55t56.5 -42t99.5 -27.5q17 8 38.5 26.5t38.5 43t29.5 55t12.5 63.5q0 39 -7.5 69.5t-28 55.5t-60 41.5t-105.5 29.5q-45 -14 -75.5 -70t-30.5 -119z" />
<glyph unicode="&#xa8;" horiz-adv-x="828" d="M82 1388v188h198v-188h-198zM548 1388v188h200v-188h-200z" />
<glyph unicode="&#xa9;" horiz-adv-x="1867" d="M199 816q0 194 42 349t131.5 263t231 165.5t342.5 57.5q199 0 338 -57.5t223.5 -166.5t123 -264t38.5 -347q0 -194 -38.5 -348t-124 -262t-223.5 -165.5t-337 -57.5q-200 0 -342 56.5t-231.5 163.5t-131.5 261.5t-42 351.5zM378 816q0 -155 26 -279t91 -212.5t174.5 -135 t276.5 -46.5q164 0 270 48t167.5 135t83.5 211t22 279t-22 280.5t-83.5 212.5t-167 135t-270.5 48q-167 0 -276.5 -47t-174.5 -134t-91 -212.5t-26 -282.5zM680 830q0 143 19 229t55.5 134t91 64t125.5 16q12 0 31.5 -2.5t38.5 -4.5t34.5 -6t22.5 -7v-111q-68 12 -144 14 q-35 0 -60.5 -9t-43 -42t-26 -100t-8.5 -184q0 -120 8.5 -189t26 -102t44.5 -42t61 -9q40 0 79 4t63 9v-112q-19 -4 -63.5 -11.5t-78.5 -7.5q-68 0 -120 20t-86.5 71.5t-52 142t-17.5 235.5z" />
<glyph unicode="&#xaa;" horiz-adv-x="921" d="M140 1008q0 143 82.5 221.5t229.5 78.5h125v88q0 49 -27 80.5t-90 31.5q-76 0 -133 -8t-121 -28v137q50 17 110 27t127 10q171 0 233.5 -66t62.5 -218v-431q0 -56 77 -56v-113h-52q-24 0 -68 13t-70 63q-66 -84 -225 -83q-49 0 -96 9.5t-83.5 36.5t-59 77.5t-22.5 129.5z M157 0v174h585v-174h-585zM305 1020q0 -66 31 -96t102 -30q44 0 72.5 14t43 32.5t19 39.5t4.5 33v164h-134q-57 0 -97.5 -35.5t-40.5 -121.5z" />
<glyph unicode="&#xab;" horiz-adv-x="1086" d="M174 698l209 484h152l-144 -484l144 -484h-152zM548 698l209 484h153l-146 -484l146 -484h-153z" />
<glyph unicode="&#xac;" horiz-adv-x="1341" d="M162 642v174h1018v-568h-200v394h-818z" />
<glyph unicode="&#xad;" horiz-adv-x="1154" d="M199 642v174h757v-174h-757z" />
<glyph unicode="&#xae;" horiz-adv-x="1867" d="M199 816q0 194 42 349t131.5 263t231 165.5t342.5 57.5q199 0 338 -57.5t223.5 -166.5t123 -264t38.5 -347q0 -194 -38.5 -348t-124 -262t-223.5 -165.5t-337 -57.5q-200 0 -342 56.5t-231.5 163.5t-131.5 261.5t-42 351.5zM378 816q0 -155 26 -279t91 -212.5t174.5 -135 t276.5 -46.5q164 0 270 48t167.5 135t83.5 211t22 279t-22 280.5t-83.5 212.5t-167 135t-270.5 48q-167 0 -276.5 -47t-174.5 -134t-91 -212.5t-26 -282.5zM722 371v900q30 0 64 2q30 3 68 4t80 1q147 0 201 -72.5t54 -190.5q0 -98 -30.5 -164.5t-96.5 -93.5l174 -386h-140 l-158 366h-87v-366h-129zM851 851h101q24 0 45 4.5t35 20.5t22 47t8 83q0 93 -21 128.5t-89 35.5q-28 0 -48 -1t-32 -1q-14 -3 -21 -3v-314z" />
<glyph unicode="&#xaf;" horiz-adv-x="758" d="M82 1414v162h594v-162h-594z" />
<glyph unicode="&#xb0;" horiz-adv-x="847" d="M68 1285q0 76 20 141.5t62 114.5t109 77t163 28t163 -28t109.5 -76t62 -114.5t19.5 -142.5q0 -75 -19.5 -143t-62 -118.5t-109.5 -80t-163 -29.5t-163 29.5t-109 81t-62 119.5t-20 141zM241 1288q0 -40 8.5 -79t29.5 -71t55 -53t88 -21t89 21t55.5 53t29.5 71t9 79 q0 39 -9 77t-29.5 69t-55.5 49t-89 18t-88 -18t-55 -49t-29.5 -69t-8.5 -77z" />
<glyph unicode="&#xb1;" horiz-adv-x="1282" d="M199 0v174h887v-174h-887zM199 642v174h349v371h186v-371h352v-174h-352v-307h-186v307h-349z" />
<glyph unicode="&#xb2;" horiz-adv-x="955" d="M155 479v165l260 366q40 59 64.5 101t36.5 78.5t17.5 73.5t5.5 88q0 69 -29 107t-112 38q-56 0 -114 -8t-99 -18v150q17 2 79 14t134 12q315 0 315 -312q0 -54 -6 -97t-22.5 -84.5t-43.5 -88t-66 -108.5l-228 -327h380v-150h-572z" />
<glyph unicode="&#xb3;" horiz-adv-x="955" d="M187 492v150q33 -7 97.5 -17.5t121.5 -10.5q66 0 106.5 47t40.5 141q0 110 -28 165t-124 55h-133v148h118q54 0 83.5 18.5t44 47t18 59t3.5 56.5q0 91 -34 119.5t-100 28.5q-57 0 -111 -9.5t-93 -19.5v150q7 2 28 6t50.5 8.5t63.5 8t69 3.5q66 0 121 -13t95 -48t62 -95 t22 -156q0 -79 -32 -142.5t-104 -89.5q74 -15 114.5 -87t40.5 -197q0 -98 -21 -164.5t-61 -108t-96.5 -60t-130.5 -18.5q-33 0 -70.5 3.5t-70.5 7t-58 9t-32 5.5z" />
<glyph unicode="&#xb4;" horiz-adv-x="706" d="M106 1354l243 315h253l-307 -315h-189z" />
<glyph unicode="&#xb5;" horiz-adv-x="1156" d="M187 -398v1566h199v-819q3 -93 34.5 -145t132.5 -52q47 0 87 19t68.5 47t46 61t17.5 65v824h199v-1168h-162l-18 96q-49 -56 -114 -84.5t-154 -28.5q-75 0 -137 27v-408h-199z" />
<glyph unicode="&#xb6;" horiz-adv-x="1189" d="M127 1268q0 106 30 178.5t80.5 117.5t113 66t128.5 21q47 0 90 -2.5t75 -6.5q38 -5 69 -8v-157q-49 10 -91 13.5t-76 3.5q-131 0 -186 -53t-55 -177q0 -111 33 -171.5t136 -60.5h239v-1032h-195v872h-56q-61 0 -121.5 16.5t-107 59t-76.5 120t-30 200.5zM840 0v1634h187 v-1634h-187z" />
<glyph unicode="&#xb7;" horiz-adv-x="535" d="M152 607v233h234v-233h-234z" />
<glyph unicode="&#xb8;" horiz-adv-x="704" d="M155 -305q32 -7 65 -10.5t60 -3.5q49 0 72.5 14.5t23.5 56.5q0 34 -37 53t-152 19l47 291h152l-27 -179q105 -12 149.5 -56t44.5 -136q0 -110 -69 -160.5t-182 -50.5q-42 0 -76 5t-71 12v145z" />
<glyph unicode="&#xb9;" horiz-adv-x="955" d="M202 1379v167l204 88h194v-1003h169v-152h-551v152h207v839z" />
<glyph unicode="&#xba;" horiz-adv-x="969" d="M152 1219q0 223 80 327.5t255 104.5q172 0 251.5 -104.5t79.5 -327.5q0 -138 -21 -228.5t-64 -145t-104 -75t-142 -20.5t-144 20.5t-106 75t-64 145t-21 228.5zM160 0v174h644v-174h-644zM319 1187q0 -79 6 -135.5t24.5 -93t50.5 -55.5t87 -19q106 0 135.5 74t29.5 229 q0 75 -7 137t-23.5 104t-48.5 65.5t-86 23.5t-86.5 -23.5t-51 -65.5t-24.5 -103t-6 -138z" />
<glyph unicode="&#xbb;" horiz-adv-x="1086" d="M174 214l148 484l-148 484h155l206 -484l-206 -484h-155zM548 214l148 484l-148 484h155l207 -484l-207 -484h-155z" />
<glyph unicode="&#xbc;" horiz-adv-x="2041" d="M176 1379v167l207 88h194v-1003h168v-152h-548v152h204v839zM575 -234l747 2124h186l-746 -2124h-187zM1224 272v173l172 711h162l-172 -734h180l17 335h157v-335h115v-150h-115v-272h-174v272h-342z" />
<glyph unicode="&#xbd;" horiz-adv-x="2041" d="M176 1379v167l207 88h194v-1003h168v-152h-548v152h204v839zM584 -234l743 2124h192l-747 -2124h-188zM1327 0v164l261 369q39 59 63.5 99.5t36.5 78t17 74t5 87.5q0 69 -28 107.5t-111 38.5q-57 0 -115 -8.5t-100 -17.5v150q14 0 78.5 13t136.5 13q314 0 314 -310 q0 -56 -6 -99.5t-22 -85.5t-43 -87t-67 -107l-230 -327h383v-152h-573z" />
<glyph unicode="&#xbe;" horiz-adv-x="2041" d="M204 492v150q32 -7 97 -17.5t121 -10.5q66 0 107 47t41 141q0 110 -29.5 165t-122.5 55h-132v148h115q54 0 83.5 18.5t44.5 47t18.5 59t3.5 56.5q0 91 -33.5 119.5t-99.5 28.5q-57 0 -112 -9.5t-95 -19.5v150q7 2 29.5 6t52 8.5t64 8t68.5 3.5q66 0 121.5 -13t94.5 -48 t60 -95t21 -156q0 -79 -31.5 -142.5t-103.5 -89.5q73 -15 115.5 -87t42.5 -197q0 -98 -21 -164.5t-61.5 -108t-97 -60t-131.5 -18.5q-32 0 -70 3.5t-72 7t-58.5 9t-29.5 5.5zM548 -234l747 2124h187l-748 -2124h-186zM1207 272v173l172 711h162l-169 -734h178l16 335h157 v-335h118v-150h-118v-272h-173v272h-343z" />
<glyph unicode="&#xbf;" horiz-adv-x="840" d="M82 -94q0 69 4.5 114.5t22.5 86.5t53 86.5t94 113.5l127 150v223h199v-282l-139 -164q-57 -66 -90.5 -108t-49 -77t-19.5 -71.5t-4 -92.5q0 -113 53 -155t141 -42q71 0 150 12t136 25v-170q-22 -5 -54.5 -12t-68 -13t-72.5 -10t-68 -4q-96 0 -173.5 14.5t-130.5 58 t-82 119.5t-29 198zM364 934v234h234v-234h-234z" />
<glyph unicode="&#xc0;" horiz-adv-x="1213" d="M59 0l417 1634h269l411 -1634h-207l-101 413h-482l-101 -413h-206zM307 1963h261l243 -267h-194zM403 587h408l-204 893z" />
<glyph unicode="&#xc1;" horiz-adv-x="1213" d="M59 0l417 1634h269l411 -1634h-207l-101 413h-482l-101 -413h-206zM398 1696l244 267h260l-309 -267h-195zM403 587h408l-204 893z" />
<glyph unicode="&#xc2;" horiz-adv-x="1213" d="M59 0l417 1634h269l411 -1634h-207l-101 413h-482l-101 -413h-206zM241 1703l256 271h216l258 -271h-226l-140 150l-141 -150h-223zM403 587h408l-204 893z" />
<glyph unicode="&#xc3;" horiz-adv-x="1213" d="M59 0l417 1634h269l411 -1634h-207l-101 413h-482l-101 -413h-206zM307 1712v173q54 42 104.5 59t97.5 17q42 0 75 -14.5t64.5 -30.5t61 -30.5t64.5 -14.5q64 0 103.5 20.5t83.5 62.5v-170q-44 -44 -92 -61.5t-107 -17.5q-44 0 -77 15t-62.5 31.5t-61 30.5t-67.5 14 q-61 0 -105.5 -24.5t-81.5 -59.5zM403 587h408l-204 893z" />
<glyph unicode="&#xc4;" horiz-adv-x="1213" d="M59 0l417 1634h269l411 -1634h-207l-101 413h-482l-101 -413h-206zM272 1716v186h200v-186h-200zM403 587h408l-204 893zM739 1716v186h185l14 -186h-199z" />
<glyph unicode="&#xc5;" horiz-adv-x="1213" d="M59 0l403 1573q-37 33 -55 80t-18 104q0 103 57.5 171t160.5 68q106 0 164.5 -67t58.5 -172q0 -111 -70 -181l396 -1576h-207l-101 413h-480l-103 -413h-206zM406 587h405l-204 893zM521 1759q0 -39 17.5 -76t68.5 -37q57 0 73 35.5t16 77.5q0 47 -18.5 82t-70.5 35 q-51 0 -68.5 -37.5t-17.5 -79.5z" />
<glyph unicode="&#xc6;" horiz-adv-x="1747" d="M59 0l558 1634h943v-169h-624l65 -536h547v-169h-528l71 -591h516v-169h-697l-47 413h-465l-133 -413h-206zM455 587h387l-94 878z" />
<glyph unicode="&#xc7;" horiz-adv-x="1034" d="M152 842q0 258 37 417t107 246t172 116.5t230 29.5q57 0 119.5 -10.5t111.5 -22.5v-173q-57 14 -130.5 22t-142.5 8q-63 0 -117.5 -22.5t-95 -91.5t-62.5 -196.5t-22 -338.5q0 -221 23.5 -352.5t64 -201.5t94.5 -91t118 -21q71 0 148 11t122 23v-172q-19 -5 -48.5 -11 t-65.5 -12t-71.5 -11t-65.5 -5l-5 -47q106 -12 149 -56t43 -136q0 -110 -67.5 -160.5t-183.5 -50.5q-42 0 -76 5t-71 12v145q32 -7 65 -10.5t61 -3.5q49 0 72 14.5t23 56.5q0 34 -37 53t-152 19l29 174q-86 16 -156 69t-119 151.5t-75 251t-26 372.5z" />
<glyph unicode="&#xc8;" horiz-adv-x="1102" d="M199 0v1634h765v-169h-563v-536h506v-169h-506v-591h563v-169h-765zM260 1963h261l243 -267h-194z" />
<glyph unicode="&#xc9;" horiz-adv-x="1102" d="M199 0v1634h765v-169h-563v-536h506v-169h-506v-591h563v-169h-765zM425 1696l243 267h258l-307 -267h-194z" />
<glyph unicode="&#xca;" horiz-adv-x="1102" d="M199 0v1634h765v-169h-563v-536h506v-169h-506v-591h563v-169h-765zM216 1703l258 271h214l261 -271h-227l-140 150l-139 -150h-227z" />
<glyph unicode="&#xcb;" horiz-adv-x="1102" d="M199 0v1634h765v-169h-563v-536h506v-169h-506v-591h563v-169h-765zM253 1716v186h197v-186h-197zM720 1716v186h197v-186h-197z" />
<glyph unicode="&#xcc;" horiz-adv-x="739" d="M89 1963h260l241 -267h-194zM106 0v169h162v1296h-162v169h528v-169h-162v-1296h162v-169h-528z" />
<glyph unicode="&#xcd;" horiz-adv-x="739" d="M106 0v169h162v1296h-162v169h528v-169h-162v-1296h162v-169h-528zM143 1696l243 267h258l-307 -267h-194z" />
<glyph unicode="&#xce;" horiz-adv-x="739" d="M5 1703l255 271h216l258 -271h-225l-141 150l-140 -150h-223zM106 0v169h162v1296h-162v169h528v-169h-162v-1296h162v-169h-528z" />
<glyph unicode="&#xcf;" horiz-adv-x="739" d="M37 1716v186h199v-186h-199zM106 0v169h162v1296h-162v169h528v-169h-162v-1296h162v-169h-528zM504 1716v186h199v-186h-199z" />
<glyph unicode="&#xd0;" horiz-adv-x="1297" d="M59 760v174h162v700q68 3 140 8q61 4 131.5 6.5t131.5 2.5q122 0 219.5 -29.5t164 -116.5t102 -246t35.5 -417q0 -260 -33 -427t-96.5 -263t-155 -132.5t-208.5 -36.5q-69 0 -144.5 1.5t-139.5 5.5q-75 5 -147 10v760h-162zM425 162q42 -2 86 -5q37 -2 81 -2h81 q54 0 102 33t85.5 110.5t57.5 206.5t20 321q0 208 -20 337t-57.5 199.5t-85.5 94t-99 23.5q-35 0 -77.5 -1.5t-82.5 -3.5q-44 -3 -91 -5v-536h263v-174h-263v-598z" />
<glyph unicode="&#xd1;" horiz-adv-x="1276" d="M199 0v1634h331l359 -1462v1462h190v-1634h-334l-356 1463v-1463h-190zM307 1712v173q54 42 104.5 59t97.5 17q42 0 75 -14.5t64.5 -30.5t61 -30.5t64.5 -14.5q64 0 103.5 20.5t83.5 62.5v-170q-44 -44 -92 -61.5t-107 -17.5q-44 0 -77 15t-62.5 31.5t-61 30.5t-67.5 14 q-61 0 -105.5 -24.5t-81.5 -59.5z" />
<glyph unicode="&#xd2;" horiz-adv-x="1326" d="M152 835q0 207 26 359t85 254t157 152.5t244 50.5q145 0 243.5 -50.5t157 -152.5t84.5 -254t26 -359q0 -213 -26 -374t-84.5 -266.5t-157 -158.5t-243.5 -53q-146 0 -244 53t-157 158.5t-85 266.5t-26 374zM329 1963h258l243 -267h-194zM359 823q0 -189 18.5 -317 t55 -205.5t94 -111.5t137.5 -34q79 0 135.5 34t93 111.5t55 205.5t18.5 317q0 192 -18.5 318.5t-55 201.5t-93.5 106t-135 31q-80 0 -137.5 -31t-94 -106t-55 -201.5t-18.5 -318.5z" />
<glyph unicode="&#xd3;" horiz-adv-x="1326" d="M152 835q0 207 26 359t85 254t157 152.5t244 50.5q145 0 243.5 -50.5t157 -152.5t84.5 -254t26 -359q0 -213 -26 -374t-84.5 -266.5t-157 -158.5t-243.5 -53q-146 0 -244 53t-157 158.5t-85 266.5t-26 374zM359 823q0 -189 18.5 -317t55 -205.5t94 -111.5t137.5 -34 q79 0 135.5 34t93 111.5t55 205.5t18.5 317q0 192 -18.5 318.5t-55 201.5t-93.5 106t-135 31q-80 0 -137.5 -31t-94 -106t-55 -201.5t-18.5 -318.5zM504 1696l244 267h258l-308 -267h-194z" />
<glyph unicode="&#xd4;" horiz-adv-x="1326" d="M152 835q0 207 26 359t85 254t157 152.5t244 50.5q145 0 243.5 -50.5t157 -152.5t84.5 -254t26 -359q0 -213 -26 -374t-84.5 -266.5t-157 -158.5t-243.5 -53q-146 0 -244 53t-157 158.5t-85 266.5t-26 374zM300 1703l256 271h213l261 -271h-226l-140 150l-141 -150h-223z M359 823q0 -189 18.5 -317t55 -205.5t94 -111.5t137.5 -34q79 0 135.5 34t93 111.5t55 205.5t18.5 317q0 192 -18.5 318.5t-55 201.5t-93.5 106t-135 31q-80 0 -137.5 -31t-94 -106t-55 -201.5t-18.5 -318.5z" />
<glyph unicode="&#xd5;" horiz-adv-x="1326" d="M152 835q0 207 26 359t85 254t157 152.5t244 50.5q145 0 243.5 -50.5t157 -152.5t84.5 -254t26 -359q0 -213 -26 -374t-84.5 -266.5t-157 -158.5t-243.5 -53q-146 0 -244 53t-157 158.5t-85 266.5t-26 374zM347 1712v173q51 42 103 59t96 17q42 0 76 -14.5t65 -30.5 t61.5 -30.5t65.5 -14.5q61 0 100.5 20.5t86.5 62.5v-170q-47 -44 -95 -61.5t-107 -17.5q-44 0 -77.5 15t-63 31.5t-59 30.5t-66.5 14q-64 0 -107 -24.5t-79 -59.5zM359 823q0 -189 18.5 -317t55 -205.5t94 -111.5t137.5 -34q79 0 135.5 34t93 111.5t55 205.5t18.5 317 q0 192 -18.5 318.5t-55 201.5t-93.5 106t-135 31q-80 0 -137.5 -31t-94 -106t-55 -201.5t-18.5 -318.5z" />
<glyph unicode="&#xd6;" horiz-adv-x="1326" d="M152 835q0 207 26 359t85 254t157 152.5t244 50.5q145 0 243.5 -50.5t157 -152.5t84.5 -254t26 -359q0 -213 -26 -374t-84.5 -266.5t-157 -158.5t-243.5 -53q-146 0 -244 53t-157 158.5t-85 266.5t-26 374zM331 1716v186h199v-186h-199zM359 823q0 -189 18.5 -317 t55 -205.5t94 -111.5t137.5 -34q79 0 135.5 34t93 111.5t55 205.5t18.5 317q0 192 -18.5 318.5t-55 201.5t-93.5 106t-135 31q-80 0 -137.5 -31t-94 -106t-55 -201.5t-18.5 -318.5zM799 1716v186h198v-186h-198z" />
<glyph unicode="&#xd7;" horiz-adv-x="1282" d="M239 450l270 272l-270 275l129 131l274 -270l272 270l132 -131l-272 -275l272 -272l-132 -131l-272 271l-274 -271z" />
<glyph unicode="&#xd8;" horiz-adv-x="1280" d="M152 835q0 207 22.5 359t77.5 254t148.5 152.5t237.5 50.5q45 0 84.5 -3.5t74.5 -15.5l66 214h176l-87 -296q100 -93 138 -270t38 -445q0 -213 -22 -374t-77.5 -266.5t-150 -158.5t-240.5 -53q-42 0 -79.5 5t-71.5 12l-65 -211h-176l89 295q-103 96 -143 282.5t-40 468.5 zM359 823q0 -169 10.5 -289.5t38.5 -198.5l337 1128q-21 7 -49 12t-58 5q-79 0 -131 -31t-85 -106t-48 -201.5t-15 -318.5zM535 169q47 -14 103 -14q80 0 134 34t87 111.5t46.5 205.5t13.5 317q0 167 -9.5 283t-34.5 191z" />
<glyph unicode="&#xd9;" horiz-adv-x="1294" d="M187 432v1202h204v-1245q0 -123 76.5 -178.5t181.5 -55.5q106 0 182 55t76 179v1245h202v-1202q0 -118 -35 -203.5t-95 -139.5t-144.5 -80t-185.5 -26t-186 26t-146 80t-95.5 139.5t-34.5 203.5zM305 1963h260l244 -267h-195z" />
<glyph unicode="&#xda;" horiz-adv-x="1294" d="M187 432v1202h204v-1245q0 -123 76.5 -178.5t181.5 -55.5q106 0 182 55t76 179v1245h202v-1202q0 -118 -35 -203.5t-95 -139.5t-144.5 -80t-185.5 -26t-186 26t-146 80t-95.5 139.5t-34.5 203.5zM504 1696l244 267h258l-308 -267h-194z" />
<glyph unicode="&#xdb;" horiz-adv-x="1294" d="M187 432v1202h204v-1245q0 -123 76.5 -178.5t181.5 -55.5q106 0 182 55t76 179v1245h202v-1202q0 -118 -35 -203.5t-95 -139.5t-144.5 -80t-185.5 -26t-186 26t-146 80t-95.5 139.5t-34.5 203.5zM288 1703l256 271h216l258 -271h-227l-139 150l-141 -150h-223z" />
<glyph unicode="&#xdc;" horiz-adv-x="1294" d="M187 432v1202h204v-1245q0 -123 76.5 -178.5t181.5 -55.5q106 0 182 55t76 179v1245h202v-1202q0 -118 -35 -203.5t-95 -139.5t-144.5 -80t-185.5 -26t-186 26t-146 80t-95.5 139.5t-34.5 203.5zM319 1716v186h199v-186h-199zM786 1716v186h199v-186h-199z" />
<glyph unicode="&#xdd;" horiz-adv-x="1191" d="M47 1634h223l332 -678l332 678h211l-447 -874v-760h-208v760zM457 1696l244 267h258l-307 -267h-195z" />
<glyph unicode="&#xde;" horiz-adv-x="1189" d="M199 0v1634h202v-304q44 2 92 5.5t100 3.5q133 0 221 -36.5t141 -102t73.5 -156t20.5 -198.5q0 -268 -101.5 -392.5t-349.5 -124.5h-197v-329h-202zM401 499h221q49 0 89.5 15.5t70 54t45 101t15.5 158.5q0 176 -47 260t-173 84q-50 0 -90 -2t-70 -5q-35 -5 -61 -7v-659z " />
<glyph unicode="&#xdf;" horiz-adv-x="1210" d="M187 0v1243q0 197 107 302.5t290 105.5q99 0 170.5 -27t119.5 -73.5t71 -110.5t23 -140q0 -42 -2 -76.5t-7 -66t-11.5 -67t-16.5 -80.5q-140 0 -193 -37t-53 -105q0 -35 18.5 -62t63.5 -44q56 -24 111.5 -56.5t98.5 -79t69 -110.5t26 -152q0 -106 -27 -178.5t-77.5 -118 t-124.5 -65t-167 -19.5q-12 0 -33 1.5t-46 5t-48 7t-40 8.5v171q39 -12 86 -18t88 -6q98 0 139 60t41 140q0 96 -38.5 147.5t-136.5 98.5q-101 46 -145 108.5t-44 173.5q0 122 75 190t200 88q12 35 17.5 70.5t5.5 84.5q0 63 -50.5 116t-164.5 53q-89 0 -142.5 -53 t-53.5 -168v-1261h-199z" />
<glyph unicode="&#xe0;" horiz-adv-x="1122" d="M115 329q0 192 111 291.5t307 99.5h185v126q0 73 -44.5 121t-132.5 48q-101 0 -176 -11.5t-161 -37.5v172q64 19 146 32.5t168 13.5q113 0 189.5 -23t122 -70t65 -120t19.5 -172v-560q0 -35 23.5 -56t80.5 -21v-162h-69q-17 0 -42 5t-51 17.5t-48 34.5t-36 58 q-42 -63 -116 -97.5t-192 -34.5q-63 0 -126 13.5t-112.5 51.5t-80 105.5t-30.5 175.5zM253 1669h253l244 -315h-190zM319 344q0 -110 49.5 -151t142.5 -41q61 0 101 19t63 44.5t33 54t10 44.5v246h-197q-76 0 -139 -51.5t-63 -164.5z" />
<glyph unicode="&#xe1;" horiz-adv-x="1122" d="M115 329q0 192 111 291.5t307 99.5h185v126q0 73 -44.5 121t-132.5 48q-101 0 -176 -11.5t-161 -37.5v172q64 19 146 32.5t168 13.5q113 0 189.5 -23t122 -70t65 -120t19.5 -172v-560q0 -35 23.5 -56t80.5 -21v-162h-69q-17 0 -42 5t-51 17.5t-48 34.5t-36 58 q-42 -63 -116 -97.5t-192 -34.5q-63 0 -126 13.5t-112.5 51.5t-80 105.5t-30.5 175.5zM319 344q0 -110 49.5 -151t142.5 -41q61 0 101 19t63 44.5t33 54t10 44.5v246h-197q-76 0 -139 -51.5t-63 -164.5zM425 1354l243 315h254l-308 -315h-189z" />
<glyph unicode="&#xe2;" horiz-adv-x="1122" d="M115 329q0 192 111 291.5t307 99.5h185v126q0 73 -44.5 121t-132.5 48q-101 0 -176 -11.5t-161 -37.5v172q64 19 146 32.5t168 13.5q113 0 189.5 -23t122 -70t65 -120t19.5 -172v-560q0 -35 23.5 -56t80.5 -21v-162h-69q-17 0 -42 5t-51 17.5t-48 34.5t-36 58 q-42 -63 -116 -97.5t-192 -34.5q-63 0 -126 13.5t-112.5 51.5t-80 105.5t-30.5 175.5zM209 1354l260 315h207l262 -315h-225l-141 196l-140 -196h-223zM319 344q0 -110 49.5 -151t142.5 -41q61 0 101 19t63 44.5t33 54t10 44.5v246h-197q-76 0 -139 -51.5t-63 -164.5z" />
<glyph unicode="&#xe3;" horiz-adv-x="1122" d="M115 329q0 192 111 291.5t307 99.5h185v126q0 73 -44.5 121t-132.5 48q-101 0 -176 -11.5t-161 -37.5v172q64 19 146 32.5t168 13.5q113 0 189.5 -23t122 -70t65 -120t19.5 -172v-560q0 -35 23.5 -56t80.5 -21v-162h-69q-17 0 -42 5t-51 17.5t-48 34.5t-36 58 q-42 -63 -116 -97.5t-192 -34.5q-63 0 -126 13.5t-112.5 51.5t-80 105.5t-30.5 175.5zM236 1386v172q52 42 103.5 59t98.5 17q40 0 74 -15t64.5 -30.5t61 -30.5t65.5 -15q61 0 100 21t86 63v-170q-47 -45 -93 -61.5t-108 -16.5q-45 0 -76.5 15t-61 30.5t-60 30.5t-68.5 15 q-61 0 -105.5 -24.5t-80.5 -59.5zM319 344q0 -110 49.5 -151t142.5 -41q61 0 101 19t63 44.5t33 54t10 44.5v246h-197q-76 0 -139 -51.5t-63 -164.5z" />
<glyph unicode="&#xe4;" horiz-adv-x="1122" d="M115 329q0 192 111 291.5t307 99.5h185v126q0 73 -44.5 121t-132.5 48q-101 0 -176 -11.5t-161 -37.5v172q64 19 146 32.5t168 13.5q113 0 189.5 -23t122 -70t65 -120t19.5 -172v-560q0 -35 23.5 -56t80.5 -21v-162h-69q-17 0 -42 5t-51 17.5t-48 34.5t-36 58 q-42 -63 -116 -97.5t-192 -34.5q-63 0 -126 13.5t-112.5 51.5t-80 105.5t-30.5 175.5zM226 1388v188h199v-188h-199zM319 344q0 -110 49.5 -151t142.5 -41q61 0 101 19t63 44.5t33 54t10 44.5v246h-197q-76 0 -139 -51.5t-63 -164.5zM694 1388v188h198v-188h-198z" />
<glyph unicode="&#xe5;" horiz-adv-x="1122" d="M115 329q0 192 111 291.5t307 99.5h185v126q0 73 -44.5 121t-132.5 48q-101 0 -176 -11.5t-161 -37.5v172q64 19 146 32.5t168 13.5q113 0 189.5 -23t122 -70t65 -120t19.5 -172v-560q0 -35 23.5 -56t80.5 -21v-162h-69q-17 0 -42 5t-51 17.5t-48 34.5t-36 58 q-42 -63 -116 -97.5t-192 -34.5q-63 0 -126 13.5t-112.5 51.5t-80 105.5t-30.5 175.5zM314 1506q0 103 59 171t162 68q106 0 165.5 -66.5t59.5 -172.5q0 -103 -61 -170.5t-164 -67.5t-162 68.5t-59 169.5zM319 344q0 -110 49.5 -151t142.5 -41q61 0 101 19t63 44.5t33 54 t10 44.5v246h-197q-76 0 -139 -51.5t-63 -164.5zM448 1508q0 -39 18 -77t69 -38q57 0 73 35.5t16 79.5q0 45 -18.5 79.5t-70.5 34.5q-51 0 -69 -36t-18 -78z" />
<glyph unicode="&#xe6;" horiz-adv-x="1656" d="M115 329q0 185 111 276t307 91h185v150q0 71 -44.5 120t-132.5 49q-101 0 -176 -13.5t-161 -40.5v172q64 19 146 35t168 16q125 0 204.5 -30.5t119.5 -93.5q104 124 300 124q202 0 288.5 -131t86.5 -365v-153h-607q0 -122 14 -197t42.5 -116.5t65.5 -55.5t82 -14 q96 0 179 15t133 27v-172q-57 -15 -141 -27t-147 -12q-123 0 -209.5 34.5t-137.5 134.5q-42 -79 -117.5 -124t-209.5 -45q-63 0 -126 13.5t-112.5 51.5t-80 105.5t-30.5 175.5zM319 344q0 -110 49.5 -151t142.5 -41q57 0 96.5 17.5t63 41t34 50.5t13.5 46v228h-197 q-37 0 -74 -9.5t-65 -31.5t-45.5 -59t-17.5 -91zM912 696h413v38q0 134 -42 209t-145 75q-54 0 -94.5 -16.5t-67.5 -53t-43 -98.5t-21 -154z" />
<glyph unicode="&#xe7;" horiz-adv-x="943" d="M152 607q0 157 23.5 266.5t74 178.5t126.5 100.5t182 31.5q56 0 131 -12t127 -25v-171q-66 14 -124 23t-148 9q-52 0 -88 -21t-58 -72.5t-33 -138t-11 -216.5q0 -133 13 -211.5t38 -120t59.5 -55t79.5 -13.5q96 0 158 11t114 23v-172q-49 -15 -106.5 -24.5t-114.5 -14.5 l-8 -47q105 -12 149.5 -56t44.5 -136q0 -110 -68.5 -160.5t-182.5 -50.5q-42 0 -76 5t-71 12v145q32 -7 65 -10.5t61 -3.5q49 0 72.5 14.5t23.5 56.5q0 34 -37.5 53t-152.5 19l28 169q-71 9 -125.5 43.5t-91 104.5t-55.5 183.5t-19 282.5z" />
<glyph unicode="&#xe8;" horiz-adv-x="1093" d="M152 582q0 324 107 463t318 139q202 0 289.5 -131t87.5 -365v-174h-605q3 -116 17 -187t40 -109t62 -52t80 -14q96 0 178.5 12t136.5 26v-168q-30 -8 -66.5 -15t-76.5 -13t-77.5 -8.5t-70.5 -2.5q-100 0 -179 20.5t-133 84.5t-81 182.5t-27 311.5zM248 1669h254l243 -315 h-189zM352 673h408v61q0 134 -42 209t-146 75q-56 0 -95 -16.5t-66.5 -55.5t-41 -105.5t-17.5 -167.5z" />
<glyph unicode="&#xe9;" horiz-adv-x="1093" d="M152 582q0 324 107 463t318 139q202 0 289.5 -131t87.5 -365v-174h-605q3 -116 17 -187t40 -109t62 -52t80 -14q96 0 178.5 12t136.5 26v-168q-30 -8 -66.5 -15t-76.5 -13t-77.5 -8.5t-70.5 -2.5q-100 0 -179 20.5t-133 84.5t-81 182.5t-27 311.5zM352 673h408v61 q0 134 -42 209t-146 75q-56 0 -95 -16.5t-66.5 -55.5t-41 -105.5t-17.5 -167.5zM425 1354l243 315h254l-308 -315h-189z" />
<glyph unicode="&#xea;" horiz-adv-x="1093" d="M152 582q0 324 107 463t318 139q202 0 289.5 -131t87.5 -365v-174h-605q3 -116 17 -187t40 -109t62 -52t80 -14q96 0 178.5 12t136.5 26v-168q-30 -8 -66.5 -15t-76.5 -13t-77.5 -8.5t-70.5 -2.5q-100 0 -179 20.5t-133 84.5t-81 182.5t-27 311.5zM211 1354l263 315h204 l265 -315h-225l-141 196l-139 -196h-227zM352 673h408v61q0 134 -42 209t-146 75q-56 0 -95 -16.5t-66.5 -55.5t-41 -105.5t-17.5 -167.5z" />
<glyph unicode="&#xeb;" horiz-adv-x="1093" d="M152 582q0 324 107 463t318 139q202 0 289.5 -131t87.5 -365v-174h-605q3 -116 17 -187t40 -109t62 -52t80 -14q96 0 178.5 12t136.5 26v-168q-30 -8 -66.5 -15t-76.5 -13t-77.5 -8.5t-70.5 -2.5q-100 0 -179 20.5t-133 84.5t-81 182.5t-27 311.5zM251 1388v188h197v-188 h-197zM352 673h408v61q0 134 -42 209t-146 75q-56 0 -95 -16.5t-66.5 -55.5t-41 -105.5t-17.5 -167.5zM718 1388v188h196v-188h-196z" />
<glyph unicode="&#xec;" horiz-adv-x="572" d="M-56 1669h243l256 -315h-190zM187 0v1168h199v-1168h-199z" />
<glyph unicode="&#xed;" horiz-adv-x="572" d="M127 1354l244 315h255l-309 -315h-190zM187 0v1168h199v-1168h-199z" />
<glyph unicode="&#xee;" horiz-adv-x="572" d="M-79 1354l261 315h207l263 -315h-227l-139 196l-141 -196h-224zM187 0v1168h199v-1168h-199z" />
<glyph unicode="&#xef;" horiz-adv-x="572" d="M-47 1388v188h199v-188h-199zM187 0v1168h199v-1168h-199zM420 1388v188h199v-188h-199z" />
<glyph unicode="&#xf0;" horiz-adv-x="1173" d="M162 514q0 124 14 230.5t54 181.5t114 116.5t197 41.5q87 0 150.5 -23.5t105.5 -50.5q-5 96 -16.5 166t-31 120t-48 84t-67.5 53l-76 -136h-192l103 178q-44 5 -94.5 6t-109.5 6v164q82 -5 155.5 -8.5t137.5 -15.5l71 123h192l-99 -167q66 -30 119 -79.5t88 -129 t53.5 -193.5t18.5 -271q0 -291 -21 -471.5t-70.5 -282.5t-131.5 -137.5t-203 -35.5q-89 0 -163.5 27t-130 89.5t-87.5 163.5t-32 251zM361 492q0 -164 45.5 -252t180.5 -88q51 0 92 23.5t67 97.5t41 211.5t15 366.5q-24 12 -89.5 37.5t-154.5 25.5q-64 0 -102 -29t-59 -83 t-28.5 -133t-7.5 -177z" />
<glyph unicode="&#xf1;" horiz-adv-x="1182" d="M187 0v1168h162l17 -106q115 122 288 122q199 0 275.5 -100.5t76.5 -314.5v-769h-197v794q0 111 -37.5 166t-152.5 55q-49 0 -92 -18.5t-75 -48t-49 -65t-17 -67.5v-816h-199zM312 1386v172q54 42 104.5 59t97.5 17q42 0 75 -15t64.5 -30.5t61.5 -30.5t64 -15 q63 0 103 21t84 63v-170q-44 -45 -92 -61.5t-107 -16.5q-45 0 -78 15t-62 30.5t-60.5 30.5t-67.5 15q-61 0 -105.5 -24.5t-81.5 -59.5z" />
<glyph unicode="&#xf2;" horiz-adv-x="1189" d="M152 607q0 298 107 437.5t336 139.5q232 0 338 -139.5t106 -437.5q0 -185 -28 -305t-84.5 -191t-140 -99.5t-191.5 -28.5t-192 28.5t-139 99.5t-83.5 191t-28.5 305zM283 1669h252l244 -315h-189zM354 572q0 -228 55 -326t186 -98t185.5 98t54.5 326q0 125 -10.5 210.5 t-39 138t-75 76t-115.5 23.5q-71 0 -117 -23.5t-74 -76t-39 -137.5t-11 -211z" />
<glyph unicode="&#xf3;" horiz-adv-x="1189" d="M152 607q0 298 107 437.5t336 139.5q232 0 338 -139.5t106 -437.5q0 -185 -28 -305t-84.5 -191t-140 -99.5t-191.5 -28.5t-192 28.5t-139 99.5t-83.5 191t-28.5 305zM354 572q0 -228 55 -326t186 -98t185.5 98t54.5 326q0 125 -10.5 210.5t-39 138t-75 76t-115.5 23.5 q-71 0 -117 -23.5t-74 -76t-39 -137.5t-11 -211zM438 1354l240 315h256l-308 -315h-188z" />
<glyph unicode="&#xf4;" horiz-adv-x="1189" d="M152 607q0 298 107 437.5t336 139.5q232 0 338 -139.5t106 -437.5q0 -185 -28 -305t-84.5 -191t-140 -99.5t-191.5 -28.5t-192 28.5t-139 99.5t-83.5 191t-28.5 305zM232 1354l260 315h206l263 -315h-227l-139 196l-140 -196h-223zM354 572q0 -228 55 -326t186 -98 t185.5 98t54.5 326q0 125 -10.5 210.5t-39 138t-75 76t-115.5 23.5q-71 0 -117 -23.5t-74 -76t-39 -137.5t-11 -211z" />
<glyph unicode="&#xf5;" horiz-adv-x="1189" d="M152 607q0 298 107 437.5t336 139.5q232 0 338 -139.5t106 -437.5q0 -185 -28 -305t-84.5 -191t-140 -99.5t-191.5 -28.5t-192 28.5t-139 99.5t-83.5 191t-28.5 305zM280 1386v172q51 42 102.5 59t98.5 17q40 0 74.5 -15t65.5 -30.5t61.5 -30.5t65.5 -15q61 0 100 21 t86 63v-170q-47 -45 -93.5 -61.5t-108.5 -16.5q-44 0 -76 15t-61.5 30.5t-60 30.5t-67.5 15q-61 0 -105.5 -24.5t-81.5 -59.5zM354 572q0 -228 55 -326t186 -98t185.5 98t54.5 326q0 125 -10.5 210.5t-39 138t-75 76t-115.5 23.5q-71 0 -117 -23.5t-74 -76t-39 -137.5 t-11 -211z" />
<glyph unicode="&#xf6;" horiz-adv-x="1189" d="M152 607q0 298 107 437.5t336 139.5q232 0 338 -139.5t106 -437.5q0 -185 -28 -305t-84.5 -191t-140 -99.5t-191.5 -28.5t-192 28.5t-139 99.5t-83.5 191t-28.5 305zM263 1388v188h199v-188h-199zM354 572q0 -228 55 -326t186 -98t185.5 98t54.5 326q0 125 -10.5 210.5 t-39 138t-75 76t-115.5 23.5q-71 0 -117 -23.5t-74 -76t-39 -137.5t-11 -211zM730 1388v188h199v-188h-199z" />
<glyph unicode="&#xf7;" horiz-adv-x="1282" d="M199 642v174h887v-174h-887zM526 152v234h234v-234h-234zM526 1074v234h234v-234h-234z" />
<glyph unicode="&#xf8;" horiz-adv-x="1189" d="M152 607q0 298 107 437.5t336 139.5q28 0 55.5 -2t52.5 -7l66 201h183l-89 -267q89 -64 132.5 -187t43.5 -315q0 -185 -28 -305t-84.5 -191t-140 -99.5t-191.5 -28.5q-54 0 -105 7l-65 -199h-181l85 261q-89 61 -133 192.5t-44 362.5zM354 572q0 -206 44 -309l251 752 q-12 3 -25.5 4t-28.5 1q-71 0 -117 -23.5t-74 -76t-39 -138t-11 -210.5zM544 150q12 -2 25 -2h26q131 0 185.5 98t54.5 326q0 226 -41 333z" />
<glyph unicode="&#xf9;" horiz-adv-x="1144" d="M174 406v762h199v-785q0 -57 6.5 -99.5t24.5 -72t50.5 -44.5t86.5 -15q49 0 88 19t68.5 47t46 61t18.5 65v824h197v-1168h-162l-18 96q-49 -56 -114 -84.5t-154 -28.5q-96 0 -160.5 26t-104.5 78.5t-56 131.5t-16 187zM256 1669h253l243 -315h-189z" />
<glyph unicode="&#xfa;" horiz-adv-x="1144" d="M174 406v762h199v-785q0 -57 6.5 -99.5t24.5 -72t50.5 -44.5t86.5 -15q49 0 88 19t68.5 47t46 61t18.5 65v824h197v-1168h-162l-18 96q-49 -56 -114 -84.5t-154 -28.5q-96 0 -160.5 26t-104.5 78.5t-56 131.5t-16 187zM430 1354l243 315h253l-307 -315h-189z" />
<glyph unicode="&#xfb;" horiz-adv-x="1144" d="M174 406v762h199v-785q0 -57 6.5 -99.5t24.5 -72t50.5 -44.5t86.5 -15q49 0 88 19t68.5 47t46 61t18.5 65v824h197v-1168h-162l-18 96q-49 -56 -114 -84.5t-154 -28.5q-96 0 -160.5 26t-104.5 78.5t-56 131.5t-16 187zM209 1354l260 315h207l262 -315h-225l-141 196 l-140 -196h-223z" />
<glyph unicode="&#xfc;" horiz-adv-x="1144" d="M174 406v762h199v-785q0 -57 6.5 -99.5t24.5 -72t50.5 -44.5t86.5 -15q49 0 88 19t68.5 47t46 61t18.5 65v824h197v-1168h-162l-18 96q-49 -56 -114 -84.5t-154 -28.5q-96 0 -160.5 26t-104.5 78.5t-56 131.5t-16 187zM239 1388v188h199v-188h-199zM706 1388v188h199 v-188h-199z" />
<glyph unicode="&#xfd;" horiz-adv-x="1081" d="M82 1168h216l270 -964l229 964h204l-340 -1271q-19 -69 -40 -124.5t-53.5 -96t-78.5 -62.5t-118 -22q-37 0 -75 5t-57 7v173q24 -5 54.5 -8t65.5 -3q66 0 93 107l38 127h-47zM450 1354l244 315h255l-311 -315h-188z" />
<glyph unicode="&#xfe;" horiz-adv-x="1164" d="M187 -398v2032h199v-553q52 49 115.5 76t142.5 27q204 0 286.5 -132.5t82.5 -392.5q0 -192 -26 -321t-83.5 -209t-152.5 -113t-235 -33q-42 0 -72.5 2.5t-57.5 7.5v-391h-199zM386 162q28 -5 64.5 -7.5t88.5 -2.5q84 0 136 29.5t82.5 89.5t42 151.5t11.5 211.5 q0 110 -11.5 184t-34.5 118t-62 61.5t-96 17.5q-49 0 -90 -18.5t-70 -48t-45 -65t-16 -67.5v-654z" />
<glyph unicode="&#xff;" horiz-adv-x="1081" d="M82 1168h216l270 -964l229 964h204l-340 -1271q-19 -69 -40 -124.5t-53.5 -96t-78.5 -62.5t-118 -22q-37 0 -75 5t-57 7v173q24 -5 54.5 -8t65.5 -3q66 0 93 107l38 127h-47zM209 1388v188h199v-188h-199zM676 1388v188h199v-188h-199z" />
<glyph unicode="&#x131;" horiz-adv-x="572" d="M187 0v1168h199v-1168h-199z" />
<glyph unicode="&#x141;" horiz-adv-x="980" d="M59 701v186l140 69v678h202v-582l287 137v-186l-287 -138v-689h521v-176h-723v769z" />
<glyph unicode="&#x142;" horiz-adv-x="652" d="M82 701v181l127 84v668h199v-538l140 93v-186l-140 -93v-638q0 -61 16 -85.5t63 -24.5q19 0 35.5 5t25.5 7v-162q-24 -5 -58.5 -12t-81.5 -7q-35 0 -70.5 12t-63.5 43t-46.5 82.5t-18.5 129.5v521z" />
<glyph unicode="&#x152;" horiz-adv-x="1788" d="M152 835q0 207 22.5 359t77.5 254t148.5 152.5t237.5 50.5q35 0 65.5 -6t60.5 -11h885v-169h-641q54 -91 75 -223.5t26 -312.5h481v-169h-479q-5 -202 -28 -348.5t-80 -242.5h646v-169h-885q-30 -5 -60.5 -11t-65.5 -6q-145 0 -238 53t-148 158.5t-77.5 266.5t-22.5 374z M359 823q0 -189 15 -317t48 -205.5t85.5 -111.5t130.5 -34q80 0 132.5 34t83 111.5t43.5 205.5t13 317q0 192 -13 318.5t-43.5 201.5t-83 106t-132.5 31q-79 0 -131 -31t-85 -106t-48 -201.5t-15 -318.5z" />
<glyph unicode="&#x153;" horiz-adv-x="1776" d="M152 607q0 298 107 437.5t336 139.5q234 0 341 -157q98 157 325 157q202 0 289 -131t87 -365v-174h-603q3 -116 18 -187t40.5 -109t61 -52t80.5 -14q96 0 178 15t134 27v-172q-30 -8 -67 -15t-76 -12t-77 -8.5t-70 -3.5q-112 0 -195 28.5t-135 108.5q-54 -73 -137 -105 t-194 -32q-108 0 -192 28.5t-139 99.5t-83.5 191t-28.5 305zM354 572q0 -228 55 -326t186 -98t185.5 98t54.5 326q0 125 -10.5 210.5t-39 138t-75 76t-115.5 23.5q-71 0 -117 -23.5t-74 -76t-39 -137.5t-11 -211zM1037 673h405v61q0 134 -41 209t-145 75q-56 0 -95.5 -16.5 t-65.5 -56.5t-39.5 -106.5t-18.5 -165.5z" />
<glyph unicode="&#x160;" horiz-adv-x="1011" d="M136 1199q0 125 34 211t94 140t145 77.5t186 23.5q59 0 127.5 -10.5t119.5 -25.5v-170q-58 14 -133 24.5t-137 10.5q-44 0 -85.5 -14t-72.5 -44.5t-50.5 -78.5t-19.5 -117q0 -70 7.5 -117t27 -77.5t54 -49t90.5 -28.5q84 -17 151.5 -48t115.5 -86.5t73.5 -141.5 t25.5 -214q0 -145 -33 -238t-93 -147.5t-146.5 -75t-189.5 -20.5q-56 0 -133.5 9.5t-136.5 26.5v171q54 -15 126.5 -25t166.5 -10q122 0 176 70t54 218q0 84 -10.5 139.5t-35 91.5t-60 56t-82.5 30q-96 19 -165 52.5t-111 85t-61 125t-19 176.5zM185 1974h225l141 -158 l139 158h224l-260 -271h-206z" />
<glyph unicode="&#x161;" horiz-adv-x="938" d="M127 1667h227l140 -197l140 197h226l-262 -316h-204zM140 830q0 96 29.5 163t82.5 109.5t125.5 62t155.5 19.5q91 0 153 -15.5t95 -26.5v-169q-59 15 -116.5 28.5t-150.5 13.5q-54 0 -87 -15t-52 -39.5t-25 -55t-6 -63.5q0 -127 148 -152q182 -30 255.5 -115t73.5 -235 q0 -99 -27 -166.5t-78.5 -111t-124.5 -61.5t-161 -18q-101 0 -170.5 13.5t-109.5 25.5v170q44 -10 129 -23.5t166 -13.5q91 0 130 55t39 116q0 87 -30.5 126.5t-116.5 53.5q-180 33 -253.5 114t-73.5 210z" />
<glyph unicode="&#x178;" horiz-adv-x="1144" d="M47 1634h223l310 -678l307 678h211l-422 -874v-760h-212v760zM251 1716v186h197v-186h-197zM718 1716v186h196v-186h-196z" />
<glyph unicode="&#x17d;" horiz-adv-x="1016" d="M106 0v206l602 1257h-548v171h752v-206l-600 -1256h577v-172h-783zM167 1974h229l139 -158l141 158h224l-264 -271h-204z" />
<glyph unicode="&#x17e;" horiz-adv-x="940" d="M106 0v187l506 808h-460v173h671v-209l-504 -787h483v-172h-696zM140 1667h226l140 -197l141 197h223l-260 -316h-207z" />
<glyph unicode="&#x192;" horiz-adv-x="722" d="M-71 -232q35 -4 89.5 -6.5t82.5 -2.5q120 0 120 128v1110h-153v171h153v181q0 152 82.5 227t214.5 75q76 0 130.5 -10.5t88.5 -18.5v-165q-37 9 -81 17t-108 8q-63 0 -95.5 -33t-32.5 -82v-199h283v-171h-283v-1098q0 -133 -72.5 -220t-216.5 -87q-57 0 -106 2.5t-96 7.5 v166z" />
<glyph unicode="&#x2c6;" horiz-adv-x="894" d="M82 1354l262 315h204l266 -315h-230l-139 196l-140 -196h-223z" />
<glyph unicode="&#x2c7;" horiz-adv-x="894" d="M82 1667h225l141 -197l139 197h227l-263 -316h-204z" />
<glyph unicode="&#x2c9;" horiz-adv-x="758" d="M82 1414v162h594v-162h-594z" />
<glyph unicode="&#x2d8;" horiz-adv-x="825" d="M82 1669h190q5 -63 34 -112t107 -49q75 0 105 48t38 113h189q-7 -49 -25.5 -102t-56 -97t-98.5 -73.5t-152 -29.5q-94 0 -154 29.5t-97 73.5t-55 97t-25 102z" />
<glyph unicode="&#x2d9;" horiz-adv-x="382" d="M82 1435v199h198v-199h-198z" />
<glyph unicode="&#x2da;" horiz-adv-x="606" d="M82 1506q0 103 58.5 171t161.5 68q106 0 165 -66.5t59 -172.5q0 -103 -60 -170.5t-164 -67.5q-103 0 -161.5 68.5t-58.5 169.5zM214 1508q0 -39 18.5 -77t69.5 -38q57 0 73 35.5t16 79.5q0 45 -18.5 79.5t-70.5 34.5q-51 0 -69.5 -36t-18.5 -78z" />
<glyph unicode="&#x2db;" horiz-adv-x="741" d="M152 -164q0 86 41 170.5t84 133.5h163q-21 -34 -41.5 -76t-33.5 -82.5t-20.5 -77.5t-7.5 -66q0 -61 24.5 -79.5t78.5 -18.5q28 0 74 4.5t79 9.5v-152q-35 -8 -84 -15t-91 -7q-74 0 -125.5 13t-82 42.5t-44.5 79t-14 121.5z" />
<glyph unicode="&#x2dc;" horiz-adv-x="814" d="M82 1386v172q54 42 104 59t97 17q42 0 75 -15t65 -30.5t61.5 -30.5t63.5 -15q62 0 102 21t84 63v-170q-44 -45 -91.5 -61.5t-107.5 -16.5q-44 0 -77 15t-62.5 30.5t-60 30.5t-67.5 15q-62 0 -106 -24.5t-80 -59.5z" />
<glyph unicode="&#x2dd;" horiz-adv-x="1081" d="M82 1396l240 344h280l-344 -344h-176zM479 1396l241 344h281l-345 -344h-177z" />
<glyph unicode="&#x3a9;" horiz-adv-x="1280" d="M152 835q0 207 22.5 359t77.5 254t148.5 152.5t237.5 50.5q146 0 240.5 -50.5t150 -152.5t77.5 -254t22 -359q0 -258 -32 -418.5t-116 -249.5h141v-167h-382v174q49 19 84 66.5t56 125t30.5 190t9.5 267.5q0 192 -13.5 318.5t-46.5 201.5t-87 106t-134 31q-79 0 -131 -31 t-85 -106t-48 -201.5t-15 -318.5q0 -157 9.5 -271t30.5 -191.5t57 -123t88 -65.5v-172h-382v167h136q-84 89 -115 249.5t-31 418.5z" />
<glyph unicode="&#x3bc;" horiz-adv-x="1156" d="M187 -398v1566h199v-819q3 -93 34.5 -145t132.5 -52q47 0 87 19t68.5 47t46 61t17.5 65v824h199v-1168h-162l-18 96q-49 -56 -114 -84.5t-154 -28.5q-75 0 -137 27v-408h-199z" />
<glyph unicode="&#x3c0;" horiz-adv-x="1292" d="M106 997v171h1083v-171h-211v-725q0 -61 16 -85.5t61 -24.5q19 0 36.5 5t26.5 7v-162q-24 -5 -58.5 -11t-81.5 -6q-35 0 -70.5 12t-63.5 42t-46.5 81.5t-18.5 129.5v737h-289v-997h-200v997h-184z" />
<glyph unicode="&#xe01;" horiz-adv-x="1267" d="M110 1076v89q45 30 106 63t131.5 60t143 45t138.5 18q228 0 345 -108t117 -307v-936h-189v936q0 120 -60.5 186.5t-212.5 66.5q-106 0 -187 -29.5t-142 -66.5v-7l54 -42v-1044h-190v1030z" />
<glyph unicode="&#xe02;" horiz-adv-x="1100" d="M110 376v204q0 81 38.5 151.5t83.5 130.5t83.5 109t38.5 91q0 68 -22 95t-86 27h-136v160h136q145 0 216 -66t71 -216q0 -68 -35.5 -127.5t-80 -115t-80 -110.5t-35.5 -114v-219q0 -128 50.5 -179.5t182.5 -51.5q57 0 105 5t92 10v1172h192v-1325q-61 -9 -179.5 -16.5 t-254.5 -7.5q-76 0 -145.5 23.5t-121 71t-82.5 121t-31 177.5z" />
<glyph unicode="&#xe03;" horiz-adv-x="1168" d="M110 1226q0 17 2.5 52t7.5 54h187q-9 -49 -9 -68q0 -45 25.5 -58.5t42.5 -13.5q37 0 65.5 27t55.5 113h142v-209q0 -93 -40.5 -167t-90.5 -142.5t-91 -135t-41 -145.5v-157q2 -128 52.5 -179.5t183.5 -51.5q57 0 105 5t95 10v1172h190v-1325q-63 -9 -180.5 -16.5 t-253.5 -7.5q-79 0 -147.5 23.5t-120 71t-83 121t-31.5 177.5v157q0 84 46 162.5t101 152.5t102 141.5t47 128.5q-42 -46 -91.5 -56t-85.5 -10q-71 0 -128 44t-57 130z" />
<glyph unicode="&#xe04;" horiz-adv-x="1272" d="M162 0v931q0 89 32 166.5t93.5 136t150 93.5t198.5 35q113 0 200.5 -35t147.5 -93.5t92.5 -137t32.5 -167.5v-929h-195v931q0 118 -71 191.5t-207 73.5q-133 0 -206.5 -73.5t-73.5 -191.5v-275q30 42 85.5 75t126.5 33q42 0 69 -3.5t46 -8.5v-180q-28 8 -63.5 10t-66.5 2 q-51 0 -88.5 -22.5t-61 -60t-35.5 -84t-12 -95.5v-322h-194z" />
<glyph unicode="&#xe05;" horiz-adv-x="1287" d="M162 0v956q0 71 21 136.5t63 118.5t103 89.5t145 50.5l148 -122l152 120q160 -30 246 -140.5t86 -252.5v-956h-195v956q0 96 -33 141t-82 68l-162 -126h-30l-155 121q-49 -21 -81 -66t-32 -138v-300q30 42 85.5 75t126.5 33q42 0 69 -3.5t46 -8.5v-180q-28 8 -63.5 10 t-66.5 2q-51 0 -88.5 -22.5t-61 -60t-35.5 -84t-12 -95.5v-322h-194z" />
<glyph unicode="&#xe06;" horiz-adv-x="1243" d="M103 1226q0 17 3.5 52t8.5 54h187q-7 -28 -9.5 -44.5t-2.5 -23.5q0 -45 26 -58.5t43 -13.5q37 0 59 27t49 113h152v-214q0 -93 -42 -165.5t-90.5 -138.5t-90.5 -134t-42 -147v-118q2 -42 24.5 -88.5t60 -87t88 -67.5t115.5 -27q125 0 180 56.5t55 206.5v922h190v-922 q0 -223 -103.5 -324t-280.5 -101q-106 0 -203 44t-143 130l-15 -157h-158v533q0 89 47 167.5t103.5 151t103 139t46.5 127.5q-42 -46 -91 -56t-85 -10q-71 0 -128 44t-57 130z" />
<glyph unicode="&#xe07;" horiz-adv-x="1112" d="M47 1109h213l345 -964h47q37 0 58.5 38t21.5 94v898h-162v155h366v-1053q0 -59 -15.5 -109t-44 -88t-65.5 -59t-79 -21h-270z" />
<glyph unicode="&#xe08;" horiz-adv-x="1154" d="M164 1128v167q76 24 178.5 39t198.5 15q256 0 368.5 -125.5t112.5 -400.5q0 -145 -40.5 -291t-89.5 -264q-57 -138 -128 -268h-253l-171 614h-138v155h265l175 -633q52 105 92 223q35 101 64.5 221.5t29.5 242.5q0 204 -69 281.5t-220 77.5q-57 0 -103.5 -3.5t-90 -9.5 t-86.5 -16.5t-95 -24.5z" />
<glyph unicode="&#xe09;" horiz-adv-x="1186" d="M89 612v157h265v-383q0 -51 7 -95.5t30.5 -76.5t69 -50.5t121.5 -18.5q61 0 106.5 27t77 67.5t47 87t20.5 88.5v546q0 120 -71.5 173t-217.5 53q-111 0 -197.5 -13.5t-186.5 -43.5v165q73 24 179 39t202 15q131 0 221.5 -28.5t148 -80t84.5 -123t27 -156.5v-961h-157 l-12 157q-98 -174 -300 -174q-117 0 -192 29.5t-118.5 82.5t-61 128t-17.5 163v226h-75z" />
<glyph unicode="&#xe0a;" horiz-adv-x="1173" d="M145 1184v160h150q123 0 180.5 -53t57.5 -170q0 -59 -26 -113t-57.5 -108t-57.5 -110t-26 -114v-491q82 -42 229 -42q127 0 183.5 54t56.5 179v320q0 94 -12 151.5t-34 90.5t-52.5 43.5t-68.5 10.5h-61v114l184 315h222l-225 -319q47 -5 90.5 -23.5t75 -64.5t51.5 -122 t20 -194v-322q0 -197 -115.5 -295t-319.5 -98q-135 0 -242 29.5t-172 73.5v578q0 81 28 147t61 119t61 93.5t28 72.5q0 49 -16 68.5t-80 19.5h-113z" />
<glyph unicode="&#xe0b;" horiz-adv-x="1173" d="M64 1226q0 17 2 52t7 54h187q-9 -49 -9 -68q0 -45 19.5 -58.5t36.5 -13.5q37 0 59.5 27t48.5 113h136v-256q0 -61 -28.5 -127.5t-64.5 -136.5t-64 -140t-28 -139v-348q82 -42 229 -42q127 0 183.5 54t56.5 179v320q0 94 -12 151.5t-34 90.5t-52.5 43.5t-68.5 10.5h-61 v114l184 315h222l-225 -319q47 -5 90.5 -23.5t75 -64.5t51.5 -122t20 -194v-322q0 -197 -115.5 -295t-319.5 -98q-135 0 -242 29.5t-172 73.5v447q0 75 32.5 151t69 147t68.5 137t32 128q-37 -28 -69 -36t-68 -8q-71 0 -124 44t-53 130z" />
<glyph unicode="&#xe0c;" horiz-adv-x="1888" d="M110 1076v89q38 30 92 62t119 60t138.5 46t147.5 18q216 0 326.5 -108t110.5 -307v-521q2 -42 22 -88.5t56 -87t85 -67.5t113 -27q118 0 161 67.5t43 173.5v944h186v-922q0 -204 -80 -314.5t-281 -110.5q-103 0 -189 44t-133 130l-17 -157h-152v936q0 120 -55 186.5 t-196 66.5q-105 0 -181.5 -30.5t-125.5 -65.5v-7l54 -42v-786q0 -56 16 -79.5t57 -23.5q19 0 35.5 3.5t27.5 5.5v-152q-24 -7 -58 -13t-78 -6q-32 0 -65 10.5t-61.5 40t-46 79t-17.5 125.5v782z" />
<glyph unicode="&#xe0d;" horiz-adv-x="1874" d="M110 1076v89q38 30 92 62t119 60t138.5 46t147.5 18q216 0 326.5 -108t110.5 -307v-542q0 -69 10 -115.5t35 -75.5t67.5 -41t107.5 -12q110 0 177 72.5t76 175.5v932h186v-1215q0 -96 -18 -179.5t-65 -145.5t-125.5 -98t-199.5 -36q-52 0 -109.5 4.5t-108 12.5t-89.5 14 t-57 8v157q22 -4 62.5 -10t90 -11t103.5 -9t103 -4q89 0 138 32t71.5 80t27 104.5t4.5 105.5q-47 -86 -129 -118t-166 -32q-108 0 -182 25t-118 75t-62 125t-18 179v542q0 120 -54 186.5t-195 66.5q-105 0 -181.5 -30.5t-125.5 -65.5v-7l54 -42v-786q0 -56 16 -79.5 t57 -23.5q19 0 35.5 3.5t27.5 5.5v-152q-24 -7 -58 -13t-78 -6q-32 0 -65 10.5t-61.5 40t-46 79t-17.5 125.5v782z" />
<glyph unicode="&#xe0e;" horiz-adv-x="1245" d="M59 12v152q7 -2 23 -5.5t36 -3.5q39 0 56.5 13.5t17.5 67.5v765l-79 68v89q39 30 98 64t130.5 62.5t147.5 47.5t147 19q234 0 357 -108t123 -314v-1013q0 -94 -23.5 -160t-66.5 -106.5t-104.5 -58.5t-135.5 -18q-61 0 -131.5 14.5t-124.5 14.5q-34 0 -65 -5t-55 -10 l-54 -14v159q28 8 54 15q24 5 55.5 9.5t64.5 4.5q50 0 116.5 -14.5t125.5 -14.5q86 0 120 46t34 138v1013q0 125 -66 192.5t-224 67.5q-115 0 -193.5 -34t-140.5 -76l78 -66v-785q0 -71 -14 -116.5t-41 -71.5t-64.5 -36.5t-80.5 -10.5q-42 0 -69 6t-52 13z" />
<glyph unicode="&#xe0f;" horiz-adv-x="1245" d="M59 12v152q7 -2 23 -5.5t36 -3.5q39 0 56.5 13.5t17.5 67.5v765l-79 68v89q39 30 98 64t130.5 62.5t147.5 47.5t147 19q234 0 357 -108t123 -314v-1044q0 -165 -77.5 -238.5t-215.5 -73.5l-189 96l-160 -96q-17 0 -42.5 1t-52.5 3.5t-52 5t-39 4.5v169q24 -7 74.5 -15.5 t101.5 -8.5l158 86h27l162 -86q49 0 82 27t33 126v1044q0 125 -66 192.5t-224 67.5q-115 0 -193.5 -33t-140.5 -70v-7l78 -66v-785q0 -71 -14 -116.5t-41 -71.5t-64.5 -36.5t-80.5 -10.5q-42 0 -69 6t-52 13z" />
<glyph unicode="&#xe10;" horiz-adv-x="1154" d="M164 1128v167q76 24 184.5 39t204.5 15q71 0 131.5 -9.5t109.5 -29.5l334 22v-164l-176 7q70 -120 70 -352q0 -145 -40.5 -291t-89.5 -264q-57 -138 -128 -268h-253l-171 614h-138v155h265l175 -633q52 105 92 223q35 101 64.5 221.5t29.5 242.5q0 103 -14.5 172 t-48 110.5t-86.5 59t-128 17.5q-57 0 -106 -3.5t-94.5 -9.5t-90 -16.5t-96.5 -24.5zM185 -244q24 -7 78 -15.5t103 -8.5l175 86h29l167 -86q61 0 81 18t20 63v54h184v-66q0 -125 -77 -176.5t-211 -51.5l-178 96l-183 -96q-17 0 -42.5 1t-54 3.5t-53 5t-38.5 4.5v169z" />
<glyph unicode="&#xe11;" horiz-adv-x="1341" d="M12 1238q0 20 2.5 54.5t7.5 53.5h187q-5 -27 -7.5 -45t-2.5 -23q0 -44 26 -57.5t40 -13.5q37 0 66.5 27t57.5 112h134l-73 -340q17 42 53 100.5t88.5 111.5t122.5 90.5t154 37.5q93 0 154.5 -28t98.5 -82t52.5 -134t15.5 -180v-922h-188v946q0 105 -30 174t-131 69 q-52 0 -101 -30.5t-91.5 -79.5t-77.5 -109t-60.5 -118t-40 -106t-17.5 -73v-673h-187v788q0 45 12.5 103t27.5 106q18 60 42 121q-42 -34 -77.5 -42.5t-72.5 -8.5q-71 0 -128 44.5t-57 126.5z" />
<glyph unicode="&#xe12;" horiz-adv-x="1933" d="M115 654q0 131 21 246t66.5 207t117 155t170.5 89l195 -129l225 129q32 0 64 -4.5t58 -9.5q30 -7 59 -12l-3 -910q3 -42 21.5 -88.5t51.5 -87t81 -67.5t109 -27q66 0 109.5 18.5t66.5 50.5t32 76.5t9 95.5v944h186v-922q0 -101 -16.5 -180.5t-60 -133.5t-116 -82.5 t-180.5 -28.5q-103 0 -183 44t-126 130l-17 -157h-153v1163l-196 -124h-33l-194 131q-84 -66 -128 -184t-44 -334q0 -153 16.5 -251.5t47 -154.5t72 -78.5t92.5 -22.5q57 0 94 6t61 13v-152q-19 -7 -73 -18t-115 -11q-177 0 -282 158.5t-105 512.5z" />
<glyph unicode="&#xe13;" horiz-adv-x="1888" d="M110 1076v87q47 35 104.5 69t122 61t133.5 42.5t137 15.5q228 0 332.5 -108t104.5 -307v-550q0 -51 10 -95.5t36 -76.5t70.5 -50.5t110.5 -18.5q54 0 99.5 27t78.5 67.5t53 87t22 88.5v915h186v-1330h-152l-17 157q-47 -86 -130.5 -130t-169.5 -44q-108 0 -182 28.5 t-117.5 82.5t-63.5 133.5t-20 180.5v528q0 59 -11.5 107t-39.5 80.5t-76 49t-124 16.5q-93 0 -173 -27t-136 -69v-7l56 -44v-784q0 -56 14.5 -79.5t56.5 -23.5q19 0 35 3.5t27 5.5v-152q-24 -7 -57.5 -13t-77.5 -6q-33 0 -66 10.5t-60 40t-44.5 79t-17.5 125.5v782z" />
<glyph unicode="&#xe14;" horiz-adv-x="1215" d="M115 617q0 206 37.5 345.5t107 225t171.5 122t230 36.5q118 0 220 -9.5t165 -16.5v-1320h-186v1177q-14 3 -41.5 4t-59.5 2t-65 2.5t-58 1.5q-79 0 -140.5 -30.5t-102.5 -99.5t-63.5 -177t-22.5 -266q0 -234 49.5 -351.5t157.5 -117.5q56 0 92 6t62 13v-152 q-21 -7 -75 -18t-114 -11q-180 0 -272 168t-92 466z" />
<glyph unicode="&#xe15;" horiz-adv-x="1264" d="M115 654q0 131 21 246t66.5 207t117 155t170.5 89l195 -129l232 129q32 0 64 -4.5t58 -9.5q30 -7 59 -12v-1325h-188v1163l-204 -124h-33l-194 131q-84 -66 -128 -184t-44 -334q0 -153 16.5 -251.5t47 -154.5t72 -78.5t92.5 -22.5q57 0 94 6t61 13v-152q-19 -7 -73 -18 t-115 -11q-177 0 -282 158.5t-105 512.5z" />
<glyph unicode="&#xe16;" horiz-adv-x="1267" d="M110 1076v87q47 35 108.5 69t129 61t140 42.5t141.5 15.5q228 0 345 -108t117 -307v-936h-189v936q0 120 -60.5 186.5t-212.5 66.5q-94 0 -184.5 -27t-146.5 -69v-7l56 -44v-784q0 -56 14.5 -79.5t56.5 -23.5q19 0 35 3.5t27 5.5v-152q-24 -7 -57.5 -13t-77.5 -6 q-33 0 -66 10.5t-60 40t-44.5 79t-17.5 125.5v782z" />
<glyph unicode="&#xe17;" horiz-adv-x="1243" d="M164 0v1318h158l15 -158q47 69 130.5 120.5t212.5 51.5q190 0 288.5 -102t98.5 -311v-919h-190v922q0 120 -48 186.5t-177 66.5q-62 0 -115 -23.5t-92 -61.5t-64 -86t-27 -99v-905h-190z" />
<glyph unicode="&#xe18;" horiz-adv-x="1081" d="M120 1006q0 115 47 181t118 100.5t156 44.5t164 10q89 0 168.5 -13.5t113.5 -24.5v-162q-57 12 -133 26t-167 14q-120 0 -196.5 -35.5t-76.5 -128.5q0 -57 29.5 -86.5t71.5 -45.5t90 -22t85 -11q104 -14 176 -45.5t116 -83t65 -126.5t21 -180q0 -435 -417 -435 q-54 0 -112.5 8.5t-112.5 22.5t-100 29.5t-78 32.5v496l178 -2v-385q22 -12 53 -20t64 -12.5t62.5 -7t50.5 -2.5q122 0 169 68.5t47 194.5q0 133 -48 195.5t-159 74.5q-86 9 -166 24t-141 48t-99.5 93.5t-38.5 164.5z" />
<glyph unicode="&#xe19;" horiz-adv-x="1243" d="M155 408v922h189v-944q0 -51 12 -95.5t41.5 -76.5t79 -50.5t125.5 -18.5q62 0 113.5 27t89 67.5t58.5 87t26 88.5v915h190v-1330h-157l-12 157q-50 -86 -141 -130t-194 -44q-118 0 -197.5 28.5t-130 82.5t-71.5 133.5t-21 180.5z" />
<glyph unicode="&#xe1a;" horiz-adv-x="1225" d="M162 391v939h190v-939q0 -117 64.5 -182.5t197.5 -65.5q134 0 196 64.5t62 183.5v939h190v-939q0 -182 -112 -295t-336 -113q-112 0 -197.5 30.5t-142 86t-84.5 129t-28 162.5z" />
<glyph unicode="&#xe1b;" horiz-adv-x="1236" d="M162 391v939h190v-939q0 -117 67.5 -182.5t199.5 -65.5q133 0 198 64.5t65 183.5v1386h190v-1386q0 -182 -115 -295t-338 -113q-113 0 -197.5 30.5t-142.5 86t-87.5 129t-29.5 162.5z" />
<glyph unicode="&#xe1c;" horiz-adv-x="1341" d="M190 0v1330h375v-155h-199v-934l239 479h137l238 -479v1089h185v-1330h-224l-261 506l-260 -506h-230z" />
<glyph unicode="&#xe1d;" horiz-adv-x="1341" d="M190 0v1330h375v-155h-199v-934l239 479h137l238 -479v1534h185v-1775h-224l-261 506l-260 -506h-230z" />
<glyph unicode="&#xe1e;" horiz-adv-x="1395" d="M133 1330h196l84 -1023l216 673h165l201 -673l86 1023h183l-134 -1330h-204l-223 722l-231 -722h-202z" />
<glyph unicode="&#xe1f;" horiz-adv-x="1395" d="M133 1330h196l84 -1023l216 673h165l201 -673l123 1443h182l-170 -1750h-204l-223 722l-231 -722h-202z" />
<glyph unicode="&#xe20;" horiz-adv-x="1292" d="M59 12v152q7 -2 23 -5.5t36 -3.5q39 0 56.5 13.5t17.5 67.5v765l-79 68v89q39 30 98 64t130.5 62.5t147.5 47.5t147 19q234 0 357 -108t123 -314v-929h-190v929q0 125 -66 192.5t-224 67.5q-115 0 -193.5 -33t-140.5 -70v-7l78 -66v-785q0 -71 -14 -116.5t-41 -71.5 t-64.5 -36.5t-80.5 -10.5q-42 0 -69 6t-52 13z" />
<glyph unicode="&#xe21;" horiz-adv-x="1243" d="M164 0v1330h190v-915q2 -42 24.5 -88.5t60 -87t88 -67.5t115.5 -27q76 0 121.5 18.5t71 50.5t34 76.5t8.5 95.5v944h190v-922q0 -101 -18.5 -180.5t-63 -133.5t-121 -82.5t-193.5 -28.5q-103 0 -195.5 44t-138.5 130l-15 -157h-158z" />
<glyph unicode="&#xe22;" horiz-adv-x="1222" d="M133 401q0 75 18 130.5t45 92.5t62 59.5t68 34.5q-66 27 -111.5 96.5t-45.5 191.5q0 98 23.5 164t68 105.5t107 55t141.5 15.5q51 0 86.5 -4.5t56.5 -11.5v-160q-20 5 -64 9.5t-84 4.5q-84 0 -112 -46.5t-28 -145.5q0 -63 16 -104.5t43 -65t59 -32.5t66 -9h94v-157h-116 q-62 0 -99.5 -15.5t-58.5 -47t-29 -75t-8 -100.5q0 -70 17.5 -117.5t48 -74.5t75 -36.5t98.5 -9.5q35 0 83 1t95 3q54 3 110 5v1173h188v-1330q-79 -5 -159 -10q-69 -4 -148.5 -5.5t-151.5 -1.5q-115 0 -201 19.5t-142.5 67.5t-83.5 127.5t-27 203.5z" />
<glyph unicode="&#xe23;" horiz-adv-x="994" d="M122 956q0 106 36 181t95 121t134 67t154 21q45 0 87.5 -4.5t79.5 -10.5t66.5 -12t46.5 -11v-163q-57 14 -133 28t-165 14q-103 0 -154.5 -62.5t-51.5 -158.5q0 -64 19.5 -102t49 -60.5t67 -32t73.5 -14.5q88 -14 155 -38.5t110.5 -68t67 -110t23.5 -164.5 q0 -185 -97 -289t-318 -104q-89 0 -169 13.5t-116 25.5v160q22 -4 56 -11t76 -11.5t85.5 -8t81.5 -3.5q59 0 98.5 19.5t63 51.5t33 71t9.5 76q0 64 -13 103.5t-36.5 61.5t-57.5 33t-76 18q-87 14 -156 39.5t-119.5 68t-77.5 106.5t-27 160z" />
<glyph unicode="&#xe24;" horiz-adv-x="1255" d="M113 1084v108q131 68 272 113.5t259 45.5q228 0 338.5 -108t110.5 -291v-1343h-188v1343q0 105 -55.5 171t-205.5 66q-84 0 -165 -19.5t-165 -60.5v-7l42 -38v-806q0 -56 15 -79.5t56 -23.5q19 0 35.5 3.5t27.5 5.5v-152q-24 -7 -58 -13t-78 -6q-32 0 -65 10.5t-60 40 t-44.5 79t-17.5 125.5v798z" />
<glyph unicode="&#xe25;" horiz-adv-x="1182" d="M98 386q0 219 119.5 317.5t372.5 98.5h226v159q0 120 -61 173t-195 53q-56 0 -101.5 -3.5t-87.5 -9.5t-83.5 -17.5t-90.5 -26.5v165q75 24 156 39t180 15q138 0 229 -26t144 -80t75 -137.5t22 -195.5v-910h-187v644h-236q-84 0 -140.5 -12.5t-89.5 -42t-46.5 -76 t-13.5 -112.5q0 -61 7.5 -108t27 -80t57.5 -50.5t99 -17.5q15 0 36.5 1.5t40.5 3.5q24 2 49 7v-162q-27 -5 -54 -7q-21 -5 -43.5 -6t-35.5 -1q-73 0 -141 16.5t-120.5 62.5t-83.5 124.5t-31 201.5z" />
<glyph unicode="&#xe26;" horiz-adv-x="1245" d="M59 12v152q7 -2 23 -5.5t36 -3.5q39 0 56.5 13.5t17.5 67.5v765l-79 68v89q39 30 98 64t130.5 62.5t147.5 47.5t147 19q234 0 357 -108t123 -314v-1323h-190v1323q0 125 -66 192.5t-224 67.5q-115 0 -193.5 -33t-140.5 -70v-7l78 -66v-785q0 -71 -14 -116.5t-41 -71.5 t-64.5 -36.5t-80.5 -10.5q-42 0 -69 6t-52 13z" />
<glyph unicode="&#xe27;" horiz-adv-x="1029" d="M98 1147v166q24 7 70 13t96 11t98 7t76 2q143 0 233.5 -46.5t143.5 -133.5t74 -209t21 -272q0 -189 -26 -323t-85.5 -218.5t-153.5 -122.5t-232 -38q-59 0 -116.5 11t-109.5 28v163q49 -12 114 -22.5t129 -10.5q164 0 224.5 121t60.5 369q0 122 -7 222t-34 170t-80 108 t-144 38q-42 0 -91 -2.5t-97 -6t-91.5 -9.5t-72.5 -15z" />
<glyph unicode="&#xe28;" horiz-adv-x="1252" d="M162 0v943q0 84 32 159t92.5 132.5t147.5 92.5t195 35q61 0 126.5 -15t102.5 -29l319 14v-164l-152 7q47 -49 65.5 -110.5t18.5 -118.5v-946h-195v943q0 115 -76 184t-209 69q-136 0 -204.5 -68t-68.5 -185v-287q30 42 85.5 75t126.5 33q42 0 69 -3.5t46 -8.5v-180 q-28 8 -63.5 10t-66.5 2q-51 0 -88.5 -22.5t-61 -60t-35.5 -84t-12 -95.5v-322h-194z" />
<glyph unicode="&#xe29;" horiz-adv-x="1220" d="M174 391v939h190v-939q0 -117 58.5 -182.5t191.5 -65.5q134 0 191.5 64.5t57.5 183.5v282h-300v216h162v-73h138v514h189v-514h98v-143h-98v-282q0 -180 -107 -294t-331 -114q-220 0 -330 111.5t-110 296.5z" />
<glyph unicode="&#xe2a;" horiz-adv-x="1182" d="M98 386q0 219 119.5 317.5t372.5 98.5h226v159q0 120 -69 173t-187 53q-56 0 -101.5 -3.5t-87.5 -9.5t-83.5 -17.5t-90.5 -26.5v165q75 24 156 39t180 15q24 0 58.5 -2.5t70.5 -8.5t69 -13t55 -17l320 24v-164l-152 7q49 -91 49 -229v-946h-187v644h-236 q-84 0 -140.5 -12.5t-89.5 -42t-46.5 -76t-13.5 -112.5q0 -61 7.5 -108t27 -80t57.5 -50.5t99 -17.5q15 0 36.5 1.5t40.5 3.5q24 2 49 7v-162q-27 -5 -54 -7q-21 -5 -43.5 -6t-35.5 -1q-73 0 -141 16.5t-120.5 62.5t-83.5 124.5t-31 201.5z" />
<glyph unicode="&#xe2b;" horiz-adv-x="1164" d="M190 0v1330h186v-423h283q98 0 140.5 97.5t42.5 325.5h192q0 -216 -45.5 -359t-153.5 -192l281 -779h-206l-263 748h-271v-748h-186z" />
<glyph unicode="&#xe2c;" horiz-adv-x="1395" d="M133 1330h196l72 -1013l228 501h165l212 -501q14 194 23.5 320.5t16 201.5t8 106t1.5 35q0 108 -51.5 152.5t-155.5 47.5v147q69 0 117 7.5t76 33t40 72.5t12 126h204q0 -110 -33 -174.5t-75 -99.5q-47 -39 -105 -49q32 -7 60 -22.5t49 -44.5t33 -71.5t12 -103.5v-8 t-2 -34.5t-6 -91t-12 -172.5t-21 -280t-29 -415h-212l-253 575l-265 -575h-204z" />
<glyph unicode="&#xe2d;" horiz-adv-x="1107" d="M148 76v696h375v-155h-197v-432q22 -12 49.5 -20t57 -12.5t56.5 -7t46 -2.5q66 0 117 19.5t85.5 77.5t53 162t18.5 274q0 157 -20 257.5t-56.5 157t-91 77.5t-125.5 21t-161 -8.5t-161 -20.5v155q20 5 56 11t76 11t81 7t69 2q131 0 229.5 -25.5t164.5 -98t99.5 -201.5 t33.5 -333q0 -207 -27 -342t-84 -216t-146.5 -114t-217.5 -33q-44 0 -98 8.5t-106 22.5t-98 29.5t-78 32.5z" />
<glyph unicode="&#xe2e;" horiz-adv-x="1107" d="M148 76v696h375v-155h-197v-432q22 -12 49.5 -20t57 -12.5t56.5 -7t46 -2.5q66 0 117 19.5t85.5 77.5t53 162t18.5 274q0 157 -20 257.5t-56.5 157t-91 77.5t-125.5 21t-161 -8.5t-161 -20.5v155q20 5 56 11t76 11t81 7t69 2q22 0 63 -2t84 -6t79.5 -10t57.5 -13l344 15 v-165l-197 7q12 -24 28.5 -60t30.5 -91t25.5 -136.5t11.5 -196.5q0 -207 -27 -342t-84 -216t-146.5 -114t-217.5 -33q-44 0 -98 8.5t-106 22.5t-98 29.5t-78 32.5z" />
<glyph unicode="&#xe2f;" horiz-adv-x="957" d="M82 1194q0 49 7 84t12 54h187q-7 -28 -13.5 -58.5t-6.5 -63.5q0 -40 23 -63.5t82 -23.5q94 0 158 61.5t91 147.5h140v-1332h-187v1079q-30 -28 -92.5 -62t-151.5 -34q-125 0 -187 55t-62 156z" />
<glyph unicode="&#xe30;" horiz-adv-x="786" d="M110 143v321h190v-157h376v-164h-566zM110 814v321h190v-155h376v-166h-566z" />
<glyph unicode="&#xe31;" d="M-710 1571v312h177v-157h643v-155h-820z" />
<glyph unicode="&#xe32;" horiz-adv-x="896" d="M73 1147v166q47 12 117 22.5t127 10.5q125 0 204 -29t123 -95t60 -171t16 -252v-799h-190v755q0 122 -3.5 204.5t-23 131.5t-60 69t-114.5 20q-87 0 -140 -8.5t-116 -24.5z" />
<glyph unicode="&#xe33;" horiz-adv-x="896" d="M-476 1703q0 96 55 157.5t153 61.5q101 0 156.5 -59t55.5 -160q0 -99 -58 -160t-154 -61q-98 0 -153 61t-55 160zM-352 1703q0 -35 17.5 -68t66.5 -33q54 0 68.5 29.5t14.5 71.5t-16.5 71.5t-66.5 29.5q-49 0 -66.5 -31t-17.5 -70zM73 1147v166q47 12 117 22.5t127 10.5 q125 0 204 -29t123 -95t60 -171t16 -252v-799h-190v755q0 122 -3.5 204.5t-23 131.5t-60 69t-114.5 20q-87 0 -140 -8.5t-116 -24.5z" />
<glyph unicode="&#xe34;" d="M-1008 1548v155h832v-155h-832z" />
<glyph unicode="&#xe35;" d="M-1001 1548v155h647v180h178v-335h-825z" />
<glyph unicode="&#xe36;" d="M-1008 1548v155h455q-3 12 -3 39q0 96 59 149t141 53q84 0 141.5 -50.5t57.5 -151.5q0 -98 -51.5 -146t-147.5 -48h-652zM-427 1745q0 -37 14.5 -63t56.5 -26q46 0 58 23.5t12 65.5t-14 64t-56 22t-56.5 -23.5t-14.5 -62.5z" />
<glyph unicode="&#xe37;" d="M-1008 1548v155h452v180h146v-180h88v180h146v-335h-832z" />
<glyph unicode="&#xe38;" d="M-487 -150q27 5 58 9.5t73 4.5q79 0 125 -31.5t46 -88.5v-309h-171v228q0 19 -10 29t-49 10q-15 0 -37 -2t-35 -5v155z" />
<glyph unicode="&#xe39;" d="M-826 -164q22 7 55.5 13t64.5 6q82 0 123.5 -40.5t41.5 -97.5v-151q0 -35 25.5 -51.5t65.5 -16.5q37 0 64 16.5t27 51.5v279h183v-270q0 -110 -76.5 -157t-197.5 -47q-138 0 -206.5 48t-68.5 133v101q0 19 -7 30.5t-37 11.5q-12 0 -28.5 -2.5t-28.5 -4.5v148z" />
<glyph unicode="&#xe3a;" d="M-398 -176h222v-222h-222v222z" />
<glyph unicode="&#xe3f;" horiz-adv-x="1179" d="M190 0v1475q34 2 73 7q35 5 75 7.5t87 6.5v234h189v-234q183 -12 278.5 -104t95.5 -296q0 -141 -55.5 -214t-121.5 -101q33 -12 70.5 -30.5t69.5 -55t53 -96.5t21 -154q0 -131 -28.5 -218t-81 -139.5t-129 -76t-172.5 -25.5v-232h-189v232q-49 2 -92 4.5t-75 4.5 q-37 3 -68 5zM380 157q33 -2 68 -5q30 -2 66.5 -3t69.5 -1q54 0 98.5 7t76.5 35t49.5 84.5t17.5 155.5q0 145 -50.5 202.5t-188.5 57.5h-207v-533zM380 853h185q42 0 82.5 5t74 28.5t53 68.5t19.5 126q0 69 -9 118t-34.5 81.5t-70 47t-115.5 14.5q-42 0 -75 -2.5t-58 -5.5 q-28 -2 -52 -4v-477z" />
<glyph unicode="&#xe40;" horiz-adv-x="586" d="M176 248v1082h190v-1072q0 -56 15 -79.5t59 -23.5q20 0 36 3.5t23 5.5v-152q-24 -7 -57.5 -13t-75.5 -6q-32 0 -65 10.5t-61.5 40t-46 79t-17.5 125.5z" />
<glyph unicode="&#xe41;" horiz-adv-x="1176" d="M176 248v1082h190v-1072q0 -56 15 -79.5t59 -23.5q20 0 36 3.5t23 5.5v-152q-24 -7 -57.5 -13t-75.5 -6q-32 0 -65 10.5t-61.5 40t-46 79t-17.5 125.5zM769 248v1082h187v-1072q0 -56 14.5 -79.5t59.5 -23.5q16 0 33.5 3.5t24.5 5.5v-152q-24 -7 -57.5 -13t-74.5 -6 q-34 0 -67 10.5t-59 40t-43.5 79t-17.5 125.5z" />
<glyph unicode="&#xe42;" horiz-adv-x="586" d="M-37 1708q0 105 38.5 174t97 107.5t127.5 53t130 14.5q45 0 88 -5t81 -11t67.5 -12t45.5 -12v-162q-56 15 -132 27.5t-166 12.5q-71 0 -128 -27t-57 -96q32 -19 70 -57.5t68.5 -96.5t51.5 -135.5t21 -174.5v-1050q0 -56 15 -79.5t59 -23.5q20 0 36 3.5t23 5.5v-152 q-24 -7 -57.5 -13t-75.5 -6q-32 0 -65 10.5t-61.5 40t-46 79t-17.5 125.5v1016q0 199 -60 302t-153 142z" />
<glyph unicode="&#xe43;" horiz-adv-x="586" d="M-52 1799v192q28 14 69.5 25.5t84.5 21t83.5 14.5t67.5 5q61 0 121 -15.5t106 -50.5t74 -88t28 -126q0 -51 -34 -100.5t-75 -109t-74 -132.5t-33 -171v-1006q0 -56 15 -79.5t59 -23.5q20 0 36 3.5t23 5.5v-152q-24 -7 -57.5 -13t-75.5 -6q-32 0 -65 10.5t-61.5 40t-46 79 t-17.5 125.5v1060q0 98 34 163t73 114t72.5 92.5t33.5 94.5q0 71 -35 97t-106 26q-70 0 -152 -27t-148 -69z" />
<glyph unicode="&#xe44;" horiz-adv-x="586" d="M-28 1843v167q40 -14 102 -21.5t123 -7.5q91 0 146 8.5t100 25.5h127v-118q0 -79 -32 -150t-70 -146t-70 -157t-32 -180v-1006q0 -56 15 -79.5t59 -23.5q20 0 36 3.5t23 5.5v-152q-24 -7 -57.5 -13t-75.5 -6q-32 0 -65 10.5t-61.5 40t-46 79t-17.5 125.5v1060 q0 98 35 172.5t76.5 139t76 120.5t34.5 120q-37 -19 -95.5 -28.5t-112.5 -9.5q-143 0 -218 21z" />
<glyph unicode="&#xe45;" horiz-adv-x="896" d="M73 1147v166q47 12 117 22.5t127 10.5q125 0 204 -29t123 -95t60 -171t16 -252v-1177h-190v1133q0 122 -3.5 204.5t-23 131.5t-60 69t-114.5 20q-87 0 -140 -8.5t-116 -24.5z" />
<glyph unicode="&#xe46;" horiz-adv-x="1144" d="M127 1003q0 169 76.5 248t199.5 79l141 -104l166 104q138 0 199.5 -68t61.5 -232v-1316h-190v1316q0 70 -16.5 98t-68.5 28l-138 -96h-28l-134 96q-32 0 -51 -30t-19 -123q0 -61 11.5 -115.5t23.5 -85.5h-197q-14 37 -25.5 88t-11.5 113z" />
<glyph unicode="&#xe47;" d="M-919 1672v19q0 105 69 175.5t212 70.5q68 0 127 -5t115 -5q71 0 135 8.5t81 18.5v-153q-30 -5 -81 -12t-130 -7q-59 0 -133 6t-114 6q-66 0 -91.5 -28t-25.5 -75v-10q0 -32 20 -52t57 -20q54 0 78.5 12.5t51.5 57.5h61q9 -28 44 -49t89 -21h136v-149h-141 q-120 0 -157 86q-19 -38 -60 -62t-130 -24q-91 0 -152 58t-61 154z" />
<glyph unicode="&#xe48;" d="M-354 2172v180h178v-180l-26 -191h-129z" />
<glyph unicode="&#xe49;" d="M-614 2134v147h300v-138h314v-152h-481v143h-133z" />
<glyph unicode="&#xe4a;" d="M-814 1968v180q0 44 36 83t114 39h47l113 -90l94 90h54q63 0 101.5 -37.5t38.5 -82.5v-39q49 0 96 9t96 23v-157q-28 -7 -60 -12q-61 -12 -137 -13q-61 0 -101 7q-24 5 -46 11v155l-122 -80h-31l-117 82v-168h-176z" />
<glyph unicode="&#xe4b;" d="M-511 2134v166h145v138h190v-138h144v-166h-155l-15 -134h-142l-12 134h-155z" />
<glyph unicode="&#xe4c;" d="M-533 1841v285h444v-152h-265v-133h-179z" />
<glyph unicode="&#xe4d;" d="M-476 1703q0 96 55 157.5t153 61.5q101 0 156.5 -59t55.5 -160q0 -99 -58 -160t-154 -61q-98 0 -153 61t-55 160zM-352 1703q0 -35 17.5 -68t66.5 -33q54 0 68.5 29.5t14.5 71.5t-16.5 71.5t-66.5 29.5q-49 0 -66.5 -31t-17.5 -70z" />
<glyph unicode="&#xe4e;" horiz-adv-x="1942" />
<glyph unicode="&#xe4f;" horiz-adv-x="1318" d="M122 626q0 162 43.5 280.5t117 196t172 114t206.5 36.5q106 0 203 -36.5t171 -114t117.5 -196t43.5 -280.5t-43.5 -280t-117.5 -195.5t-171 -114t-203 -36.5q-108 0 -206.5 36.5t-172 114t-117 195.5t-43.5 280zM270 626q0 -258 107 -384.5t284 -126.5t280 126.5 t103 384.5t-103 385t-280 127q-176 0 -283.5 -127t-107.5 -385zM472 626q0 134 54 192.5t133 58.5t133 -58.5t54 -192.5q0 -120 -56 -178.5t-131 -58.5q-76 0 -131.5 58.5t-55.5 178.5z" />
<glyph unicode="&#xe50;" horiz-adv-x="1255" d="M115 638q0 170 39.5 288t108 190.5t163.5 104.5t203 32q105 0 199 -32t164 -104.5t109 -190.5t39 -288q0 -204 -41.5 -331t-111.5 -198.5t-162.5 -98.5t-195.5 -27t-196 27t-163.5 98.5t-112.5 198.5t-42 331zM307 607q0 -253 83.5 -360t238.5 -107q150 0 233.5 107 t83.5 360q0 136 -19.5 230t-59 150.5t-99.5 82.5t-139 26q-82 0 -142 -26t-100 -82.5t-60 -151t-20 -229.5z" />
<glyph unicode="&#xe51;" horiz-adv-x="1272" d="M115 708q0 115 30.5 214.5t96 173.5t164 115.5t232.5 41.5q150 0 250 -48.5t159 -137.5t84 -213t25 -274q0 -366 -129 -528t-391 -162q-54 0 -121 7t-117 19v163q50 -9 123.5 -14.5t132.5 -5.5q167 0 237 135t70 386q0 122 -13.5 218t-49 161.5t-98.5 99.5t-162 34 q-162 0 -246.5 -97.5t-84.5 -289.5q0 -94 15 -150.5t39.5 -90t57.5 -44.5t68 -11q28 0 38 2.5t28 7.5v209h179v-329q-47 -32 -99.5 -45.5t-142.5 -13.5q-74 0 -142 19.5t-120 71t-82.5 142.5t-30.5 234z" />
<glyph unicode="&#xe52;" horiz-adv-x="1398" d="M174 413v1074h197v-1089q0 -103 97 -166t282 -63q167 0 250.5 66.5t83.5 162.5v554q0 70 -17.5 97t-65.5 27l-117 -73h-26l-110 73q-33 0 -52.5 -27t-19.5 -130q0 -35 1 -72.5t3.5 -71t5 -57.5t2.5 -35h-196q-2 37 -7.5 105t-5.5 131q0 103 19.5 168.5t57 101t88 48.5 t111.5 13l115 -80l143 80q138 0 204 -67t66 -231v-539q0 -82 -29.5 -159.5t-95 -137.5t-166 -95t-240.5 -35q-302 0 -440 110t-138 317z" />
<glyph unicode="&#xe53;" horiz-adv-x="1435" d="M138 314v605q0 79 28 141.5t74 106t103.5 66.5t118.5 23q110 0 179 -50t96 -122q27 73 97.5 121t168.5 48q127 0 212 -74.5t85 -256.5v-922h-198v924q0 86 -28 124t-101 38q-47 0 -72.5 -20t-37.5 -49t-14.5 -63.5t-2.5 -66.5v-887h-199v887q0 93 -42 137.5t-121 44.5 q-71 0 -112 -45.5t-41 -116.5v-597q0 -84 35 -116t103 -32q49 0 79 7q17 3 29 7v-166q-24 -8 -61 -16t-78 -8q-148 0 -224 89t-76 239z" />
<glyph unicode="&#xe54;" horiz-adv-x="1264" d="M120 354v388q0 238 120.5 366t366.5 128h219q70 0 96.5 23.5t26.5 70.5v88h198v-88q0 -155 -84.5 -218t-248.5 -63h-204q-160 0 -225.5 -72t-65.5 -235v-378q0 -94 50.5 -147t153.5 -53q42 0 90 14t75 31q-15 30 -37 99.5t-22 165.5q0 120 54 190t165 70h158v-176h-114 q-38 0 -59.5 -23.5t-21.5 -62.5q0 -158 54 -229t136 -71h125v-172h-136q-84 0 -128 16t-83 50q-49 -35 -120.5 -57.5t-149.5 -22.5q-91 0 -164 30.5t-122 82t-76 118t-27 137.5z" />
<glyph unicode="&#xe55;" horiz-adv-x="1297" d="M120 354v388q0 187 81.5 313.5t262.5 161.5q-9 19 -9 47q0 86 54 136t133 50q82 0 134 -49.5t52 -132.5v-19.5t-2 -22.5q68 0 109 19t41 82v96h194v-91q0 -155 -92.5 -219t-259.5 -64h-208q-160 0 -225.5 -72t-65.5 -235v-378q0 -94 50.5 -147t153.5 -53q42 0 90 14 t75 31q-15 30 -37 99.5t-22 165.5q0 120 54 190t165 70h158v-176h-114q-38 0 -59.5 -23.5t-21.5 -62.5q0 -158 54 -229t136 -71h125v-172h-136q-84 0 -128 16t-83 50q-49 -35 -120.5 -57.5t-149.5 -22.5q-91 0 -164 30.5t-122 82t-76 118t-27 137.5zM577 1266 q0 -28 17.5 -46.5t49.5 -18.5q24 0 44 18.5t20 46.5t-20 48t-44 20q-32 0 -49.5 -21t-17.5 -47z" />
<glyph unicode="&#xe56;" horiz-adv-x="1233" d="M118 1438h187l51 -278q54 57 131.5 76.5t156.5 19.5q232 0 352 -123t120 -352v-297q0 -242 -118 -370t-346 -128q-125 0 -236 34t-188 100v354h199v-258q45 -35 99 -47t126 -12q142 0 203.5 84.5t61.5 242.5v297q0 157 -69 228.5t-204 71.5q-63 0 -107.5 -10.5t-77 -33 t-53 -52t-38.5 -66.5h-136z" />
<glyph unicode="&#xe57;" horiz-adv-x="1614" d="M138 314v652q0 73 24.5 127t63.5 90t88.5 54.5t100.5 18.5q79 0 145 -33.5t87 -113.5q9 37 35 64.5t59 46t69 27.5t65 9q133 0 200 -85t67 -266v-748q71 0 114.5 44.5t43.5 154.5v1128h199v-1108q0 -188 -97.5 -289t-268.5 -101q-45 0 -94 3.5t-98 15.5v900 q0 89 -24.5 126.5t-68.5 37.5q-49 0 -86 -40.5t-37 -104.5v-230h-167v235q0 59 -32 99.5t-88 40.5q-49 0 -78 -33t-29 -82v-644q0 -84 35 -116t103 -32q52 0 89 7q22 3 42 7v-166q-22 -8 -66 -16t-96 -8q-148 0 -224 89t-76 239z" />
<glyph unicode="&#xe58;" horiz-adv-x="1316" d="M120 286v528q0 81 31 155.5t87.5 134t134 95t173.5 35.5h322q70 0 98.5 33t28.5 87v130h204v-164q0 -110 -81 -190.5t-246 -80.5h-307q-117 0 -175.5 -66t-58.5 -167v-528q0 -59 29 -98.5t83 -39.5h29l222 194h16l202 -194q44 0 72.5 29.5t28.5 95.5v255h-153v160h339 v-415q0 -125 -54 -208.5t-155 -83.5h-122l-167 153l-160 -150h-107q-147 0 -230.5 82t-83.5 218z" />
<glyph unicode="&#xe59;" horiz-adv-x="1262" d="M120 314v617q0 76 31 137.5t80 102.5t112 63t126 22q103 0 168.5 -38t101.5 -95q10 57 55.5 95t115.5 38q84 0 115.5 26t31.5 82v74h191v-89q0 -113 -76 -188t-220 -75q-64 0 -88 -44.5t-24 -92.5q0 -27 23 -101l211 -848h-206l-244 980q-12 45 -47.5 72t-95.5 27 q-81 0 -124 -41t-43 -107v-621q0 -84 34.5 -121t103.5 -37q24 0 46.5 1.5t42.5 3.5q22 3 41 7v-154q-22 -8 -66 -16t-96 -8q-148 0 -224 89t-76 239z" />
<glyph unicode="&#x2000;" horiz-adv-x="1219" />
<glyph unicode="&#x2001;" horiz-adv-x="2438" />
<glyph unicode="&#x2002;" horiz-adv-x="1219" />
<glyph unicode="&#x2003;" horiz-adv-x="2438" />
<glyph unicode="&#x2004;" horiz-adv-x="812" />
<glyph unicode="&#x2005;" horiz-adv-x="609" />
<glyph unicode="&#x2006;" horiz-adv-x="406" />
<glyph unicode="&#x2007;" horiz-adv-x="406" />
<glyph unicode="&#x2008;" horiz-adv-x="304" />
<glyph unicode="&#x2009;" horiz-adv-x="487" />
<glyph unicode="&#x200a;" horiz-adv-x="135" />
<glyph unicode="&#x2010;" horiz-adv-x="1154" d="M199 642v174h757v-174h-757z" />
<glyph unicode="&#x2011;" horiz-adv-x="1154" d="M199 642v174h757v-174h-757z" />
<glyph unicode="&#x2012;" horiz-adv-x="1154" d="M199 642v174h757v-174h-757z" />
<glyph unicode="&#x2013;" horiz-adv-x="1282" d="M199 642v174h887v-174h-887z" />
<glyph unicode="&#x2014;" horiz-adv-x="1412" d="M152 642v174h1109v-174h-1109z" />
<glyph unicode="&#x2018;" horiz-adv-x="525" d="M127 1055v211l141 366h152l-71 -366v-211h-222z" />
<glyph unicode="&#x2019;" horiz-adv-x="525" d="M106 1057l68 366v211h222v-211l-140 -366h-150z" />
<glyph unicode="&#x201a;" horiz-adv-x="513" d="M115 -366l72 366v209h221v-209l-140 -366h-153z" />
<glyph unicode="&#x201c;" horiz-adv-x="886" d="M127 1055v211l141 366h152l-71 -366v-211h-222zM490 1055v211l139 366h152l-68 -366v-211h-223z" />
<glyph unicode="&#x201d;" horiz-adv-x="886" d="M106 1057l68 366v211h222v-211l-140 -366h-150zM467 1057l68 366v211h225v-211l-141 -366h-152z" />
<glyph unicode="&#x201e;" horiz-adv-x="874" d="M115 -366l72 366v209h221v-209l-140 -366h-153zM479 -366l69 366v209h221v-209l-140 -366h-150z" />
<glyph unicode="&#x2020;" horiz-adv-x="1095" d="M127 992v176h330v466h187v-466h327v-176h-327v-992h-187v992h-330z" />
<glyph unicode="&#x2021;" horiz-adv-x="1095" d="M127 490v176h330v326h-330v176h330v466h187v-466h327v-176h-327v-326h327v-176h-327v-490h-187v490h-330z" />
<glyph unicode="&#x2022;" horiz-adv-x="675" d="M162 548v362h352v-362h-352z" />
<glyph unicode="&#x2026;" horiz-adv-x="1562" d="M152 0v234h234v-234h-234zM666 0v234h234v-234h-234zM1180 0v234h234v-234h-234z" />
<glyph unicode="&#x202f;" horiz-adv-x="487" />
<glyph unicode="&#x2030;" horiz-adv-x="2749" d="M199 1168q0 110 12 198t47 152.5t97.5 98.5t162.5 34q104 0 167 -34t97 -98.5t45 -152.5t11 -198q0 -111 -12 -203.5t-46.5 -159t-97.5 -103t-164 -36.5q-100 0 -162.5 36.5t-97.5 103t-47 159t-12 203.5zM359 1158q0 -190 34 -272t125 -82q89 0 123.5 83.5t34.5 270.5 q0 190 -34.5 273t-123.5 83q-91 0 -125 -82.5t-34 -273.5zM624 0l570 1634h182l-570 -1634h-182zM1160 487q0 108 12 197.5t46.5 152.5t97.5 97t164 34q103 0 165.5 -34t97 -97t45.5 -152.5t11 -197.5q0 -110 -12 -202.5t-47 -159t-97.5 -104.5t-162.5 -38q-101 0 -164 38 t-97.5 104.5t-46.5 158.5t-12 203zM1322 476q0 -192 34.5 -274t123.5 -82q91 0 125 83.5t34 272.5q0 188 -34 271t-125 83q-89 0 -123.5 -82t-34.5 -272zM1912 487q0 108 12.5 197.5t46.5 152.5t97 97t164 34q103 0 165.5 -34t96.5 -97t45.5 -152.5t11.5 -197.5 q0 -110 -12.5 -202.5t-46.5 -159t-96.5 -104.5t-163.5 -38t-164 38t-97 104.5t-46.5 158.5t-12.5 203zM2075 476q0 -192 34 -274t123 -82q91 0 125.5 83.5t34.5 272.5q0 188 -35 271t-125 83q-89 0 -123 -82t-34 -272z" />
<glyph unicode="&#x2039;" horiz-adv-x="711" d="M174 698l209 484h152l-144 -484l144 -484h-152z" />
<glyph unicode="&#x203a;" horiz-adv-x="711" d="M174 214l148 484l-148 484h155l206 -484l-206 -484h-155z" />
<glyph unicode="&#x2044;" horiz-adv-x="535" d="M-199 -234l747 2124h186l-746 -2124h-187z" />
<glyph unicode="&#x205f;" horiz-adv-x="609" />
<glyph unicode="&#x20ac;" horiz-adv-x="1142" d="M127 553l47 169h94v230h-141l47 169h103q15 164 60.5 268.5t114.5 162t160 78.5t199 21q22 0 56.5 -4.5t69 -10.5t62.5 -13.5t43 -13.5l-47 -159q-64 14 -116.5 22t-109.5 8q-51 0 -98 -14t-85 -53t-63.5 -109t-35.5 -183h378l-47 -169h-342v-230h321l-47 -169h-266 q7 -131 34.5 -208t65.5 -120t86 -56.5t99 -13.5q71 0 128 9.5t98 22.5v-165q-40 -12 -97.5 -25.5t-116.5 -13.5q-105 0 -192 26t-151.5 89.5t-104.5 174t-56 280.5h-150z" />
<glyph unicode="&#x2122;" horiz-adv-x="1749" d="M94 1496v138h943l157 -332l152 332h254v-1064h-155v934l-197 -413h-120l-197 413v-934h-152v926h-256v-926h-159v926h-270z" />
<glyph unicode="&#x2126;" horiz-adv-x="1280" d="M152 835q0 207 22.5 359t77.5 254t148.5 152.5t237.5 50.5q146 0 240.5 -50.5t150 -152.5t77.5 -254t22 -359q0 -258 -32 -418.5t-116 -249.5h141v-167h-382v174q49 19 84 66.5t56 125t30.5 190t9.5 267.5q0 192 -13.5 318.5t-46.5 201.5t-87 106t-134 31q-79 0 -131 -31 t-85 -106t-48 -201.5t-15 -318.5q0 -157 9.5 -271t30.5 -191.5t57 -123t88 -65.5v-172h-382v167h136q-84 89 -115 249.5t-31 418.5z" />
<glyph unicode="&#x2202;" horiz-adv-x="1095" d="M136 497q0 120 13 219.5t54 171t112 110.5t189 39q86 0 147.5 -23.5t98.5 -49.5q-5 171 -22.5 275.5t-49 158.5t-78.5 71.5t-110 17.5q-76 0 -139 -12t-110 -25v165q15 5 42 11t57.5 12t64 9.5t59.5 3.5q111 0 201 -28t153.5 -109t98.5 -230t35 -386q0 -293 -23.5 -472.5 t-74 -278t-129 -131.5t-190.5 -33q-79 0 -150 20.5t-127 78.5t-89 158t-33 257zM335 481q0 -167 46 -248t170 -81q51 0 88 22.5t61.5 91.5t37 198t14.5 342q-21 12 -81.5 37t-149.5 25q-64 0 -101 -23.5t-56.5 -71.5t-24 -120.5t-4.5 -171.5z" />
<glyph unicode="&#x2206;" horiz-adv-x="1189" d="M59 0l415 1634h258l401 -1634h-1074zM310 174h570l-278 1286z" />
<glyph unicode="&#x220f;" horiz-adv-x="1316" d="M106 1460v174h1106v-174h-209v-1188q0 -61 14.5 -85.5t61.5 -24.5q19 0 36.5 5t26.5 7v-162q-27 -5 -61.5 -11t-77.5 -6q-35 0 -72 12t-66.5 42t-47.5 81.5t-18 129.5v1200h-307v-1460h-202v1460h-184z" />
<glyph unicode="&#x2211;" horiz-adv-x="1095" d="M94 -176l393 800l-365 790v220h844v-174h-637l379 -836l-413 -847h697v-175h-898v222z" />
<glyph unicode="&#x2212;" horiz-adv-x="1282" d="M199 642v174h887v-174h-887z" />
<glyph unicode="&#x2215;" horiz-adv-x="535" d="M-199 -234l747 2124h186l-746 -2124h-187z" />
<glyph unicode="&#x2219;" horiz-adv-x="535" d="M152 607v233h234v-233h-234z" />
<glyph unicode="&#x221a;" horiz-adv-x="1294" d="M82 914h208l214 -771l413 1771h413v-174h-263l-408 -1740h-300z" />
<glyph unicode="&#x221e;" horiz-adv-x="1702" d="M106 722q0 183 103 283.5t319 100.5q91 0 172 -38t142 -146q42 86 128.5 135t206.5 49q216 0 319.5 -100.5t103.5 -283.5q0 -180 -103.5 -280t-319.5 -100q-93 0 -172 36.5t-142 147.5q-40 -87 -128 -135.5t-207 -48.5q-216 0 -319 101t-103 279zM300 722 q0 -117 56.5 -164t166.5 -47q138 0 189.5 62.5t51.5 217.5q-30 68 -94.5 106.5t-146.5 38.5q-108 0 -165.5 -48t-57.5 -166zM943 656q28 -68 91.5 -106.5t147.5 -38.5q108 0 165.5 47t57.5 164q0 118 -56.5 166t-166.5 48q-68 0 -114 -14.5t-74 -48t-39.5 -87.5t-11.5 -130z " />
<glyph unicode="&#x2224;" horiz-adv-x="535" d="M152 607v233h234v-233h-234z" />
<glyph unicode="&#x2227;" horiz-adv-x="535" d="M152 607v233h234v-233h-234z" />
<glyph unicode="&#x222b;" horiz-adv-x="758" d="M-47 -371q37 -9 81.5 -16t108.5 -7q63 0 95 31.5t32 82.5v1910q0 152 82 224.5t216 72.5q75 0 133.5 -9t92.5 -16v-164q-37 9 -85 14t-111 5q-64 0 -96.5 -30.5t-32.5 -80.5v-1909q0 -152 -82 -224.5t-215 -72.5q-76 0 -130 8t-89 13v168z" />
<glyph unicode="&#x2248;" horiz-adv-x="1189" d="M199 401v181q79 49 133 64t106 15q47 0 88.5 -15t82 -30.5t81 -30.5t84.5 -15q64 0 116.5 24.5t101.5 59.5v-182q-54 -35 -114 -55.5t-123 -20.5q-49 0 -90 14.5t-80 30.5t-80 31t-90 15q-61 0 -114 -26.5t-102 -59.5zM199 799v181q79 50 133 63.5t106 13.5 q47 0 88.5 -15t82 -31t81 -30.5t84.5 -14.5q64 0 116.5 24.5t101.5 58.5v-181q-54 -35 -114 -56t-123 -21q-49 0 -90 15t-80 31t-80 30.5t-90 14.5q-61 0 -114 -24.5t-102 -58.5z" />
<glyph unicode="&#x2260;" horiz-adv-x="1282" d="M199 162l150 246h-150v174h258l181 293h-439v174h549l152 246h186l-152 -246h152v-174h-260l-182 -293h442v-174h-551l-149 -246h-187z" />
<glyph unicode="&#x2264;" horiz-adv-x="1282" d="M199 0v174h887v-174h-887zM199 654v246l887 418v-216l-720 -318l720 -273v-218z" />
<glyph unicode="&#x2265;" horiz-adv-x="1282" d="M199 0v174h887v-174h-887zM199 293v218l718 273l-718 318v216l887 -418v-246z" />
<glyph unicode="&#x22c5;" horiz-adv-x="535" d="M152 607v233h234v-233h-234z" />
<glyph unicode="&#x25af;" horiz-adv-x="1171" d="M152 0v1634h868v-1634h-868zM326 167h520v1301h-520v-1301z" />
<glyph unicode="&#x25ca;" horiz-adv-x="1095" d="M94 816l326 818h256l327 -818l-327 -816h-261zM298 816l250 -654l254 654l-254 654z" />
<glyph unicode="&#x25fc;" horiz-adv-x="1166" d="M0 0v1168h1168v-1168h-1168z" />
<glyph unicode="&#xf700;" horiz-adv-x="1154" d="M164 1128v167q76 24 184.5 39t204.5 15q71 0 131.5 -9.5t109.5 -29.5l334 22v-164l-176 7q70 -120 70 -352q0 -145 -40.5 -291t-89.5 -264q-57 -138 -128 -268h-253l-171 614h-138v155h265l175 -633q52 105 92 223q35 101 64.5 221.5t29.5 242.5q0 103 -14.5 172 t-48 110.5t-86.5 59t-128 17.5q-57 0 -106 -3.5t-94.5 -9.5t-90 -16.5t-96.5 -24.5z" />
<glyph unicode="&#xf701;" d="M-1276 1548v155h831v-155h-831z" />
<glyph unicode="&#xf702;" d="M-1266 1538v158h644v177h177v-335h-821z" />
<glyph unicode="&#xf703;" d="M-1276 1548v155h458q-3 12 -3 39q0 96 59 149t138 53q86 0 144 -50.5t58 -151.5q0 -194 -202 -194h-652zM-694 1745q0 -37 14 -63t56 -26q49 0 61 23.5t12 65.5t-15.5 64t-57.5 22t-56 -23.5t-14 -62.5z" />
<glyph unicode="&#xf704;" d="M-1297 1548v155h455v180h144v-180h88v180h143v-335h-830z" />
<glyph unicode="&#xf705;" d="M-745 1728v202h189v-202l-31 -239h-126z" />
<glyph unicode="&#xf706;" d="M-1098 1738v152h341v-164h356v-155h-542v167h-155z" />
<glyph unicode="&#xf707;" d="M-1194 1571v193q0 44 38 86t117 42h36l126 -73l135 73h22q64 0 102 -40.5t38 -83.5v-56q50 0 83 8t82 22v-157q-17 -7 -42 -12q-45 -12 -120 -13q-61 0 -108 8q-28 5 -54 10v157l-119 -56h-42l-110 56v-164h-184z" />
<glyph unicode="&#xf708;" d="M-511 1630v157h145v143h190v-143h144v-157h-155l-15 -141h-142l-12 141h-155z" />
<glyph unicode="&#xf709;" d="M-830 1573v312h420v-157h-244v-155h-176z" />
<glyph unicode="&#xf70a;" d="M-366 1728v202h190v-202l-35 -239h-124z" />
<glyph unicode="&#xf70b;" d="M-678 1738v152h343v-164h357v-155h-543v167h-157z" />
<glyph unicode="&#xf70c;" d="M-919 1571v193q0 44 38.5 86t116.5 42h49l155 -110l164 110h35q63 0 104 -40.5t41 -83.5v-56q49 0 103 9t103 24v-160q-32 -7 -66 -12q-30 -5 -67 -9t-75 -4q-62 0 -108 8q-28 5 -54 10v157l-159 -93h-45l-150 93v-164h-185z" />
<glyph unicode="&#xf70d;" d="M-511 1630v157h145v143h190v-143h144v-157h-155l-15 -141h-142l-12 141h-155z" />
<glyph unicode="&#xf70e;" d="M-544 1573v312h488v-157h-310v-155h-178z" />
<glyph unicode="&#xf70f;" horiz-adv-x="1888" d="M110 1086v108q64 35 142.5 63t153.5 49t143 32t110 11q117 0 192 -28.5t118.5 -82.5t59 -133.5t15.5 -180.5v-228q0 -106 45.5 -163t181.5 -57q54 0 99.5 23.5t78.5 61t53 80t22 84.5v605h186v-887q0 -96 -19 -179.5t-67 -146.5t-127 -98.5t-200 -35.5q-51 0 -109 6 t-108 13.5t-89 14.5t-57 11v159q16 -5 51 -12.5t79.5 -13.5t97 -11t106.5 -5q89 0 143 32t82.5 80t38 104.5t9.5 105.5q-47 -87 -130.5 -118.5t-169.5 -31.5q-216 0 -299.5 98.5t-83.5 304.5v229q0 52 -8 95.5t-32 76t-68 50.5t-121 18q-71 0 -148.5 -19.5t-126.5 -43.5 v-868q0 -56 16 -79.5t57 -23.5q19 0 35.5 3.5t27.5 5.5v-152q-24 -7 -58 -13t-78 -6q-32 0 -65 10.5t-61.5 40t-46 79t-17.5 125.5v814z" />
<glyph unicode="&#xf710;" d="M-912 1571v312h180v-157h641v-155h-821z" />
<glyph unicode="&#xf711;" d="M-887 1703q0 96 55.5 157.5t153.5 61.5q101 0 156 -59t55 -160q0 -99 -57.5 -160t-153.5 -61q-98 0 -153.5 61t-55.5 160zM-762 1703q0 -35 17.5 -68t66.5 -33q56 0 69.5 29.5t13.5 71.5t-17 71.5t-66 29.5t-66.5 -31t-17.5 -70z" />
<glyph unicode="&#xf712;" d="M-1145 1672v19q0 105 66 174t209 69q68 0 126.5 -6t114.5 -6q71 0 136.5 12t82.5 22v-148q-30 -9 -83 -16.5t-131 -7.5q-59 0 -131.5 6t-114.5 6q-66 0 -92 -24.5t-26 -80.5v-10q0 -79 78 -79q54 0 79 12.5t52 57.5h61q10 -28 45 -48t89 -20h134v-144h-140q-57 0 -97 24 t-61 66q-19 -37 -61 -63.5t-125 -26.5q-86 0 -148.5 54t-62.5 158z" />
<glyph unicode="&#xf713;" d="M-622 2172v180h177v-180l-22 -191h-131z" />
<glyph unicode="&#xf714;" d="M-912 2134v147h300v-138h314v-152h-478v143h-136z" />
<glyph unicode="&#xf715;" d="M-851 1968v180q0 44 36 83t114 39h47l113 -90l93 90h54q64 0 102.5 -37.5t38.5 -82.5v-39q49 0 96 9t96 23v-157q-28 -7 -59 -12q-61 -12 -138 -13q-61 0 -101 7q-24 5 -47 11v155l-120 -80h-32l-118 82v-168h-175z" />
<glyph unicode="&#xf716;" d="M-757 2134v166h145v138h190v-138h145v-166h-155l-13 -134h-142l-15 134h-155z" />
<glyph unicode="&#xf717;" d="M-776 1841v285h441v-152h-265v-133h-176z" />
<glyph unicode="&#xf718;" d="M-490 -469q28 5 58.5 9.5t72.5 4.5q37 0 70 -7t56.5 -28t37 -56.5t13.5 -91.5v-213h-177v173q0 28 -8.5 44.5t-52.5 16.5q-19 0 -39 -3.5t-31 -5.5v157z" />
<glyph unicode="&#xf719;" d="M-826 -462q22 5 58 11t80 6q69 0 111 -34.5t42 -130.5v-112q0 -30 22.5 -43.5t62.5 -13.5q37 0 60.5 14.5t23.5 42.5v270h190v-261q0 -108 -76.5 -151t-197.5 -43q-275 0 -275 173v68q0 28 -7 42t-42 14q-19 0 -33 -3.5t-19 -5.5v157z" />
<glyph unicode="&#xf71a;" d="M-398 -457h222v-221h-222v221z" />
<glyph unicode="&#xf71b;" horiz-adv-x="1245" d="M59 12v152q7 -2 23 -5.5t36 -3.5q39 0 56.5 13.5t17.5 67.5v765l-79 68v89q39 30 98 64t130.5 62.5t147.5 47.5t147 19q234 0 357 -108t123 -314v-1013q0 -94 -23.5 -160t-66.5 -106.5t-104.5 -58.5t-135.5 -18q-61 0 -131.5 14.5t-124.5 14.5q-34 0 -65 -5t-55 -10 l-54 -14v159q28 8 54 15q24 5 55.5 9.5t64.5 4.5q50 0 116.5 -14.5t125.5 -14.5q86 0 120 46t34 138v1013q0 125 -66 192.5t-224 67.5q-115 0 -193.5 -34t-140.5 -76l78 -66v-785q0 -71 -14 -116.5t-41 -71.5t-64.5 -36.5t-80.5 -10.5q-42 0 -69 6t-52 13z" />
<glyph unicode="&#xf71c;" horiz-adv-x="1245" d="M59 12v152q7 -2 23 -5.5t36 -3.5q39 0 56.5 13.5t17.5 67.5v765l-79 68v89q39 30 98 64t130.5 62.5t147.5 47.5t147 19q234 0 357 -108t123 -314v-1044q0 -165 -77.5 -238.5t-215.5 -73.5l-189 96l-160 -96q-17 0 -42.5 1t-52.5 3.5t-52 5t-39 4.5v169q24 -7 74.5 -15.5 t101.5 -8.5l158 86h27l162 -86q49 0 82 27t33 126v1044q0 125 -66 192.5t-224 67.5q-115 0 -193.5 -33t-140.5 -70v-7l78 -66v-785q0 -71 -14 -116.5t-41 -71.5t-64.5 -36.5t-80.5 -10.5q-42 0 -69 6t-52 13z" />
<glyph unicode="&#xf71d;" horiz-adv-x="1395" d="M133 1330h196l72 -1028l228 516h165l212 -516q7 80 15.5 154t14.5 139.5t9.5 116t3.5 79.5q0 108 -48.5 152.5t-152.5 46.5v148q69 0 117 7.5t76 33.5t40 72t12 125h204q0 -110 -33 -174t-75 -98q-47 -40 -105 -49q32 -7 60 -23.5t50.5 -44.5t34.5 -71.5t12 -104.5 q0 -35 -7.5 -120.5t-18 -200t-24.5 -243.5t-23 -247h-212l-253 575l-265 -575h-204z" />
<glyph unicode="&#xf8ff;" horiz-adv-x="2176" d="M122 293v1002q0 19 5.5 25.5t17.5 13.5l1018 504q14 5 24 5q9 0 20 -5l747 -375q30 -17 44 -33l54 -110q2 -10 2 -25v-1018q0 -24 -21 -31l-694 -384q-7 -2 -16.5 -3.5t-27.5 -1.5h-418q-12 0 -20.5 1.5t-16.5 3.5l-688 382q-30 7 -30 49zM199 298l631 -345v642 q-7 5 -28 18t-52.5 32t-68.5 41t-76 44q-91 51 -202 116q-12 5 -16 12t-4 12q0 14 7.5 28t27.5 14q9 0 22 -7l440 -253q16 -12 18 -30v-695h406l677 371v943l-632 -352v-392l312 171v219q0 27 35 27q42 0 42 -27v-238q0 -24 -20 -37l-369 -190v-178q30 14 85 44.5t112 60.5 q63 35 140 73q7 3 17 3q12 0 23.5 -8.5t11.5 -27.5t-20 -30l-367 -192q-9 -5 -17.5 -10t-20.5 -5q-17 0 -23.5 11t-6.5 27v685h-403q-12 0 -26 4.5t-21 9.5l-634 352v-477l305 -171q14 -12 14 -35v-241q0 -15 -8 -26t-23 -11q-17 0 -27 11t-10 26v224l-251 142v-385z M236 1295l639 -343h429q64 34 97.5 51t50.5 27q19 9 23 14v126q0 14 9.5 25.5t21.5 11.5h266l196 111l-41 82l-740 372zM830 1261q0 19 34 40t58 21q9 0 39.5 -13.5t64.5 -33t58.5 -40.5t24.5 -34q0 -7 -10.5 -18t-22.5 -19t-25.5 -15t-20.5 -7q-12 0 -44 16.5t-67 37.5 t-62 39t-27 26zM1212 1454q0 20 31 41.5t59 21.5q10 0 42 -14t65 -32.5t59 -39t26 -33.5q0 -7 -9.5 -18t-24.5 -21t-28.5 -16t-20.5 -6q-9 0 -41.5 16t-68 37t-62.5 39t-27 25z" />
<glyph horiz-adv-x="924" d="M-875 1703q0 96 55.5 157.5t151.5 61.5q100 0 156.5 -59t56.5 -160q0 -99 -57.5 -160t-155.5 -61q-96 0 -151.5 61t-55.5 160zM-750 1703q0 -35 16 -68t66 -33q56 0 70 29.5t14 71.5t-16.5 71.5t-67.5 29.5q-50 0 -66 -31t-16 -70zM101 1147v166q47 12 117 22.5t126 10.5 q125 0 203.5 -29t123 -95t61 -171t16.5 -252v-799h-190v755q0 122 -3.5 204.5t-23.5 131.5t-60.5 69t-114.5 20q-86 0 -140 -8.5t-115 -24.5z" />
<glyph />
<glyph horiz-adv-x="3231" d="M122 410q0 153 94 251.5t227 144.5q-61 20 -117 51.5t-96 75t-65 98.5t-25 122q0 103 52 176.5t130.5 120t170 69t175.5 22.5q59 0 142.5 -12t161 -43.5t132 -80.5t54.5 -122q0 -54 -35 -86t-84 -32q-71 0 -104 41.5t-65 93t-77 93.5t-139 42q-61 0 -103 -25.5t-68 -66.5 t-38.5 -91.5t-12.5 -101.5q0 -52 11.5 -105t37 -94t66 -68t100.5 -27q61 0 116 22t112 22q47 0 76 -27t29 -71q0 -52 -29 -80t-76 -28q-30 0 -58.5 9.5t-56.5 20l-56 21t-57 10.5q-61 0 -104.5 -29.5t-69 -74t-37 -98.5t-11.5 -105q0 -177 81 -265.5t268 -88.5q98 0 194 33 t190.5 93t190.5 142.5t194 183.5v619q0 108 -30.5 164.5t-138.5 56.5h-37t-33 -2v61q146 39 276 76t256 86v-664q0 -17 2.5 -30t16.5 -13q12 0 29.5 12t22.5 19l173 190q138 155 238 252t170 146q133 89 265 88q35 0 71.5 -7.5t68 -23.5t51.5 -43t20 -63q0 -52 -44.5 -77.5 t-86.5 -25.5q-27 0 -51 8.5t-47.5 16.5t-48 17t-48.5 9q-76 0 -173 -69q-99 -76 -256 -258l-103 -120l541 -691q89 -116 165 -167q39 -24 78 -38t81 -14v-61h-739v61q42 0 71.5 5t46.5 10q39 9 39 34q0 38 -24.5 74.5t-44.5 59.5l-416 518l-68 -74v-688h-293v394 q-81 -76 -170.5 -153t-191.5 -138t-217.5 -100.5t-250.5 -39.5q-131 0 -239 29.5t-185.5 86.5t-122 140t-44.5 191zM2952 1745v25h85v-25h-26v-91h-28v91h-31zM3048 1654h24l5 79h2l23 -79h24l25 79h3l4 -79h24l-9 116h-30l-27 -86h-2l-28 86h-28z" />
<glyph horiz-adv-x="9936" d="M199 0v1634q71 3 141 8q58 4 125.5 6.5t124.5 2.5q228 0 350 -97t122 -330q0 -148 -58 -236t-129 -118q35 -12 75 -35.5t73.5 -66.5t56 -110.5t22.5 -165.5q0 -145 -34 -243.5t-95 -157.5t-151 -83.5t-203 -24.5q-73 0 -148 1.5t-136 5.5q-71 5 -136 10zM401 164 q39 -2 80 -4q35 -3 78 -4t79 -1q57 0 103.5 12.5t81.5 46.5t53 96.5t18 165.5q0 150 -54 224t-198 74h-241v-610zM401 943h218q45 0 88 6.5t77 32.5t55 79t21 146q0 73 -10 125t-37 85t-73 49t-121 16q-42 0 -82 -2.5t-70 -4.5q-37 -3 -66 -5v-527zM1440 22v172 q14 -4 52.5 -11t89 -13t104.5 -10.5t103 -4.5q103 0 168.5 83.5t65.5 233.5q0 100 -18.5 167t-52 104.5t-80 54t-104.5 16.5h-303v820h1541v-1460h341.5t247.5 1t168.5 1h105.5q147 0 194.5 71.5t47.5 207.5q0 81 -8.5 140t-35.5 97t-75 55t-129 17h-238v170h216 q89 0 138 31.5t72.5 77t28.5 95t5 84.5q0 138 -66.5 198t-155.5 60q-40 0 -86 -4t-93 -10t-89 -13.5t-66 -12.5v169q10 3 47 9.5t84.5 13.5t100.5 13t97 6q91 0 168.5 -22t134 -73.5t90 -138.5t33.5 -218q0 -118 -41 -212.5t-137 -123.5q116 -17 161.5 -114t45.5 -270 q0 -131 -28.5 -223t-83.5 -148t-137 -82t-193 -26h-1371v174h307v1291h-1146v-482h93q254 0 360.5 -117.5t106.5 -371.5q0 -145 -33 -243.5t-91.5 -157t-139.5 -84.5t-177 -26q-92 0 -189 14.5t-151 24.5zM4697 0v1634q68 3 139 8q61 4 131.5 6.5t132.5 2.5q133 0 231 -29.5 t163.5 -116.5t97 -246t31.5 -417q0 -260 -30.5 -427t-92.5 -263t-155 -132.5t-219 -36.5q-68 0 -143 1.5t-139 5.5q-75 5 -147 10zM4901 162q42 -2 85 -5q37 -2 81.5 -2h81.5q61 0 111.5 33t83.5 110.5t51.5 206.5t18.5 321q0 208 -18.5 337t-52.5 199.5t-82 94t-109 23.5 q-35 0 -77 -1.5t-81 -3.5q-44 -3 -93 -5v-1308zM5905 1199q0 125 38.5 211t103.5 140t153.5 77.5t189.5 23.5q30 0 65.5 -2.5t73 -8.5t72.5 -12t59 -13v-170q-59 14 -144.5 24.5t-148.5 10.5q-44 0 -89 -14t-81 -44.5t-59.5 -78.5t-23.5 -117q0 -70 11.5 -117t36 -77.5 t62.5 -49t94 -28.5q84 -17 155.5 -48t123 -86.5t81 -141.5t29.5 -214q0 -145 -36.5 -238t-101 -147.5t-154 -75t-192.5 -20.5q-30 0 -68.5 2.5t-78.5 7.5t-79.5 12t-68.5 14v171q54 -15 138.5 -25t178.5 -10q122 0 188.5 70t66.5 218q0 84 -16 139.5t-43 91.5t-67 56t-87 30 q-96 19 -168.5 52.5t-119.5 85t-70.5 125t-23.5 176.5zM6990 0v234h233v-234h-233zM7007 487v1147h199v-1147h-199zM7549 842q0 258 37.5 417t108.5 246t177 116.5t242 29.5q30 0 70 -3.5t80 -8.5t77 -11t59 -10v-168q-73 14 -162 22t-164 8q-76 0 -134 -22.5t-99 -92.5 t-61.5 -199t-20.5 -340q0 -221 19.5 -352.5t56.5 -203t91 -93.5t122 -22q40 0 100 4.5t107 9.5v519h-207v172h401v-838q-93 -17 -194 -28t-197 -11q-133 0 -229.5 36.5t-158 132.5t-91.5 263t-30 427zM8810 0v1634h192l545 -1182v1182h190v-1634h-192l-545 1182v-1182h-190z " />
</font>
</defs>
</svg>
