<?xml version="1.0" standalone="no"?>
<!DOCTYPE svg PUBLIC "-//W3C//DTD SVG 1.1//EN" "http://www.w3.org/Graphics/SVG/1.1/DTD/svg11.dtd" >
<svg xmlns="http://www.w3.org/2000/svg" xmlns:xlink="http://www.w3.org/1999/xlink" version="1.1">
<metadata></metadata>
<defs>
<font id="karnvaylabold" horiz-adv-x="0" >
<font-face units-per-em="2048" ascent="1655" descent="-393" />
<missing-glyph horiz-adv-x="606" />
<glyph unicode="&#xe2f;&#xe2f;" horiz-adv-x="1444" d="M82 1153q0 52 7 95.5t19 73.5h265q-12 -39 -19 -72t-7 -75q0 -35 24.5 -56t73.5 -21q45 0 76.5 21t56 54.5t40.5 72.5t29 76h221v-1322h-266v966q-12 -10 -31.5 -26t-49 -31t-66.5 -26t-84 -11q-141 0 -215 71.5t-74 209.5zM1039 0v1322h258v-1322h-258z" />
<glyph unicode="&#xe4f;&#x22;" horiz-adv-x="1344" d="M122 626q0 162 46 280.5t122 196t175.5 114t207.5 36.5q106 0 205.5 -36.5t175.5 -114t122 -196t46 -280.5t-46 -280t-122 -195.5t-175.5 -114t-205.5 -36.5q-108 0 -207.5 36.5t-175.5 114t-122 195.5t-46 280zM312 626q0 -231 99.5 -345t261.5 -114q157 0 255.5 114 t98.5 345q0 232 -98.5 346t-255.5 114q-162 0 -261.5 -114t-99.5 -346zM484 626q0 134 54.5 192.5t132.5 58.5q79 0 133 -58.5t54 -192.5q0 -120 -55 -178.5t-132 -58.5q-76 0 -131.5 58.5t-55.5 178.5z" />
<glyph unicode="&#xe24;&#xe32;" horiz-adv-x="2078" d="M96 1015v132q54 40 119 77t135 65.5t145 45t149 16.5q239 0 356.5 -115t117.5 -319v-1360h-265v1360q0 96 -44.5 152.5t-164.5 56.5q-96 0 -165 -27t-113 -50v-10l59 -61v-708q0 -40 11.5 -50.5t32.5 -10.5q19 0 42.5 3.5t39.5 8.5v-199q-37 -12 -77 -20.5t-96 -8.5 q-47 0 -86 12t-68.5 43t-46.5 84t-17 136v691zM1194 1084v216q24 7 63.5 16t84 15t89 10.5t75.5 4.5q216 0 321 -106.5t105 -345.5v-1334h-271v1332q0 124 -40.5 176.5t-136.5 52.5q-32 0 -72 -3.5t-81 -9.5t-77.5 -13t-59.5 -11z" />
<glyph unicode="&#xe26;&#xe32;" horiz-adv-x="2078" d="M35 22v194q37 -12 80 -12q24 0 39 15t15 53v682l-73 61v132q54 40 119 77t135 65.5t145 45t149 16.5q239 0 356.5 -115t117.5 -319v-1360h-265v1360q0 96 -44.5 157t-164.5 61q-86 0 -160 -28t-118 -50v-11l74 -75v-699q0 -84 -19.5 -137t-51.5 -85.5t-74 -44.5t-86 -12 q-59 0 -98.5 8.5t-75.5 20.5zM1194 1084v216q24 7 63.5 16t84 15t89 10.5t75.5 4.5q216 0 321 -106.5t105 -345.5v-1334h-271v1332q0 124 -40.5 176.5t-136.5 52.5q-32 0 -72 -3.5t-81 -9.5t-77.5 -13t-59.5 -11z" />
<glyph unicode="fi" horiz-adv-x="1334" d="M49 946v222h145v115q0 89 21 156t67.5 115t124 72.5t191.5 24.5q37 0 88 -2.5t105.5 -6t103 -9.5t83.5 -11v-226q-37 4 -88.5 9.5t-103.5 9t-97 5t-75 1.5q-51 0 -80.5 -8t-44.5 -22.5t-17.5 -36.5t-2.5 -54v-132h694v-1168h-276v946h-418v-946h-275v946h-145z" />
<glyph unicode="fl" horiz-adv-x="1348" d="M54 946v222h140v103q0 182 94.5 281t306.5 99q45 0 92 -3.5t91.5 -8.5t82 -9.5t58.5 -7.5l226 12v-1354q0 -35 13.5 -47t40.5 -12q19 0 42 2.5t47 8.5v-210q-30 -10 -74 -19.5t-110 -9.5q-40 0 -82 13t-76 46.5t-56 90t-22 143.5v1112q-45 7 -106 13.5t-152 6.5 q-80 0 -110.5 -31t-30.5 -99v-120h204v-222h-204v-946h-275v946h-140z" />
<glyph unicode=" "  horiz-adv-x="606" />
<glyph unicode="&#x09;" horiz-adv-x="606" />
<glyph unicode="&#xa0;" horiz-adv-x="606" />
<glyph unicode="!" horiz-adv-x="582" d="M131 0v302h301v-302h-301zM145 474v1160h270v-1160h-270z" />
<glyph unicode="&#x22;" horiz-adv-x="994" d="M136 1435v244h291v-244l-47 -378h-198zM568 1435v244h292v-244l-49 -378h-197z" />
<glyph unicode="#" horiz-adv-x="1194" d="M68 403l21 233h157l34 374h-155l23 233h152l37 391h256l-35 -391h160l37 391h255l-37 -391h153l-20 -233h-154l-38 -374h155l-20 -233h-151l-38 -403h-258l36 403h-157l-38 -403h-256l36 403h-155zM499 636h162l35 374h-163z" />
<glyph unicode="$" horiz-adv-x="1189" d="M157 1140q0 103 24.5 173.5t65.5 117t94 75t109 44.5v269h244v-234q63 -5 126.5 -17.5t120.5 -29.5v-241q-37 10 -81 17.5t-87 12.5t-81 8.5t-66 3.5q-34 0 -68.5 -4.5t-61.5 -22t-44.5 -53t-17.5 -96.5q0 -57 11.5 -95t32.5 -63t50.5 -37t66.5 -19q84 -17 156 -44.5 t126 -80t83.5 -137.5t29.5 -218q0 -115 -24.5 -195t-65 -131.5t-93 -79.5t-111.5 -46v-275h-244v246q-68 5 -137 15.5t-133 28.5v240q33 -9 75.5 -16.5t88 -13.5t90.5 -10t82 -4q92 0 143.5 47t51.5 175q0 73 -14 116.5t-37.5 66.5t-52.5 33t-61 14q-91 17 -163.5 52 t-123 90t-77.5 133.5t-27 184.5z" />
<glyph unicode="%" horiz-adv-x="2083" d="M197 1165q0 113 14.5 204t54 153.5t103 95.5t164.5 33t167.5 -33t104 -95.5t54 -153.5t16.5 -204t-16.5 -205t-54 -157.5t-104 -101t-167.5 -35.5t-164.5 35.5t-103 101t-54 157.5t-14.5 205zM430 1158q0 -86 5 -141.5t17 -87t32 -43t49 -11.5q30 0 51 12.5t34 43 t18.5 86t5.5 141.5t-5.5 141t-18.5 86t-34 43t-51 12t-49.5 -12t-31.5 -43t-17 -86.5t-5 -140.5zM642 0l572 1634h236l-573 -1634h-235zM1207 484q0 112 15.5 202t54 153t103.5 96t166 33q100 0 167 -33t104.5 -96t54 -153t16.5 -202q0 -113 -16.5 -205t-54 -158.5 t-104.5 -102t-167 -35.5q-101 0 -166 35.5t-103.5 102t-54 158.5t-15.5 205zM1440 476q0 -86 5 -141t18.5 -87t33.5 -43t49 -11q30 0 51 12t33 43t18 86t6 141q0 87 -6 142t-18 85.5t-33 43.5t-51 13t-49.5 -13t-33 -43.5t-18.5 -85.5t-5 -142z" />
<glyph unicode="&#x26;" horiz-adv-x="1184" d="M122 506q0 197 57 299t150 149q-66 37 -121.5 114t-55.5 191q0 117 34.5 193.5t94 121t139 61t173.5 16.5q81 0 149.5 -14.5t105.5 -27.5v-228q-16 5 -46 11t-65.5 12.5t-75 10t-74.5 3.5q-64 0 -114.5 -33.5t-50.5 -131.5q0 -76 28.5 -136t109.5 -60h551v-222h-180v-818 q-103 -17 -196 -24t-196 -7q-204 0 -310.5 126.5t-106.5 393.5zM396 487q0 -133 39.5 -201t103.5 -68q81 0 137 14v603h-148q-86 0 -109 -95.5t-23 -252.5z" />
<glyph unicode="'" horiz-adv-x="561" d="M136 1435v244h291v-244l-47 -378h-195z" />
<glyph unicode="(" horiz-adv-x="746" d="M91 814q0 309 66 585.5t229 514.5h256q-150 -258 -220 -525.5t-70 -574.5q0 -308 70 -572t220 -522h-256q-162 239 -228.5 509t-66.5 585z" />
<glyph unicode=")" horiz-adv-x="746" d="M79 -280q153 258 221 522t68 572q0 307 -68 574.5t-221 525.5h258q160 -239 226 -515t66 -585q0 -315 -66 -585.5t-226 -508.5h-258z" />
<glyph unicode="*" horiz-adv-x="1164" d="M94 1238l91 266l282 -116l-27 308h287l-26 -310l289 113l82 -263l-293 -61l211 -246l-230 -167l-180 287l-184 -287l-227 172l214 241z" />
<glyph unicode="+" horiz-adv-x="1282" d="M185 619v227h326v348h258v-348h327v-227h-327v-351h-258v351h-326z" />
<glyph unicode="," horiz-adv-x="535" d="M28 -347l99 347v260h305v-260l-174 -347h-230z" />
<glyph unicode="-" horiz-adv-x="1154" d="M174 619v227h806v-227h-806z" />
<glyph unicode="." horiz-adv-x="535" d="M108 0v302h302v-302h-302z" />
<glyph unicode="/" horiz-adv-x="758" d="M-32 -258l546 2148h255l-543 -2148h-258z" />
<glyph unicode="0" horiz-adv-x="1189" d="M115 828q0 202 22.5 355.5t77.5 258t147.5 157t235.5 52.5q142 0 234 -52.5t146 -157t76 -258t22 -355.5q0 -209 -22 -367.5t-76 -264t-147.5 -158t-232.5 -52.5q-143 0 -235.5 52.5t-147.5 158t-77.5 264t-22.5 367.5zM391 826q0 -322 49.5 -461t157.5 -139t156 139 t48 461q0 164 -13 277.5t-37.5 180.5t-62 97t-91.5 30t-92.5 -30t-64.5 -97t-38 -180.5t-12 -277.5z" />
<glyph unicode="1" horiz-adv-x="1189" d="M185 1278v236l321 120h266v-1398h236v-236h-799v236h285v1143z" />
<glyph unicode="2" horiz-adv-x="1189" d="M172 0v241l412 523q42 52 74 100t54 99.5t33.5 113t11.5 145.5q0 81 -51.5 135t-135.5 54q-35 0 -82.5 -5.5t-97.5 -12.5t-97 -14t-79 -15v238q9 2 50 11t95 17.5t110.5 14.5t100.5 6q216 0 339 -112.5t123 -337.5q0 -89 -11 -158.5t-36.5 -133t-65 -127.5t-98.5 -138 l-312 -403h501v-241h-838z" />
<glyph unicode="3" horiz-adv-x="1189" d="M185 30v240q30 -7 73.5 -14.5t93 -13.5t101 -11t93.5 -5q199 0 199 231q0 64 -7.5 114.5t-30 86.5t-61.5 54t-100 18h-260v236h237q69 0 108.5 28t59 66t24.5 80t5 70q0 110 -48 155.5t-119 45.5q-93 0 -191.5 -15t-169.5 -32v248q24 2 66 10t91 14t102 10.5t100 4.5 q93 0 174 -22t141 -76t94.5 -142.5t34.5 -221.5q0 -71 -17 -123.5t-44 -93.5t-61.5 -66.5t-70.5 -40.5q39 -14 79.5 -36.5t71 -65.5t50 -111t19.5 -173q0 -138 -35 -231t-99.5 -152t-150 -84.5t-189.5 -25.5q-58 0 -114 4.5t-105 12t-86 14.5t-58 13z" />
<glyph unicode="4" horiz-adv-x="1189" d="M136 337v226l235 1071h267l-218 -1064h241l19 504h256v-504h155v-233h-155v-337h-275v337h-525z" />
<glyph unicode="5" horiz-adv-x="1189" d="M206 30v245q24 -7 65 -15.5t91.5 -16t103 -12.5t99.5 -5q106 0 148 71t42 197q0 82 -15 135.5t-41 84.5t-61.5 43t-79.5 12h-330v865h760v-234h-484v-390h54q260 0 367 -123t107 -378q0 -148 -32 -248.5t-93 -160.5t-147.5 -87t-191.5 -27q-47 0 -98.5 3.5t-101 10.5 t-92 14.5t-70.5 15.5z" />
<glyph unicode="6" horiz-adv-x="1189" d="M127 863q0 243 44.5 397t119.5 241t173.5 118.5t206.5 31.5q39 0 83.5 -3.5t86 -9.5t77.5 -13t55 -16v-240q-68 17 -160.5 31t-160.5 14q-50 0 -93 -19t-76 -65.5t-54 -125t-26 -198.5q49 16 109 28t122 12q130 0 215 -36.5t134 -105.5t69 -167.5t20 -218.5 q0 -152 -41 -254t-107 -163t-152.5 -88t-178.5 -27q-113 0 -200.5 30.5t-146.5 125t-89 266.5t-30 455zM401 767q2 -177 15.5 -284t39 -163.5t60.5 -75t77 -18.5q98 0 149.5 70t51.5 203q0 162 -39.5 234.5t-135.5 72.5q-63 0 -124 -13.5t-94 -25.5z" />
<glyph unicode="7" horiz-adv-x="1189" d="M182 1403v234h848v-221l-455 -1416h-287l469 1403h-575z" />
<glyph unicode="8" horiz-adv-x="1189" d="M103 484q0 81 16.5 141t42 103.5t57.5 71.5t67 51q-62 44 -106 125t-44 208q0 134 36.5 223t99.5 143t146.5 77.5t179.5 23.5q93 0 176.5 -23.5t146 -77.5t99.5 -143t37 -223q0 -103 -34.5 -180.5t-108.5 -126.5q84 -49 128 -136.5t44 -256.5q0 -500 -488 -498 q-495 0 -495 498zM378 462q0 -136 58 -190t162 -54q100 0 156.5 54t56.5 190q0 148 -71.5 218t-240.5 72q-37 -19 -60.5 -44t-36.5 -58t-18.5 -80t-5.5 -108zM406 1205q0 -125 72.5 -183t209.5 -61q56 28 76 96.5t20 147.5q0 110 -43 161.5t-143 51.5q-104 0 -148 -55 t-44 -158z" />
<glyph unicode="9" horiz-adv-x="1189" d="M118 1153q0 138 40.5 232.5t108.5 153t153.5 85.5t174.5 27q118 0 206 -34t146.5 -125.5t86.5 -249.5t28 -407q0 -275 -39.5 -442t-110 -258t-165.5 -120t-212 -29q-35 0 -77.5 3.5t-82.5 9.5t-77.5 13t-61.5 16v244q64 -16 153.5 -31t168.5 -15q52 0 92 21t69 69 t43 126.5t17 195.5q-49 -16 -109 -28t-119 -12q-125 0 -208 35t-133 105.5t-71 173.5t-21 241zM391 1135q0 -159 40.5 -232t133.5 -73q64 0 124.5 15t94.5 27q-3 180 -15 287t-35.5 162t-60.5 72.5t-86 17.5q-94 0 -145 -71.5t-51 -204.5z" />
<glyph unicode=":" horiz-adv-x="596" d="M148 0v302h302v-302h-302zM148 863v305h302v-305h-302z" />
<glyph unicode=";" horiz-adv-x="596" d="M47 -347l101 349v258h302v-260l-173 -347h-230zM148 863v305h302v-305h-302z" />
<glyph unicode="&#x3c;" horiz-adv-x="1282" d="M187 624v278l909 428v-293l-606 -268l606 -267v-298z" />
<glyph unicode="=" horiz-adv-x="1282" d="M187 378v234h909v-234h-909zM187 826v234h909v-234h-909z" />
<glyph unicode="&#x3e;" horiz-adv-x="1282" d="M187 204v298l619 267l-619 268v293l909 -428v-278z" />
<glyph unicode="?" horiz-adv-x="840" d="M49 1379v230q28 7 64.5 15t75.5 14t77.5 9.5t68.5 3.5q98 0 178 -15.5t135 -60t84.5 -123.5t29.5 -206q0 -69 -6 -114.5t-24.5 -85.5t-53 -86t-91.5 -114l-103 -126v-233h-273v319l141 165q46 54 73 89.5t41.5 65.5t19 61.5t4.5 78.5q0 82 -36 117t-100 35 q-30 0 -68 -3.5t-81 -10t-83 -12.5t-73 -13zM197 0v283h302v-283h-302z" />
<glyph unicode="@" horiz-adv-x="1902" d="M174 804q0 450 195.5 648.5t571.5 198.5q383 0 572.5 -177t189.5 -564q0 -134 -15.5 -243t-55.5 -189t-109 -124t-172 -44q-110 0 -164 49t-76 125q-14 -24 -31.5 -49t-44.5 -46t-65.5 -33t-89.5 -12q-59 0 -113 18t-97.5 67.5t-69 134.5t-25.5 217q0 133 27 221.5 t82 141t136.5 76t189.5 23.5q64 0 145 -12t133 -32v-599q0 -44 15 -60.5t34 -16.5q24 0 45 14t37 54t24.5 116.5t8.5 202.5q0 145 -24.5 244t-83.5 160.5t-157.5 88.5t-245.5 27q-138 0 -236 -28t-161 -100.5t-91 -193t-28 -304.5q0 -176 24.5 -293t81 -186t149 -96 t230.5 -27q34 0 88 2t109.5 4.5t104.5 5t76 4.5v-208q-35 -5 -81.5 -10t-98 -9.5t-104 -7t-94.5 -2.5q-389 0 -562.5 205t-173.5 618zM816 788q0 -73 8.5 -116t23.5 -64t37 -27t49 -6q70 0 94 39.5t24 73.5v356q-7 2 -24.5 2h-24.5q-42 0 -75.5 -9.5t-59.5 -37.5t-39 -78.5 t-13 -132.5z" />
<glyph unicode="A" horiz-adv-x="1228" d="M30 0l427 1634h327l415 -1634h-289l-94 394h-396l-98 -394h-292zM474 638h286l-143 677z" />
<glyph unicode="B" horiz-adv-x="1240" d="M176 2v1630q80 5 159 10q66 4 138.5 6.5t128.5 2.5q242 0 371 -102t129 -348q0 -140 -55 -220.5t-149 -110.5q96 -19 170 -111.5t74 -256.5q0 -153 -34 -252.5t-100.5 -158.5t-162 -83.5t-216.5 -24.5q-71 0 -151 2.5t-147 7.5q-81 5 -155 9zM464 236q35 -2 86.5 -5 t98.5 -3q94 0 148 53t54 203q0 120 -42 184t-157 64h-188v-496zM464 968h165q35 0 68 7.5t60 31t43 66.5t16 114q0 113 -35.5 165.5t-151.5 52.5q-24 0 -51 -1t-55 -4q-30 -2 -59 -4v-428z" />
<glyph unicode="C" horiz-adv-x="1021" d="M98 842q0 258 37 417t108 246t177 116.5t244 29.5q73 0 154.5 -12t142.5 -30v-242q-37 9 -81.5 16.5t-88 12t-85.5 7t-75 2.5q-59 0 -104.5 -20.5t-75 -82t-43.5 -175.5t-14 -301q0 -195 16.5 -311.5t48 -180.5t77.5 -85t106 -21q35 0 78.5 5.5t88 11.5t85 13t67.5 14 v-240q-24 -4 -64.5 -13t-85 -16.5t-88 -13.5t-71.5 -6q-141 0 -245.5 36.5t-172 132.5t-102 263t-34.5 427z" />
<glyph unicode="D" horiz-adv-x="1260" d="M176 2v1630q82 5 161 10q66 4 141 6.5t134 2.5q138 0 241 -29.5t171.5 -116.5t103.5 -246t35 -417q0 -260 -32.5 -427t-97.5 -263t-163 -132.5t-234 -36.5q-66 0 -144.5 2.5t-149.5 7.5q-82 5 -166 9zM467 234q35 -2 89 -4t105 -2q49 0 88 30t65 99.5t40 184t14 284.5 q0 184 -14 297t-40 176t-63.5 84.5t-86.5 21.5q-33 0 -67 -1t-64 -4q-35 -2 -66 -2v-1164z" />
<glyph unicode="E" horiz-adv-x="1142" d="M176 0v1634h856v-234h-565v-432h506v-234h-506v-500h565v-234h-856z" />
<glyph unicode="F" horiz-adv-x="1105" d="M176 0v1634h856v-234h-565v-459h506v-233h-506v-708h-291z" />
<glyph unicode="G" horiz-adv-x="1206" d="M98 842q0 258 38 417t114 246t186 116.5t254 29.5q30 0 72 -3.5t89 -9.5t89.5 -13t72.5 -16v-242q-103 17 -200.5 27.5t-163.5 10.5q-61 0 -109 -20.5t-80.5 -82t-49 -175.5t-16.5 -301q0 -195 15.5 -312.5t45 -180.5t72.5 -84t99 -21q28 0 70.5 3t84.5 8v429h-201v234 h480v-874q-106 -20 -216 -32.5t-206 -12.5q-142 0 -243.5 36.5t-168 132.5t-97.5 263t-31 427z" />
<glyph unicode="H" horiz-adv-x="1348" d="M176 0v1634h288v-682h418v682h290v-1634h-290v718h-418v-718h-288z" />
<glyph unicode="I" horiz-adv-x="798" d="M98 0v221h158v1193h-158v220h603v-220h-160v-1193h160v-221h-603z" />
<glyph unicode="J" horiz-adv-x="967" d="M73 14v244q64 -12 131.5 -21t117.5 -9q46 0 83.5 11.5t63 45.5t37.5 96t12 165v854h-312v234h603v-1076q0 -169 -29.5 -281.5t-89 -177t-147.5 -90.5t-206 -26q-24 0 -57.5 2.5t-69.5 7.5t-71.5 11t-65.5 10z" />
<glyph unicode="K" horiz-adv-x="1218" d="M176 0v1634h288v-579l399 579h319l-506 -729l518 -905h-324l-368 661l-38 -51v-610h-288z" />
<glyph unicode="L" horiz-adv-x="1002" d="M176 0v1634h288v-1400h526v-234h-814z" />
<glyph unicode="M" horiz-adv-x="1501" d="M176 0v1634h258l321 -693l297 693h273v-1634h-276v1049l-233 -501h-140l-228 504v-1052h-272z" />
<glyph unicode="N" horiz-adv-x="1365" d="M176 0v1634h262l474 -987v987h277v-1634h-228l-509 1020v-1020h-276z" />
<glyph unicode="O" horiz-adv-x="1274" d="M98 835q0 204 27 357.5t89.5 255.5t167.5 152.5t256 50.5q153 0 256 -50.5t166 -152.5t90 -255.5t27 -357.5q0 -213 -27 -373t-90 -266.5t-166 -159.5t-256 -53q-152 0 -256.5 53t-167 159.5t-89.5 266.5t-27 373zM391 823q0 -169 14.5 -283.5t44 -183t76 -98.5 t112.5 -30q64 0 111.5 30t78 98.5t45 183t14.5 283.5q0 174 -14.5 287.5t-45 178.5t-77.5 90.5t-112 25.5q-66 0 -112.5 -25.5t-76 -90.5t-44 -178.5t-14.5 -287.5z" />
<glyph unicode="P" horiz-adv-x="1198" d="M176 0v1632q76 5 155 10q66 4 145.5 6.5t149.5 2.5q141 0 235.5 -40t150 -110.5t79 -166.5t23.5 -206q0 -138 -26 -240t-82.5 -169t-150 -102t-226.5 -35h-165v-582h-288zM464 828h174q40 0 73.5 14t58 45.5t38 85.5t13.5 138q0 145 -35.5 219.5t-131.5 74.5 q-30 0 -63 -1t-61 -4q-32 -2 -66 -4v-568z" />
<glyph unicode="Q" horiz-adv-x="1274" d="M98 835q0 204 27 357.5t91 255.5t167.5 152.5t258.5 50.5q150 0 252.5 -50.5t165.5 -152.5t90 -255.5t27 -357.5q0 -120 -16 -237t-45.5 -216t-74 -172.5t-98.5 -111.5l258 -16v-286l-567 187q-153 0 -256 54t-165.5 161t-88.5 265.5t-26 371.5zM391 823 q0 -164 14.5 -278.5t45 -184.5t77.5 -101t114 -31q61 0 108 31t77.5 101t45 184.5t14.5 278.5q0 169 -14.5 281.5t-45 179.5t-77.5 94t-108 27q-66 0 -113.5 -27t-78 -94t-45 -179.5t-14.5 -281.5z" />
<glyph unicode="R" horiz-adv-x="1252" d="M176 0v1632q74 5 155 10q66 4 146.5 6.5t151.5 2.5q140 0 233.5 -35.5t149 -100.5t79 -156t23.5 -203q0 -192 -56.5 -303t-189.5 -159l274 -694h-307l-225 638h-143v-638h-291zM467 882h175q37 0 70 11.5t57.5 41t39 78t14.5 127.5q0 140 -36.5 202.5t-132.5 62.5 q-28 0 -61 -1t-60 -4l-66 -4v-514z" />
<glyph unicode="S" horiz-adv-x="1058" d="M98 1182q0 131 41 220.5t109.5 144.5t162 79.5t199.5 24.5q86 0 163.5 -13t143.5 -31v-245q-79 19 -162.5 31t-170.5 12q-86 0 -142 -45t-56 -153q0 -59 8.5 -98.5t31 -63t59 -38.5t90.5 -27q89 -19 161.5 -48.5t121.5 -82t76 -139.5t27 -220q0 -153 -39.5 -250 t-108 -154.5t-162 -80t-203.5 -22.5q-94 0 -176 12t-154 33v244q68 -16 159 -30t192 -14q94 0 146.5 54.5t52.5 186.5q0 73 -10.5 120t-33 76t-53 43t-69.5 22q-104 21 -180 54.5t-125 85.5t-74 128t-25 184z" />
<glyph unicode="T" horiz-adv-x="1004" d="M12 1400v234h980v-234h-348v-1400h-285v1400h-347z" />
<glyph unicode="U" horiz-adv-x="1336" d="M176 467v1167h288v-1191q0 -103 54 -159t155 -56q96 0 149 56t53 159v1191h285v-1167q0 -249 -127.5 -366.5t-359.5 -117.5q-236 0 -366.5 117.5t-130.5 366.5z" />
<glyph unicode="V" horiz-adv-x="1179" d="M49 1634h295l243 -1209l255 1209h288l-393 -1634h-319z" />
<glyph unicode="W" horiz-adv-x="1459" d="M73 1634h279l112 -1032l174 659h185l178 -656l113 1029h272l-199 -1634h-249l-213 748l-221 -748h-234z" />
<glyph unicode="X" horiz-adv-x="1225" d="M40 0l417 840q-47 91 -95 193t-96 205.5t-96 204t-94 191.5h315l228 -536l237 536h309l-391 -794q47 -98 101 -206t106.5 -217.5t105.5 -216t100 -200.5h-322l-248 598l-263 -598h-314z" />
<glyph unicode="Y" horiz-adv-x="1282" d="M37 1634h319l288 -616l294 616h308l-462 -886v-748h-292v748z" />
<glyph unicode="Z" horiz-adv-x="1086" d="M86 0v218l597 1182h-545v234h863v-218l-598 -1182h575v-234h-892z" />
<glyph unicode="[" horiz-adv-x="823" d="M199 -280v2194h509v-247h-244v-1699h244v-248h-509z" />
<glyph unicode="\" horiz-adv-x="771" d="M-30 1890h264l568 -2148h-263z" />
<glyph unicode="]" horiz-adv-x="820" d="M115 -32h244v1699h-244v247h509v-2194h-509v248z" />
<glyph unicode="^" horiz-adv-x="1137" d="M71 980l367 821h272l350 -821h-291l-197 549l-216 -549h-285z" />
<glyph unicode="_" horiz-adv-x="1189" d="M7 -221h1177v-246h-1177v246z" />
<glyph unicode="`" horiz-adv-x="706" d="M118 1733h334l278 -379h-268z" />
<glyph unicode="a" horiz-adv-x="1110" d="M98 354q0 192 112 276.5t323 84.5h133v111q0 63 -29.5 94.5t-95.5 31.5q-98 0 -182 -16.5t-179 -43.5v236q76 22 168 39t178 17q120 0 199 -23t127 -73.5t67 -127t19 -179.5v-471q0 -99 99 -99v-211h-73q-101 0 -160 49t-79 113q-24 -79 -99 -127.5t-201 -48.5 q-160 0 -243.5 104t-83.5 264zM376 361q0 -143 138 -143q44 0 72 15t47 38.5t26 50.5t7 51v133h-145q-57 0 -101 -29t-44 -116z" />
<glyph unicode="b" horiz-adv-x="1166" d="M172 17v1617h278v-550q32 39 86 69.5t137 30.5q199 0 285 -133.5t86 -396.5q0 -190 -26 -319t-87 -207.5t-159.5 -111.5t-243.5 -33q-86 0 -175.5 11t-180.5 23zM450 214q19 -3 45 -5.5t56 -2.5q66 0 108 28.5t64 82.5t30.5 132.5t8.5 179.5q0 96 -7 159t-24.5 98.5 t-46 50.5t-70.5 15q-70 0 -117 -46t-47 -102v-590z" />
<glyph unicode="c" horiz-adv-x="933" d="M122 605q0 312 119.5 445.5t342.5 133.5q80 0 150 -12t126 -30v-223q-61 15 -128.5 24t-154.5 9q-89 0 -131.5 -86.5t-42.5 -302.5q0 -108 12 -176t35.5 -105.5t56 -51.5t70.5 -14q40 0 70.5 1t61 5t66.5 10.5t85 18.5v-227q-61 -19 -131 -30t-142 -11 q-108 0 -192.5 22.5t-146 88.5t-94 189t-32.5 322z" />
<glyph unicode="d" horiz-adv-x="1171" d="M122 544q0 342 118.5 491t381.5 149q27 0 56.5 -4.5t46.5 -4.5v459h276v-1634h-210l-24 113q-33 -47 -90.5 -88.5t-162.5 -41.5q-209 0 -300.5 141t-91.5 420zM401 551q0 -190 40 -262.5t124 -72.5q40 0 69.5 15t50.5 39.5t30.5 53t9.5 56.5v574q-37 7 -101 7 q-131 0 -177 -102t-46 -308z" />
<glyph unicode="e" horiz-adv-x="1102" d="M122 582q0 322 119.5 462t340.5 140q214 0 306 -135t92 -369v-190h-579q0 -84 12 -137t34 -83.5t52.5 -42t72.5 -11.5q89 0 173.5 15t148.5 29v-230q-68 -19 -153 -33t-161 -14q-116 0 -201.5 26t-142 93t-85.5 183t-29 297zM403 701h310v21q0 120 -31.5 175t-101.5 55 q-92 0 -131 -53t-46 -198z" />
<glyph unicode="f" horiz-adv-x="739" d="M49 946v222h145v150q0 159 88.5 246t233.5 87q127 0 253 -29v-213q-49 9 -102 15t-109 6q-49 0 -69 -25.5t-20 -65.5v-171h265v-222h-265v-946h-275v946h-145z" />
<glyph unicode="g" horiz-adv-x="1231" d="M136 769q0 131 39 212t108 126.5t158 61t190 15.5q54 0 116 -12t111 -34l317 32v-256l-165 29q28 -32 46 -77t18 -99q0 -207 -117 -307.5t-370 -100.5q-30 0 -65 3.5t-60 8.5q-10 -10 -20 -31t-10 -45q0 -30 12.5 -49.5t27.5 -19.5q56 0 120 7.5t123 7.5q91 0 165 -13.5 t125.5 -51.5t78.5 -107t27 -177q0 -91 -36 -156t-99.5 -105.5t-150 -60.5t-183.5 -20q-145 0 -262 14t-190 33v234q103 -19 232 -33t237 -14q98 0 136 26t38 84q0 69 -30.5 98.5t-108.5 29.5q-74 0 -149.5 -10t-146.5 -10q-79 0 -141.5 68t-62.5 186q0 75 23.5 123t47.5 81 q-56 49 -92.5 118t-36.5 191zM413 755q0 -71 37 -121t137 -50q47 0 85 8t66.5 27t44.5 56.5t16 96.5q0 70 -40.5 125t-146.5 55q-118 0 -158.5 -47t-40.5 -150z" />
<glyph unicode="h" horiz-adv-x="1184" d="M172 0v1634h278v-582q30 54 93.5 93t174.5 39q164 0 241.5 -97t77.5 -318v-769h-277v776q0 94 -26 138.5t-108 44.5q-84 0 -130 -54t-46 -133v-772h-278z" />
<glyph unicode="i" horiz-adv-x="643" d="M172 1414v279h300v-279h-300zM185 0v1168h277v-1168h-277z" />
<glyph unicode="j" horiz-adv-x="631" d="M-106 -192q50 -5 95.5 -8.5t89.5 -3.5q49 0 71 23.5t22 86.5v1262h278v-1252q0 -71 -17.5 -132t-55 -108t-102 -74t-157.5 -27q-101 0 -160 7q-35 5 -64 10v216zM160 1414v279h300v-279h-300z" />
<glyph unicode="k" horiz-adv-x="1110" d="M172 0v1634h278v-850l302 384h344l-400 -488l385 -680h-312l-260 497l-59 -67v-430h-278z" />
<glyph unicode="l" horiz-adv-x="652" d="M172 260v1374h278v-1354q0 -40 13 -52t41 -12q19 0 41.5 2.5t47.5 7.5v-204q-28 -10 -73.5 -19.5t-111.5 -9.5q-108 0 -172 66t-64 201z" />
<glyph unicode="m" horiz-adv-x="1693" d="M172 0v1168h201l23 -138q32 58 99.5 106t177.5 48q59 0 103.5 -14t76 -39t54 -56t36.5 -60q35 61 103 115t171 54q96 0 159.5 -25.5t102 -78.5t53 -132.5t14.5 -190.5v-757h-275v776q0 101 -24.5 142t-90.5 41q-76 0 -115.5 -44.5t-39.5 -112.5v-802h-276v776 q0 101 -26 142t-94 41q-76 0 -115.5 -48t-39.5 -117v-794h-278z" />
<glyph unicode="n" horiz-adv-x="1196" d="M172 0v1168h199l35 -138q34 51 104 102.5t186 51.5q167 0 260 -97t93 -318v-769h-277v776q0 106 -34.5 144.5t-111.5 38.5q-84 0 -130 -49.5t-46 -123.5v-786h-278z" />
<glyph unicode="o" horiz-adv-x="1122" d="M98 605q0 300 112 439.5t353 139.5q239 0 350.5 -139.5t111.5 -439.5q0 -185 -29.5 -304t-88.5 -190t-145 -99.5t-199 -28.5t-200.5 28.5t-146.5 99.5t-88.5 190t-29.5 304zM380 572q0 -103 10.5 -172t32.5 -111.5t56.5 -61t83.5 -18.5q98 0 138.5 79.5t40.5 283.5 q0 111 -8.5 186t-28.5 119.5t-55.5 63t-86.5 18.5q-54 0 -88.5 -18.5t-55.5 -63t-30 -119.5t-9 -186z" />
<glyph unicode="p" horiz-adv-x="1166" d="M172 -398v1566h224l22 -158q14 30 36 62t54.5 56.5t75 40t99.5 15.5q176 0 268.5 -137t92.5 -403q0 -189 -24.5 -317t-81 -204t-147 -108t-221.5 -32q-22 0 -61.5 5t-58.5 10v-396h-278zM450 216q44 -12 103 -12q66 0 107 27t64.5 80t30.5 131.5t7 179.5q0 180 -32 249.5 t-116 69.5q-37 0 -66.5 -14.5t-51.5 -38t-34 -50.5t-12 -50v-572z" />
<glyph unicode="q" horiz-adv-x="1171" d="M122 541q0 342 124.5 492.5t402.5 150.5q103 0 188 -10.5t164 -28.5v-1543h-276v494q-22 -42 -80 -77.5t-155 -35.5q-177 0 -272.5 134t-95.5 424zM406 544q0 -101 8 -165.5t28 -99.5t49.5 -49t71.5 -14q39 0 70 15t50.5 37t30.5 49t11 49v588q-19 5 -44 7.5t-57 2.5 q-125 0 -171.5 -102t-46.5 -318z" />
<glyph unicode="r" horiz-adv-x="814" d="M172 0v1168h222l21 -148q22 64 79 114t137 50q40 0 70.5 -3.5t72.5 -15.5v-251q-35 8 -65.5 10t-86.5 2q-87 0 -129.5 -64.5t-42.5 -165.5v-696h-278z" />
<glyph unicode="s" horiz-adv-x="955" d="M118 826q0 98 32 167t88.5 111.5t133 61t161.5 18.5q71 0 140 -10.5t141 -31.5v-230q-71 17 -140 29.5t-160 12.5q-74 0 -97 -36t-23 -92q0 -52 31.5 -79t83.5 -34q96 -15 162 -43t106.5 -70t59.5 -101t19 -140q0 -199 -112.5 -287.5t-300.5 -88.5q-101 0 -185 17 t-133 30v235q66 -14 158.5 -31.5t171.5 -17.5q73 0 99 35t26 98q0 57 -28.5 85t-87.5 40q-180 35 -263 119.5t-83 232.5z" />
<glyph unicode="t" horiz-adv-x="776" d="M37 946v222h148v279h275v-279h255v-222h-255v-660q0 -80 73 -80q56 0 100.5 7.5t81.5 20.5v-217q-30 -10 -91 -20.5t-132 -10.5q-79 0 -136.5 24.5t-96 68t-56.5 104.5t-18 129v634h-148z" />
<glyph unicode="u" horiz-adv-x="1168" d="M148 420v748h274v-767q0 -96 29.5 -140.5t99.5 -44.5q68 0 116 49t55 126v777h275v-1168h-218l-22 140q-21 -56 -83 -106.5t-172 -50.5q-185 0 -269.5 108t-84.5 329z" />
<glyph unicode="v" horiz-adv-x="1078" d="M49 1168h293l204 -866l199 866h285l-332 -1168h-315z" />
<glyph unicode="w" horiz-adv-x="1290" d="M49 1168h277l82 -720l164 439h176l144 -435l84 716h265l-167 -1168h-226l-199 530l-215 -530h-213z" />
<glyph unicode="x" horiz-adv-x="1060" d="M49 0l347 598l-323 570h323l162 -330l167 330h305l-322 -558l349 -610h-323l-181 373l-192 -373h-312z" />
<glyph unicode="y" horiz-adv-x="1093" d="M37 1168h298l235 -896l202 896h285l-367 -1293q-24 -89 -53.5 -149.5t-70 -96t-96 -51.5t-128.5 -16q-35 0 -81.5 6.5t-75.5 11.5v223q37 -5 73.5 -9.5t70.5 -4.5q89 0 103 89l25 122h-56z" />
<glyph unicode="z" horiz-adv-x="999" d="M160 0v226l447 708h-405v234h724v-222l-447 -712h423v-234h-742z" />
<glyph unicode="{" horiz-adv-x="814" d="M82 688v246q30 0 61 11t57 36t43 62.5t17 91.5v497q0 172 65.5 235t209.5 63q28 0 76 -7t74 -11v-209q-21 2 -47 3.5t-54 1.5q-34 0 -48.5 -14.5t-14.5 -51.5v-526q0 -133 -70.5 -201.5t-180.5 -100.5q106 -35 178.5 -107.5t72.5 -200.5v-538q0 -47 54 -47q37 0 63 1.5 t47 6.5v-204q-27 -5 -76 -12.5t-76 -7.5q-69 0 -120.5 12.5t-84.5 42t-50.5 80t-17.5 125.5v525q0 51 -17 89t-43 62.5t-58 35.5t-60 11z" />
<glyph unicode="|" horiz-adv-x="675" d="M246 -258v2148h263v-2148h-263z" />
<glyph unicode="}" horiz-adv-x="814" d="M127 -71q24 -5 50.5 -6.5t63.5 -1.5q54 0 54 47v538q0 128 72.5 200.5t178.5 107.5q-110 32 -180.5 100.5t-70.5 201.5v526q0 37 -16 51.5t-51 14.5q-28 0 -52 -1.5t-49 -3.5v209q24 4 75 11t78 7q145 0 209 -63t64 -235v-497q0 -54 17 -91.5t42.5 -62.5t58 -36t61.5 -11 v-246q-30 0 -62 -11t-57.5 -35.5t-42.5 -62.5t-17 -89v-525q0 -75 -16 -125.5t-49 -80t-84.5 -42t-120.5 -12.5q-27 0 -77.5 7.5t-78.5 12.5v204z" />
<glyph unicode="~" horiz-adv-x="1189" d="M185 551v260q61 49 123.5 70t134.5 21q42 0 83.5 -13.5t82 -30t79.5 -29.5t76 -13q69 0 125.5 29.5t113.5 71.5v-258q-49 -42 -107 -65.5t-129 -23.5q-52 0 -95 14t-83.5 28t-80 28t-83.5 14q-64 0 -124 -28t-116 -75z" />
<glyph unicode="&#xa1;" horiz-adv-x="594" d="M133 863v305h310v-305h-310zM150 -432v1150h277v-1150h-277z" />
<glyph unicode="&#xa2;" horiz-adv-x="1117" d="M197 602q0 266 82 403t244 163v216h241v-214q76 -5 146 -32v-246q-71 19 -135.5 29t-140.5 10q-50 0 -79 -16.5t-47 -60t-25 -115t-7 -179.5t9 -173t27 -99.5t49.5 -45t72.5 -10.5q39 0 71 2t63 7t65.5 12t76.5 19v-248q-35 -14 -69.5 -20t-76.5 -11v-232h-241v229 q-81 8 -141 42t-101.5 105.5t-62.5 184t-21 280.5z" />
<glyph unicode="&#xa3;" horiz-adv-x="1117" d="M122 0v246h153v491h-153v234h153v159q0 162 24.5 264t78.5 160t138 77.5t202 19.5q39 0 110.5 -7t142.5 -19v-246q-69 12 -142.5 19t-101.5 7q-51 0 -84 -12t-52 -42.5t-26 -83.5t-7 -137v-159h282v-234h-282v-491h434v-246h-870z" />
<glyph unicode="&#xa4;" horiz-adv-x="1328" d="M32 265l142 143q-24 56 -39 129t-15 153q0 84 15 155.5t39 127.5l-142 145l182 179l133 -129q63 39 137 56t154 17q84 0 157 -17t134 -56q35 32 71.5 70t63.5 59l182 -179l-142 -145q24 -56 39 -127.5t15 -155.5q0 -160 -54 -280l142 -145l-182 -181l-133 132 q-59 -37 -136 -56.5t-157 -19.5q-81 0 -154.5 17t-136.5 59l-133 -132zM396 690q0 -155 69.5 -233.5t172.5 -78.5q106 0 175 78.5t69 233.5t-68.5 235.5t-175.5 80.5q-103 0 -172.5 -80t-69.5 -236z" />
<glyph unicode="&#xa5;" horiz-adv-x="1117" d="M22 1634h307l241 -560l239 560h295l-372 -788h258v-234h-284v-131h284v-233h-284v-248h-291v248h-284v233h284v131h-284v234h255z" />
<glyph unicode="&#xa6;" horiz-adv-x="690" d="M202 -258v868h262v-868h-262zM202 1027v863h262v-863h-262z" />
<glyph unicode="&#xa7;" horiz-adv-x="1095" d="M157 816q0 54 11.5 93.5t29.5 69t42.5 48.5t49.5 37q-37 35 -65 88t-28 138q0 101 30.5 170t85.5 112t129 62.5t160 19.5q87 0 157.5 -16t115.5 -29v-237q-71 19 -145 34t-135 15q-68 0 -100.5 -42t-32.5 -77q0 -96 101 -113q96 -14 159.5 -48.5t104.5 -83.5t58 -109.5 t17 -126.5q0 -54 -12.5 -93.5t-33.5 -69t-45.5 -50.5t-48.5 -36q42 -34 71.5 -89.5t29.5 -138.5q0 -98 -32 -167t-87.5 -111t-129 -61t-159.5 -19q-89 0 -161.5 14t-113.5 28v235q68 -17 135.5 -31t156.5 -14q34 0 57.5 13t38 31t21 37.5t6.5 35.5q0 96 -103 110 q-94 15 -158 50t-103 84.5t-56.5 110t-17.5 126.5zM415 823q0 -75 37.5 -109t115.5 -50q27 19 50.5 55t23.5 95q0 70 -37 108.5t-126 53.5q-64 -30 -64 -153z" />
<glyph unicode="&#xa8;" horiz-adv-x="874" d="M82 1388v261h270v-261h-270zM526 1388v261h268v-261h-268z" />
<glyph unicode="&#xa9;" horiz-adv-x="1867" d="M199 816q0 194 42 349t131.5 263t231 165.5t342.5 57.5q199 0 338 -57.5t223.5 -166.5t123 -264t38.5 -347q0 -194 -38.5 -348t-124 -262t-223.5 -165.5t-337 -57.5q-200 0 -342 56.5t-231.5 163.5t-131.5 261.5t-42 351.5zM378 816q0 -155 26 -279t91 -212.5t174.5 -135 t276.5 -46.5q164 0 270 48t167.5 135t83.5 211t22 279t-22 280.5t-83.5 212.5t-167 135t-270.5 48q-167 0 -276.5 -47t-174.5 -134t-91 -212.5t-26 -282.5zM654 828q0 145 23.5 233.5t66 135t103 61.5t136.5 15q44 0 88.5 -11.5t66.5 -18.5v-169q-50 10 -93.5 12t-71.5 2 q-30 0 -50.5 -7t-35.5 -34t-21 -81t-6 -148q0 -96 6 -150t21 -82t37 -34t52 -6q34 0 77 2.5t85 14.5v-172q-30 -12 -73 -21t-97 -9q-73 0 -132.5 18.5t-99.5 70.5t-61 142.5t-21 235.5z" />
<glyph unicode="&#xaa;" horiz-adv-x="940" d="M108 1042q0 152 87.5 217.5t249.5 65.5h73v54q0 61 -66 61q-68 0 -133.5 -11t-151.5 -33v208q66 20 135 33.5t136 13.5q164 0 244 -69.5t80 -202.5v-366q0 -59 71 -59v-192h-71q-79 0 -115.5 36.5t-53.5 81.5q-22 -52 -70.5 -88.5t-151.5 -36.5q-54 0 -102 16.5 t-83.5 51.5t-56.5 90t-21 129zM120 0v223h644v-223h-644zM349 1049q-1 -78 83 -78q28 0 45 10.5t25.5 25.5t12 30t3.5 23v78h-78q-37 0 -64 -16t-27 -73z" />
<glyph unicode="&#xab;" horiz-adv-x="1173" d="M140 688l214 494h233l-149 -497l149 -486h-233zM563 688l213 494h234l-150 -497l150 -486h-234z" />
<glyph unicode="&#xac;" horiz-adv-x="1368" d="M160 598v244h1047v-614h-276v370h-771z" />
<glyph unicode="&#xad;" horiz-adv-x="1179" d="M190 595v247h802v-247h-802z" />
<glyph unicode="&#xae;" horiz-adv-x="1867" d="M199 816q0 194 42 349t131.5 263t231 165.5t342.5 57.5q199 0 338 -57.5t223.5 -166.5t123 -264t38.5 -347q0 -194 -38.5 -348t-124 -262t-223.5 -165.5t-337 -57.5q-200 0 -342 56.5t-231.5 163.5t-131.5 261.5t-42 351.5zM378 816q0 -155 26 -279t91 -212.5t174.5 -135 t276.5 -46.5q164 0 270 48t167.5 135t83.5 211t22 279t-22 280.5t-83.5 212.5t-167 135t-270.5 48q-167 0 -276.5 -47t-174.5 -134t-91 -212.5t-26 -282.5zM696 371v897q44 3 88 5q37 3 81.5 4t80.5 1q159 0 221 -77t62 -204q0 -91 -32 -163t-88 -89l162 -374h-204l-121 335 h-59v-335h-191zM887 877h77q27 0 42.5 22.5t15.5 90.5q0 61 -10.5 88.5t-47.5 27.5h-77v-229z" />
<glyph unicode="&#xaf;" horiz-adv-x="800" d="M82 1414v237h638v-237h-638z" />
<glyph unicode="&#xb0;" horiz-adv-x="901" d="M71 1302q0 79 21 148t65.5 119.5t115.5 80t175 29.5q103 0 174.5 -29.5t117.5 -80t67 -119.5t21 -148t-21 -150t-67 -123.5t-117.5 -83.5t-174.5 -31q-104 0 -175 31t-115.5 85t-65.5 124t-21 148zM322 1304q0 -58 25.5 -111t100.5 -53t102 53t27 111q0 57 -27 105 t-102 48q-74 0 -100 -47.5t-26 -105.5z" />
<glyph unicode="&#xb1;" horiz-adv-x="1309" d="M192 0v248h924v-248h-924zM192 595v247h329v342h265v-342h330v-247h-330v-288h-265v288h-329z" />
<glyph unicode="&#xb2;" horiz-adv-x="975" d="M145 479v204l256 356q37 52 57.5 88t32 66.5t13.5 62.5t2 74t-22 69t-76 27t-117 -11.5t-119 -23.5v216q49 12 110.5 25.5t139.5 13.5q338 0 338 -331q0 -54 -6 -97t-21 -86.5t-42 -87t-69 -103.5l-172 -240h322v-222h-627z" />
<glyph unicode="&#xb3;" horiz-adv-x="975" d="M172 497v223q44 -10 115.5 -21t137.5 -11q49 0 72.5 37t23.5 101q0 81 -20 122.5t-79 41.5h-171v206h155q34 0 53.5 14t29.5 32.5t12.5 40t2.5 42.5q0 56 -20 78.5t-62 22.5q-54 0 -121 -8.5t-116 -21.5v216q9 2 36 8.5t62.5 11.5t74 9.5t69.5 4.5q73 0 134 -13t103 -49 t65 -98.5t23 -163.5q0 -98 -40.5 -151t-94.5 -69q73 -33 114 -88.5t41 -180.5q0 -207 -89.5 -286.5t-244.5 -79.5q-37 0 -80.5 3.5t-81 8.5t-66 10t-38.5 8z" />
<glyph unicode="&#xb4;" horiz-adv-x="706" d="M118 1354l278 379h334l-344 -379h-268z" />
<glyph unicode="&#xb5;" horiz-adv-x="1182" d="M155 -398v1566h275v-802q0 -66 22 -108t94 -42q35 0 62.5 15t48.5 36t35 47t16 47v807h275v-1168h-219l-25 118q-35 -136 -186 -135q-30 0 -66.5 12t-56.5 42v-435h-275z" />
<glyph unicode="&#xb6;" horiz-adv-x="1189" d="M127 1250q0 111 32.5 187.5t84 124t119 68.5t139.5 21q44 0 89 -3.5t85 -8.5q44 -7 88 -12v-231q-70 14 -118 20.5t-81 6.5q-103 0 -144 -40.5t-41 -134.5q0 -79 22.5 -131.5t94.5 -52.5h267v-1064h-270v842h-10q-66 0 -131 16.5t-114 61t-80.5 124t-31.5 206.5zM892 0 v1634h266v-1634h-266z" />
<glyph unicode="&#xb7;" horiz-adv-x="535" d="M108 563v300h302v-300h-302z" />
<glyph unicode="&#xb8;" horiz-adv-x="709" d="M150 -280q44 -12 79.5 -16t70.5 -4q73 0 73 49q0 40 -41.5 46t-151.5 6l56 347h214l-35 -219q89 -12 144 -57.5t55 -139.5q0 -127 -78.5 -180.5t-204.5 -53.5q-49 0 -95 6t-86 15v201z" />
<glyph unicode="&#xb9;" horiz-adv-x="975" d="M190 1325v201l267 108h195v-946h162v-209h-608v209h195v705z" />
<glyph unicode="&#xba;" horiz-adv-x="990" d="M115 1207q0 232 89 338t272 106q185 0 272 -106t87 -338q0 -140 -23.5 -233.5t-68.5 -147.5t-111.5 -76.5t-155.5 -22.5q-88 0 -154 22.5t-113 76.5t-70.5 147.5t-23.5 233.5zM122 0v223h699v-223h-699zM364 1177q0 -122 21 -179t91 -57q74 0 94 57t20 179 q0 123 -19.5 192t-94.5 69q-70 0 -91 -69t-21 -192z" />
<glyph unicode="&#xbb;" horiz-adv-x="1173" d="M162 199l152 486l-152 497h234l216 -494l-216 -489h-234zM584 199l153 486l-153 497h234l216 -494l-216 -489h-234z" />
<glyph unicode="&#xbc;" horiz-adv-x="2041" d="M176 1302v224l244 108h222v-933h160v-222h-608v222h195v678zM706 -234l741 2124h253l-748 -2124h-246zM1421 253v204l199 699h235l-183 -677h141l30 281h221v-281h114v-226h-114v-253h-251v253h-392z" />
<glyph unicode="&#xbd;" horiz-adv-x="2041" d="M176 1302v224l244 108h222v-933h160v-222h-608v222h195v678zM706 -234l741 2124h253l-748 -2124h-246zM1566 0v209l250 351q37 52 59 87.5t34.5 66.5t16.5 63t4 76q0 42 -19 66t-68 24t-120.5 -10.5t-127.5 -22.5v232q51 10 114 18t134 8q167 0 252 -81t85 -252 q0 -54 -6.5 -96.5t-21 -84.5t-41.5 -87.5t-69 -104.5l-169 -236h324v-226h-631z" />
<glyph unicode="&#xbe;" horiz-adv-x="2233" d="M172 497v225q44 -9 115.5 -20.5t137.5 -11.5q96 0 96 136q0 81 -20 122.5t-79 41.5h-171v206h155q34 0 53.5 14t29.5 32.5t12.5 40t2.5 42.5q0 56 -20 77t-62 21q-54 0 -121 -9t-116 -21v219q9 2 36 8.5t62.5 11.5t74 9.5t69.5 4.5q73 0 134 -13t103 -49t65 -98.5 t23 -163.5q0 -98 -36 -148.5t-87 -69.5q63 -32 103 -89t40 -182q0 -207 -89.5 -286.5t-244.5 -79.5q-37 0 -80.5 3.5t-81 8.5t-66 10t-38.5 8zM624 -234l743 2124h251l-750 -2124h-244zM1337 253v204l199 699h239l-185 -677h143l26 281h225v-281h110v-226h-110v-253h-251 v253h-396z" />
<glyph unicode="&#xbf;" horiz-adv-x="856" d="M49 -79q0 68 5 114.5t23.5 86.5t54 85.5t94.5 114.5l109 123v235h275v-319l-143 -164q-47 -54 -75 -90t-42.5 -65.5t-20 -61.5t-5.5 -78q0 -82 38.5 -111.5t101.5 -29.5q84 0 151.5 14t160.5 31v-244q-27 -7 -66 -14.5t-79.5 -14.5t-78.5 -12t-65 -5q-101 0 -182.5 16 t-138 60t-87 123t-30.5 206zM317 863v305h307v-305h-307z" />
<glyph unicode="&#xc0;" horiz-adv-x="1228" d="M30 0l427 1634h327l415 -1634h-289l-94 394h-396l-98 -394h-292zM146 2217h334l278 -379h-268zM474 638h286l-143 677z" />
<glyph unicode="&#xc1;" horiz-adv-x="1228" d="M30 0l427 1634h327l415 -1634h-289l-94 394h-396l-98 -394h-292zM467 1838l278 379h334l-344 -379h-268zM474 638h286l-143 677z" />
<glyph unicode="&#xc2;" horiz-adv-x="1228" d="M30 0l427 1634h327l415 -1634h-289l-94 394h-396l-98 -394h-292zM190 1838l314 379h228l314 -379h-296l-133 177l-133 -177h-294zM474 638h286l-143 677z" />
<glyph unicode="&#xc3;" horiz-adv-x="1228" d="M30 0l427 1634h327l415 -1634h-289l-94 394h-396l-98 -394h-292zM272 1838v236q63 54 117 75t103 21q42 0 79 -14t70 -28t64 -28t62 -14q40 0 92.5 21t104.5 75v-233q-59 -56 -104.5 -76t-92.5 -20q-51 0 -88 13.5t-67.5 28.5t-63 28t-72.5 13q-50 0 -98 -23.5 t-106 -74.5zM474 638h286l-143 677z" />
<glyph unicode="&#xc4;" horiz-adv-x="1228" d="M30 0l427 1634h327l415 -1634h-289l-94 394h-396l-98 -394h-292zM262 1872v261h270v-261h-270zM474 638h286l-143 677zM706 1872v261h268v-261h-268z" />
<glyph unicode="&#xc5;" horiz-adv-x="1228" d="M30 0l413 1580q-79 71 -79 192q0 113 70 185.5t185 72.5t184 -72.5t69 -185.5q0 -120 -75 -189l402 -1583h-289l-94 394h-396l-98 -394h-292zM474 638h286l-143 677zM553 1775q0 -42 19.5 -59.5t46.5 -17.5q28 0 46 17.5t18 59.5q0 44 -18 61t-46 17q-27 0 -46.5 -17 t-19.5 -61z" />
<glyph unicode="&#xc6;" horiz-adv-x="1780" d="M17 0l567 1634h989v-234h-600l57 -434h534v-234h-509l63 -498h502v-234h-757l-47 394h-373l-131 -394h-295zM518 626h270q-9 89 -16.5 158t-15.5 132.5t-16 136.5t-18 169z" />
<glyph unicode="&#xc7;" horiz-adv-x="1053" d="M131 842q0 258 36.5 417t108 246t177 116.5t243.5 29.5q73 0 154 -12t142 -30v-242q-37 9 -80.5 16.5t-88 12t-86 7t-73.5 2.5q-59 0 -104.5 -20.5t-75 -82t-44.5 -175.5t-15 -301q0 -195 17.5 -311.5t48 -180.5t77 -85t105.5 -21q35 0 79.5 5.5t88 11.5t84.5 13t67 14 v-240q-24 -4 -63.5 -13t-83 -16.5t-85.5 -13.5t-72 -6l-8 -54q89 -12 144.5 -57.5t55.5 -139.5q0 -127 -79 -180.5t-203 -53.5q-50 0 -96.5 6t-86.5 15v201q45 -12 80 -16t70 -4q73 0 73 49q0 40 -41 46t-152 6l31 204q-88 24 -153 81t-108 156.5t-63.5 246.5t-20.5 353z " />
<glyph unicode="&#xc8;" horiz-adv-x="1142" d="M176 0v1634h856v-234h-565v-432h506v-234h-506v-500h565v-234h-856zM245 2217h334l278 -379h-268z" />
<glyph unicode="&#xc9;" horiz-adv-x="1142" d="M176 0v1634h856v-234h-565v-432h506v-234h-506v-500h565v-234h-856zM467 1838l278 379h334l-344 -379h-268z" />
<glyph unicode="&#xca;" horiz-adv-x="1142" d="M150 1838l314 379h228l314 -379h-296l-133 177l-133 -177h-294zM176 0v1634h856v-234h-565v-432h506v-234h-506v-500h565v-234h-856z" />
<glyph unicode="&#xcb;" horiz-adv-x="1142" d="M176 0v1634h856v-234h-565v-432h506v-234h-506v-500h565v-234h-856zM222 1872v261h270v-261h-270zM666 1872v261h268v-261h-268z" />
<glyph unicode="&#xcc;" horiz-adv-x="798" d="M-56 2217h334l278 -379h-268zM98 0v221h158v1193h-158v220h603v-220h-160v-1193h160v-221h-603z" />
<glyph unicode="&#xcd;" horiz-adv-x="798" d="M98 0v221h158v1193h-158v220h603v-220h-160v-1193h160v-221h-603zM228 1838l278 379h334l-344 -379h-268z" />
<glyph unicode="&#xce;" horiz-adv-x="798" d="M-31 1838l314 379h228l314 -379h-296l-133 177l-133 -177h-294zM98 0v221h158v1193h-158v220h603v-220h-160v-1193h160v-221h-603z" />
<glyph unicode="&#xcf;" horiz-adv-x="798" d="M45 1872v261h270v-261h-270zM98 0v221h158v1193h-158v220h603v-220h-160v-1193h160v-221h-603zM489 1872v261h268v-261h-268z" />
<glyph unicode="&#xd0;" horiz-adv-x="1323" d="M28 727v222h159v683q79 5 157 10q66 4 141 6.5t134 2.5q127 0 231 -29.5t173.5 -116.5t108 -246t38.5 -417q0 -260 -36 -427t-103 -263t-164.5 -132.5t-222.5 -36.5q-66 0 -145 2.5t-150 7.5q-81 5 -162 9v725h-159zM472 234q34 -2 89.5 -4t104.5 -2q44 0 82 30t66 99.5 t44.5 184t16.5 284.5q0 184 -17.5 297t-45.5 176t-65 84.5t-79 21.5q-34 0 -67 -1t-62 -4q-35 -2 -67 -2v-449h253v-222h-253v-493z" />
<glyph unicode="&#xd1;" horiz-adv-x="1365" d="M176 0v1634h262l474 -987v987h277v-1634h-228l-509 1020v-1020h-276zM338 1838v236q63 54 117 75t103 21q42 0 79 -14t70 -28t64 -28t62 -14q40 0 92.5 21t104.5 75v-233q-59 -56 -104.5 -76t-92.5 -20q-51 0 -88 13.5t-67.5 28.5t-63 28t-72.5 13q-50 0 -98 -23.5 t-106 -74.5z" />
<glyph unicode="&#xd2;" horiz-adv-x="1274" d="M98 835q0 204 27 357.5t89.5 255.5t167.5 152.5t256 50.5q153 0 256 -50.5t166 -152.5t90 -255.5t27 -357.5q0 -213 -27 -373t-90 -266.5t-166 -159.5t-256 -53q-152 0 -256.5 53t-167 159.5t-89.5 266.5t-27 373zM233 2217h334l278 -379h-268zM391 823 q0 -169 14.5 -283.5t44 -183t76 -98.5t112.5 -30q64 0 111.5 30t78 98.5t45 183t14.5 283.5q0 174 -14.5 287.5t-45 178.5t-77.5 90.5t-112 25.5q-66 0 -112.5 -25.5t-76 -90.5t-44 -178.5t-14.5 -287.5z" />
<glyph unicode="&#xd3;" horiz-adv-x="1274" d="M98 835q0 204 27 357.5t89.5 255.5t167.5 152.5t256 50.5q153 0 256 -50.5t166 -152.5t90 -255.5t27 -357.5q0 -213 -27 -373t-90 -266.5t-166 -159.5t-256 -53q-152 0 -256.5 53t-167 159.5t-89.5 266.5t-27 373zM391 823q0 -169 14.5 -283.5t44 -183t76 -98.5 t112.5 -30q64 0 111.5 30t78 98.5t45 183t14.5 283.5q0 174 -14.5 287.5t-45 178.5t-77.5 90.5t-112 25.5q-66 0 -112.5 -25.5t-76 -90.5t-44 -178.5t-14.5 -287.5zM496 1838l278 379h334l-344 -379h-268z" />
<glyph unicode="&#xd4;" horiz-adv-x="1274" d="M98 835q0 204 27 357.5t89.5 255.5t167.5 152.5t256 50.5q153 0 256 -50.5t166 -152.5t90 -255.5t27 -357.5q0 -213 -27 -373t-90 -266.5t-166 -159.5t-256 -53q-152 0 -256.5 53t-167 159.5t-89.5 266.5t-27 373zM213 1838l314 379h228l314 -379h-296l-133 177 l-133 -177h-294zM391 823q0 -169 14.5 -283.5t44 -183t76 -98.5t112.5 -30q64 0 111.5 30t78 98.5t45 183t14.5 283.5q0 174 -14.5 287.5t-45 178.5t-77.5 90.5t-112 25.5q-66 0 -112.5 -25.5t-76 -90.5t-44 -178.5t-14.5 -287.5z" />
<glyph unicode="&#xd5;" horiz-adv-x="1274" d="M98 835q0 204 27 357.5t89.5 255.5t167.5 152.5t256 50.5q153 0 256 -50.5t166 -152.5t90 -255.5t27 -357.5q0 -213 -27 -373t-90 -266.5t-166 -159.5t-256 -53q-152 0 -256.5 53t-167 159.5t-89.5 266.5t-27 373zM296 1838v236q63 54 117 75t103 21q42 0 79 -14t70 -28 t64 -28t62 -14q40 0 92.5 21t104.5 75v-233q-59 -56 -104.5 -76t-92.5 -20q-51 0 -88 13.5t-67.5 28.5t-63 28t-72.5 13q-50 0 -98 -23.5t-106 -74.5zM391 823q0 -169 14.5 -283.5t44 -183t76 -98.5t112.5 -30q64 0 111.5 30t78 98.5t45 183t14.5 283.5q0 174 -14.5 287.5 t-45 178.5t-77.5 90.5t-112 25.5q-66 0 -112.5 -25.5t-76 -90.5t-44 -178.5t-14.5 -287.5z" />
<glyph unicode="&#xd6;" horiz-adv-x="1274" d="M98 835q0 204 27 357.5t89.5 255.5t167.5 152.5t256 50.5q153 0 256 -50.5t166 -152.5t90 -255.5t27 -357.5q0 -213 -27 -373t-90 -266.5t-166 -159.5t-256 -53q-152 0 -256.5 53t-167 159.5t-89.5 266.5t-27 373zM286 1872v261h270v-261h-270zM391 823 q0 -169 14.5 -283.5t44 -183t76 -98.5t112.5 -30q64 0 111.5 30t78 98.5t45 183t14.5 283.5q0 174 -14.5 287.5t-45 178.5t-77.5 90.5t-112 25.5q-66 0 -112.5 -25.5t-76 -90.5t-44 -178.5t-14.5 -287.5zM730 1872v261h268v-261h-268z" />
<glyph unicode="&#xd7;" horiz-adv-x="1282" d="M209 460l251 255l-251 251l180 181l253 -253l252 253l182 -181l-253 -251l253 -255l-182 -183l-252 256l-253 -256z" />
<glyph unicode="&#xd8;" horiz-adv-x="1274" d="M98 835q0 204 27 357.5t89.5 255.5t167.5 152.5t256 50.5q42 0 83 -4.5t76 -12.5l71 212h216l-101 -305q105 -96 149.5 -270.5t44.5 -435.5q0 -213 -27 -373t-90 -266.5t-166 -159.5t-256 -53q-46 0 -86.5 5t-77.5 12l-68 -211h-214l101 309q-106 99 -150.5 282 t-44.5 455zM391 823q0 -113 6 -200.5t18 -153.5l303 924q-38 12 -80 12q-66 0 -112.5 -25.5t-76 -90.5t-44 -178.5t-14.5 -287.5zM556 244q37 -15 82 -16q64 0 111.5 30t78 98.5t45 183t14.5 283.5q0 113 -7.5 199.5t-19.5 149.5z" />
<glyph unicode="&#xd9;" horiz-adv-x="1336" d="M176 467v1167h288v-1191q0 -103 54 -159t155 -56q96 0 149 56t53 159v1191h285v-1167q0 -249 -127.5 -366.5t-359.5 -117.5q-236 0 -366.5 117.5t-130.5 366.5zM408 2217h334l278 -379h-268z" />
<glyph unicode="&#xda;" horiz-adv-x="1336" d="M176 467v1167h288v-1191q0 -103 54 -159t155 -56q96 0 149 56t53 159v1191h285v-1167q0 -249 -127.5 -366.5t-359.5 -117.5q-236 0 -366.5 117.5t-130.5 366.5zM362 1838l278 379h334l-344 -379h-268z" />
<glyph unicode="&#xdb;" horiz-adv-x="1336" d="M176 467v1167h288v-1191q0 -103 54 -159t155 -56q96 0 149 56t53 159v1191h285v-1167q0 -249 -127.5 -366.5t-359.5 -117.5q-236 0 -366.5 117.5t-130.5 366.5zM244 1838l314 379h228l314 -379h-296l-133 177l-133 -177h-294z" />
<glyph unicode="&#xdc;" horiz-adv-x="1336" d="M176 467v1167h288v-1191q0 -103 54 -159t155 -56q96 0 149 56t53 159v1191h285v-1167q0 -249 -127.5 -366.5t-359.5 -117.5q-236 0 -366.5 117.5t-130.5 366.5zM316 1872v261h270v-261h-270zM760 1872v261h268v-261h-268z" />
<glyph unicode="&#xdd;" horiz-adv-x="1215" d="M5 1634h319l288 -616l294 616h308l-462 -886v-748h-292v748zM294 1838l278 379h334l-344 -379h-268z" />
<glyph unicode="&#xde;" horiz-adv-x="1213" d="M162 0v1634h288v-285q30 2 64 4.5t76 2.5q143 0 236 -38t148.5 -105.5t78.5 -162t23 -204.5q0 -138 -25.5 -239t-82 -167.5t-150 -98t-225.5 -31.5h-143v-310h-288zM450 551h167q75 0 122 61t47 216q0 143 -38 215.5t-131 72.5q-28 0 -57.5 -1t-53.5 -4q-27 -2 -56 -5 v-555z" />
<glyph unicode="&#xdf;" horiz-adv-x="1236" d="M157 0v1207q0 202 117 323t338 121q115 0 198.5 -31.5t137 -85.5t79 -125.5t25.5 -149.5q0 -40 -3 -71.5t-7.5 -67.5t-12 -80.5t-19.5 -103.5q-130 0 -177 -22t-47 -63q0 -35 17.5 -52.5t52.5 -31.5q61 -28 113.5 -55t92.5 -67t62.5 -100t22.5 -151q0 -221 -106.5 -314.5 t-306.5 -93.5q-120 0 -204 28v242q54 -22 100 -30t109 -8q71 0 98.5 50.5t27.5 111.5q0 74 -27 112t-111 76q-54 24 -93 51.5t-63.5 60.5t-36 77.5t-11.5 102.5q0 125 71.5 193t196.5 89q5 24 8 59t3 70q0 63 -41 105t-151 42q-177 0 -178 -194v-1224h-275z" />
<glyph unicode="&#xe0;" horiz-adv-x="1110" d="M98 354q0 192 112 276.5t323 84.5h133v111q0 63 -29.5 94.5t-95.5 31.5q-98 0 -182 -16.5t-179 -43.5v236q76 22 168 39t178 17q120 0 199 -23t127 -73.5t67 -127t19 -179.5v-471q0 -99 99 -99v-211h-73q-101 0 -160 49t-79 113q-24 -79 -99 -127.5t-201 -48.5 q-160 0 -243.5 104t-83.5 264zM182 1733h334l278 -379h-268zM376 361q0 -143 138 -143q44 0 72 15t47 38.5t26 50.5t7 51v133h-145q-57 0 -101 -29t-44 -116z" />
<glyph unicode="&#xe1;" horiz-adv-x="1110" d="M98 354q0 192 112 276.5t323 84.5h133v111q0 63 -29.5 94.5t-95.5 31.5q-98 0 -182 -16.5t-179 -43.5v236q76 22 168 39t178 17q120 0 199 -23t127 -73.5t67 -127t19 -179.5v-471q0 -99 99 -99v-211h-73q-101 0 -160 49t-79 113q-24 -79 -99 -127.5t-201 -48.5 q-160 0 -243.5 104t-83.5 264zM346 1354l278 379h334l-344 -379h-268zM376 361q0 -143 138 -143q44 0 72 15t47 38.5t26 50.5t7 51v133h-145q-57 0 -101 -29t-44 -116z" />
<glyph unicode="&#xe2;" horiz-adv-x="1110" d="M98 354q0 192 112 276.5t323 84.5h133v111q0 63 -29.5 94.5t-95.5 31.5q-98 0 -182 -16.5t-179 -43.5v236q76 22 168 39t178 17q120 0 199 -23t127 -73.5t67 -127t19 -179.5v-471q0 -99 99 -99v-211h-73q-101 0 -160 49t-79 113q-24 -79 -99 -127.5t-201 -48.5 q-160 0 -243.5 104t-83.5 264zM143 1354l314 379h228l314 -379h-296l-133 177l-133 -177h-294zM376 361q0 -143 138 -143q44 0 72 15t47 38.5t26 50.5t7 51v133h-145q-57 0 -101 -29t-44 -116z" />
<glyph unicode="&#xe3;" horiz-adv-x="1110" d="M98 354q0 192 112 276.5t323 84.5h133v111q0 63 -29.5 94.5t-95.5 31.5q-98 0 -182 -16.5t-179 -43.5v236q76 22 168 39t178 17q120 0 199 -23t127 -73.5t67 -127t19 -179.5v-471q0 -99 99 -99v-211h-73q-101 0 -160 49t-79 113q-24 -79 -99 -127.5t-201 -48.5 q-160 0 -243.5 104t-83.5 264zM225 1354v236q63 54 117 75t103 21q42 0 79 -14t70 -28t64 -28t62 -14q40 0 92.5 21t104.5 75v-233q-59 -56 -104.5 -76t-92.5 -20q-51 0 -88 13.5t-67.5 28.5t-63 28t-72.5 13q-50 0 -98 -23.5t-106 -74.5zM376 361q0 -143 138 -143 q44 0 72 15t47 38.5t26 50.5t7 51v133h-145q-57 0 -101 -29t-44 -116z" />
<glyph unicode="&#xe4;" horiz-adv-x="1110" d="M98 354q0 192 112 276.5t323 84.5h133v111q0 63 -29.5 94.5t-95.5 31.5q-98 0 -182 -16.5t-179 -43.5v236q76 22 168 39t178 17q120 0 199 -23t127 -73.5t67 -127t19 -179.5v-471q0 -99 99 -99v-211h-73q-101 0 -160 49t-79 113q-24 -79 -99 -127.5t-201 -48.5 q-160 0 -243.5 104t-83.5 264zM215 1388v261h270v-261h-270zM376 361q0 -143 138 -143q44 0 72 15t47 38.5t26 50.5t7 51v133h-145q-57 0 -101 -29t-44 -116zM659 1388v261h268v-261h-268z" />
<glyph unicode="&#xe5;" horiz-adv-x="1110" d="M98 354q0 192 112 276.5t323 84.5h133v111q0 63 -29.5 94.5t-95.5 31.5q-98 0 -182 -16.5t-179 -43.5v236q76 22 168 39t178 17q120 0 199 -23t127 -73.5t67 -127t19 -179.5v-471q0 -99 99 -99v-211h-73q-101 0 -160 49t-79 113q-24 -79 -99 -127.5t-201 -48.5 q-160 0 -243.5 104t-83.5 264zM316 1524q0 113 69.5 185.5t185.5 72.5q115 0 184 -72.5t69 -185.5q0 -110 -69 -183t-184 -73t-185 73t-70 183zM376 361q0 -143 138 -143q44 0 72 15t47 38.5t26 50.5t7 51v133h-145q-57 0 -101 -29t-44 -116zM504 1526q0 -42 20 -59t47 -17 q28 0 46 17t18 59q0 45 -18.5 61.5t-45.5 16.5t-47 -16.5t-20 -61.5z" />
<glyph unicode="&#xe6;" horiz-adv-x="1644" d="M98 356q0 190 114 273.5t321 83.5h133v113q0 49 -30.5 83t-91.5 34q-92 0 -176.5 -18t-191.5 -48v246q66 22 165 41.5t198 19.5q127 0 195 -36.5t96 -85.5q35 42 104 82t187 40q213 0 307 -135t94 -369v-183h-588q0 -87 12.5 -139.5t36 -82t58.5 -41t85 -11.5 q42 0 77 2.5t70 9t74 14t88 16.5v-233q-71 -19 -163 -34t-156 -15q-148 0 -224 41.5t-111 106.5q-19 -30 -43.5 -57t-62 -47t-87 -32t-124.5 -12q-79 0 -145 18t-115 62.5t-77.5 116t-28.5 176.5zM376 366q0 -79 37 -111t101 -32q39 0 68.5 12.5t48 28.5t27 34.5t8.5 32.5 v166h-145q-54 0 -99.5 -27t-45.5 -104zM936 713h312q0 101 -26.5 165.5t-105.5 64.5q-86 0 -129.5 -54t-50.5 -176z" />
<glyph unicode="&#xe7;" horiz-adv-x="960" d="M127 605q0 312 119.5 445.5t343.5 133.5q80 0 149.5 -12t125.5 -30v-223q-61 15 -129 24t-154 9q-89 0 -131.5 -86.5t-42.5 -302.5q0 -108 12 -176t35.5 -105.5t56 -51.5t70.5 -14q40 0 70.5 1t61.5 5t66.5 10.5t84.5 18.5v-227q-49 -14 -106.5 -24t-114.5 -14l-8 -57 q89 -12 144 -57.5t55 -139.5q0 -127 -78.5 -180.5t-203.5 -53.5q-49 0 -96 6t-86 15v201q44 -12 80 -16t70 -4q73 0 74 49q0 40 -42 46t-152 6l31 197q-71 14 -127.5 51t-96 107t-60.5 179.5t-21 269.5z" />
<glyph unicode="&#xe8;" horiz-adv-x="1112" d="M129 582q0 322 119.5 462t340.5 140q214 0 306 -135t92 -369v-190h-579q0 -84 12 -137t34 -83.5t52.5 -42t72.5 -11.5q89 0 173.5 15t148.5 29v-230q-68 -19 -153 -33t-161 -14q-116 0 -201.5 26t-142 93t-85.5 183t-29 297zM142 1733h334l278 -379h-268zM410 701h310v21 q0 120 -31.5 175t-101.5 55q-92 0 -131 -53t-46 -198z" />
<glyph unicode="&#xe9;" horiz-adv-x="1112" d="M129 582q0 322 119.5 462t340.5 140q214 0 306 -135t92 -369v-190h-579q0 -84 12 -137t34 -83.5t52.5 -42t72.5 -11.5q89 0 173.5 15t148.5 29v-230q-68 -19 -153 -33t-161 -14q-116 0 -201.5 26t-142 93t-85.5 183t-29 297zM410 701h310v21q0 120 -31.5 175t-101.5 55 q-92 0 -131 -53t-46 -198zM449 1354l278 379h334l-344 -379h-268z" />
<glyph unicode="&#xea;" horiz-adv-x="1112" d="M129 582q0 322 119.5 462t340.5 140q214 0 306 -135t92 -369v-190h-579q0 -84 12 -137t34 -83.5t52.5 -42t72.5 -11.5q89 0 173.5 15t148.5 29v-230q-68 -19 -153 -33t-161 -14q-116 0 -201.5 26t-142 93t-85.5 183t-29 297zM129 1354l314 379h228l314 -379h-296 l-133 177l-133 -177h-294zM410 701h310v21q0 120 -31.5 175t-101.5 55q-92 0 -131 -53t-46 -198z" />
<glyph unicode="&#xeb;" horiz-adv-x="1112" d="M129 582q0 322 119.5 462t340.5 140q214 0 306 -135t92 -369v-190h-579q0 -84 12 -137t34 -83.5t52.5 -42t72.5 -11.5q89 0 173.5 15t148.5 29v-230q-68 -19 -153 -33t-161 -14q-116 0 -201.5 26t-142 93t-85.5 183t-29 297zM200 1388v261h270v-261h-270zM410 701h310v21 q0 120 -31.5 175t-101.5 55q-92 0 -131 -53t-46 -198zM644 1388v261h268v-261h-268z" />
<glyph unicode="&#xec;" horiz-adv-x="561" d="M-208 1733h334l278 -379h-268zM94 0v1168h277v-1168h-277z" />
<glyph unicode="&#xed;" horiz-adv-x="561" d="M143 0v1168h277v-1168h-277zM155 1354l278 379h334l-344 -379h-268z" />
<glyph unicode="&#xee;" horiz-adv-x="561" d="M-144 1354l314 379h228l314 -379h-296l-133 177l-133 -177h-294zM143 0v1168h277v-1168h-277z" />
<glyph unicode="&#xef;" horiz-adv-x="561" d="M-73 1388v261h270v-261h-270zM143 0v1168h277v-1168h-277zM371 1388v261h268v-261h-268z" />
<glyph unicode="&#xf0;" horiz-adv-x="1196" d="M133 518q0 293 95.5 429.5t304.5 136.5q63 0 110 -14.5t82 -30.5q-3 118 -19 198.5t-72 118.5l-59 -108h-275l101 170q-35 5 -80.5 7.5t-92.5 2.5v233q86 0 167 -3.5t138 -13.5l67 108h275l-108 -179q117 -63 179 -233t62 -456q0 -283 -21 -458t-72.5 -273.5t-136 -132.5 t-213.5 -34q-93 0 -172 27t-136.5 88t-90.5 163t-33 254zM406 499q0 -133 35 -203t139 -70q37 0 65 21t48 84t29.5 178t9.5 302q-28 12 -74 26t-107 14q-42 0 -70.5 -17.5t-45.5 -59.5t-23 -109t-6 -166z" />
<glyph unicode="&#xf1;" horiz-adv-x="1203" d="M167 0v1168h199l35 -138q34 51 104 102.5t186 51.5q167 0 260 -97t93 -318v-769h-277v776q0 106 -34.5 144.5t-111.5 38.5q-84 0 -130 -49.5t-46 -123.5v-786h-278zM254 1354v236q63 54 117 75t103 21q42 0 79 -14t70 -28t64 -28t62 -14q40 0 92.5 21t104.5 75v-233 q-59 -56 -104.5 -76t-92.5 -20q-51 0 -88 13.5t-67.5 28.5t-63 28t-72.5 13q-50 0 -98 -23.5t-106 -74.5z" />
<glyph unicode="&#xf2;" horiz-adv-x="1122" d="M98 605q0 300 112 439.5t353 139.5q239 0 350.5 -139.5t111.5 -439.5q0 -185 -29.5 -304t-88.5 -190t-145 -99.5t-199 -28.5t-200.5 28.5t-146.5 99.5t-88.5 190t-29.5 304zM120 1733h334l278 -379h-268zM380 572q0 -103 10.5 -172t32.5 -111.5t56.5 -61t83.5 -18.5 q98 0 138.5 79.5t40.5 283.5q0 111 -8.5 186t-28.5 119.5t-55.5 63t-86.5 18.5q-54 0 -88.5 -18.5t-55.5 -63t-30 -119.5t-9 -186z" />
<glyph unicode="&#xf3;" horiz-adv-x="1122" d="M98 605q0 300 112 439.5t353 139.5q239 0 350.5 -139.5t111.5 -439.5q0 -185 -29.5 -304t-88.5 -190t-145 -99.5t-199 -28.5t-200.5 28.5t-146.5 99.5t-88.5 190t-29.5 304zM380 572q0 -103 10.5 -172t32.5 -111.5t56.5 -61t83.5 -18.5q98 0 138.5 79.5t40.5 283.5 q0 111 -8.5 186t-28.5 119.5t-55.5 63t-86.5 18.5q-54 0 -88.5 -18.5t-55.5 -63t-30 -119.5t-9 -186zM467 1354l278 379h334l-344 -379h-268z" />
<glyph unicode="&#xf4;" horiz-adv-x="1122" d="M98 605q0 300 112 439.5t353 139.5q239 0 350.5 -139.5t111.5 -439.5q0 -185 -29.5 -304t-88.5 -190t-145 -99.5t-199 -28.5t-200.5 28.5t-146.5 99.5t-88.5 190t-29.5 304zM143 1354l314 379h228l314 -379h-296l-133 177l-133 -177h-294zM380 572q0 -103 10.5 -172 t32.5 -111.5t56.5 -61t83.5 -18.5q98 0 138.5 79.5t40.5 283.5q0 111 -8.5 186t-28.5 119.5t-55.5 63t-86.5 18.5q-54 0 -88.5 -18.5t-55.5 -63t-30 -119.5t-9 -186z" />
<glyph unicode="&#xf5;" horiz-adv-x="1122" d="M98 605q0 300 112 439.5t353 139.5q239 0 350.5 -139.5t111.5 -439.5q0 -185 -29.5 -304t-88.5 -190t-145 -99.5t-199 -28.5t-200.5 28.5t-146.5 99.5t-88.5 190t-29.5 304zM225 1354v236q63 54 117 75t103 21q42 0 79 -14t70 -28t64 -28t62 -14q40 0 92.5 21t104.5 75 v-233q-59 -56 -104.5 -76t-92.5 -20q-51 0 -88 13.5t-67.5 28.5t-63 28t-72.5 13q-50 0 -98 -23.5t-106 -74.5zM380 572q0 -103 10.5 -172t32.5 -111.5t56.5 -61t83.5 -18.5q98 0 138.5 79.5t40.5 283.5q0 111 -8.5 186t-28.5 119.5t-55.5 63t-86.5 18.5q-54 0 -88.5 -18.5 t-55.5 -63t-30 -119.5t-9 -186z" />
<glyph unicode="&#xf6;" horiz-adv-x="1122" d="M98 605q0 300 112 439.5t353 139.5q239 0 350.5 -139.5t111.5 -439.5q0 -185 -29.5 -304t-88.5 -190t-145 -99.5t-199 -28.5t-200.5 28.5t-146.5 99.5t-88.5 190t-29.5 304zM215 1388v261h270v-261h-270zM380 572q0 -103 10.5 -172t32.5 -111.5t56.5 -61t83.5 -18.5 q98 0 138.5 79.5t40.5 283.5q0 111 -8.5 186t-28.5 119.5t-55.5 63t-86.5 18.5q-54 0 -88.5 -18.5t-55.5 -63t-30 -119.5t-9 -186zM659 1388v261h268v-261h-268z" />
<glyph unicode="&#xf7;" horiz-adv-x="1282" d="M187 607v246h909v-246h-909zM490 108v302h304v-302h-304zM490 1042v302h304v-302h-304z" />
<glyph unicode="&#xf8;" horiz-adv-x="1122" d="M98 605q0 300 112 439.5t353 139.5q35 0 66.5 -3.5t60.5 -8.5l82 204h189l-110 -272q174 -131 174 -499q0 -185 -29.5 -304t-88.5 -190t-145 -99.5t-199 -28.5q-84 0 -153 15l-81 -207h-189l113 282q-79 66 -117 193.5t-38 338.5zM380 572q0 -93 9 -159l216 543 q-10 3 -20 3h-22q-54 0 -88.5 -18.5t-55.5 -63t-30 -119.5t-9 -186zM499 216q24 -7 64 -7q98 0 138.5 79.5t40.5 283.5q0 136 -15 222z" />
<glyph unicode="&#xf9;" horiz-adv-x="1191" d="M118 1733h334l278 -379h-268zM146 420v748h274v-767q0 -96 29.5 -140.5t99.5 -44.5q68 0 116 49t55 126v777h275v-1168h-218l-22 140q-21 -56 -83 -106.5t-172 -50.5q-185 0 -269.5 108t-84.5 329z" />
<glyph unicode="&#xfa;" horiz-adv-x="1191" d="M146 420v748h274v-767q0 -96 29.5 -140.5t99.5 -44.5q68 0 116 49t55 126v777h275v-1168h-218l-22 140q-21 -56 -83 -106.5t-172 -50.5q-185 0 -269.5 108t-84.5 329zM418 1354l278 379h334l-344 -379h-268z" />
<glyph unicode="&#xfb;" horiz-adv-x="1191" d="M146 420v748h274v-767q0 -96 29.5 -140.5t99.5 -44.5q68 0 116 49t55 126v777h275v-1168h-218l-22 140q-21 -56 -83 -106.5t-172 -50.5q-185 0 -269.5 108t-84.5 329zM168 1354l314 379h228l314 -379h-296l-133 177l-133 -177h-294z" />
<glyph unicode="&#xfc;" horiz-adv-x="1191" d="M146 420v748h274v-767q0 -96 29.5 -140.5t99.5 -44.5q68 0 116 49t55 126v777h275v-1168h-218l-22 140q-21 -56 -83 -106.5t-172 -50.5q-185 0 -269.5 108t-84.5 329zM242 1388v261h270v-261h-270zM686 1388v261h268v-261h-268z" />
<glyph unicode="&#xfd;" horiz-adv-x="1100" d="M37 1168h298l235 -896l202 896h285l-367 -1293q-24 -89 -53.5 -149.5t-70 -96t-96 -51.5t-128.5 -16q-35 0 -81.5 6.5t-75.5 11.5v223q37 -5 73.5 -9.5t70.5 -4.5q89 0 103 89l25 122h-56zM346 1354l278 379h334l-344 -379h-268z" />
<glyph unicode="&#xfe;" horiz-adv-x="1189" d="M155 -398v2032h277v-501q42 24 93.5 37.5t103.5 13.5q218 0 307 -135t89 -395q0 -190 -27 -319t-87 -207.5t-159.5 -111.5t-242.5 -33q-28 0 -43.5 2.5t-33.5 2.5v-386h-277zM432 232q19 -3 44.5 -4.5t53.5 -1.5q134 0 173 100.5t39 302.5q0 91 -7.5 151t-24 96t-45 50.5 t-70.5 14.5q-37 0 -66.5 -13.5t-50.5 -33t-33.5 -45.5t-12.5 -47v-570z" />
<glyph unicode="&#xff;" horiz-adv-x="1100" d="M37 1168h298l235 -896l202 896h285l-367 -1293q-24 -89 -53.5 -149.5t-70 -96t-96 -51.5t-128.5 -16q-35 0 -81.5 6.5t-75.5 11.5v223q37 -5 73.5 -9.5t70.5 -4.5q89 0 103 89l25 122h-56zM195 1388v261h270v-261h-270zM639 1388v261h268v-261h-268z" />
<glyph unicode="&#x131;" horiz-adv-x="561" d="M143 0v1168h277v-1168h-277z" />
<glyph unicode="&#x141;" horiz-adv-x="1002" d="M40 638v262l136 61v673h288v-538l275 130v-258l-275 -133v-601h526v-234h-814v703z" />
<glyph unicode="&#x142;" horiz-adv-x="668" d="M52 617v255l120 77v685h278v-508l132 86v-263l-132 -86v-583q0 -35 13 -47t41 -12q19 0 41.5 2.5t47.5 8.5v-210q-30 -10 -74.5 -19.5t-110.5 -9.5q-40 0 -81 13t-76 46.5t-57 90t-22 143.5v404z" />
<glyph unicode="&#x152;" horiz-adv-x="1788" d="M122 835q0 204 23.5 357.5t80.5 255.5t155 152.5t248 50.5q35 0 65.5 -6t53.5 -11h879v-243h-578q30 -79 47.5 -191t21.5 -239h455v-234h-452q-5 -152 -22.5 -275t-52.5 -208h581v-244h-879q-17 -5 -52 -11t-67 -6q-150 0 -248 53t-155 159.5t-80.5 266.5t-23.5 373z M408 823q0 -164 11 -277.5t36.5 -182t69 -99t104.5 -30.5t102 30.5t65.5 99t34 182t9.5 277.5q0 169 -9.5 281.5t-34 177t-65.5 91.5t-102 27t-104.5 -27t-69 -91.5t-36.5 -177t-11 -281.5z" />
<glyph unicode="&#x153;" horiz-adv-x="1776" d="M131 605q0 300 109 438.5t342 138.5q122 0 195.5 -48t122.5 -107q42 59 115 107t184 48q209 0 301 -134t92 -368v-204h-555q2 -81 13.5 -131t29.5 -78t41.5 -38.5t53.5 -10.5q73 0 154.5 9t178.5 38v-233q-68 -19 -158.5 -32.5t-155.5 -13.5q-71 0 -120 9.5t-82 28 t-56.5 43t-46.5 55.5q-49 -58 -117.5 -97t-189.5 -39q-110 0 -195 28t-141 98t-85.5 189t-29.5 304zM403 572q0 -199 42 -278.5t137 -79.5q101 0 141.5 79.5t40.5 278.5q0 108 -8 181t-29 116t-57 61.5t-88 18.5t-86 -18.5t-55 -61.5t-29.5 -116t-8.5 -181zM1039 694h288v28 q0 118 -27 172.5t-106 54.5q-86 0 -118 -57t-37 -198z" />
<glyph unicode="&#x160;" horiz-adv-x="1081" d="M112 2214h296l133 -175l133 175h294l-312 -379h-230zM115 1182q0 131 41 220.5t109.5 144.5t162 79.5t199.5 24.5q86 0 163.5 -13t143.5 -31v-245q-79 19 -162.5 31t-170.5 12q-86 0 -142 -45t-56 -153q0 -59 8.5 -98.5t31 -63t59 -38.5t90.5 -27q89 -19 161.5 -48.5 t121.5 -82t76 -139.5t27 -220q0 -153 -39.5 -250t-108 -154.5t-162 -80t-203.5 -22.5q-94 0 -176 12t-154 33v244q68 -16 159 -30t192 -14q94 0 146.5 54.5t52.5 186.5q0 73 -10.5 120t-33 76t-53 43t-69.5 22q-104 21 -180 54.5t-125 85.5t-74 128t-25 184z" />
<glyph unicode="&#x161;" horiz-adv-x="955" d="M54 1730h296l133 -175l133 175h294l-312 -379h-230zM118 826q0 98 32 167t88.5 111.5t133 61t161.5 18.5q71 0 140 -10.5t141 -31.5v-230q-71 17 -140 29.5t-160 12.5q-74 0 -97 -36t-23 -92q0 -52 31.5 -79t83.5 -34q96 -15 162 -43t106.5 -70t59.5 -101t19 -140 q0 -199 -112.5 -287.5t-300.5 -88.5q-101 0 -185 17t-133 30v235q66 -14 158.5 -31.5t171.5 -17.5q73 0 99 35t26 98q0 57 -28.5 85t-87.5 40q-180 35 -263 119.5t-83 232.5z" />
<glyph unicode="&#x178;" horiz-adv-x="1215" d="M5 1634h319l288 -616l294 616h308l-462 -886v-748h-292v748zM251 1872v261h270v-261h-270zM695 1872v261h268v-261h-268z" />
<glyph unicode="&#x17d;" horiz-adv-x="1086" d="M86 0v218l597 1182h-545v234h863v-218l-598 -1182h575v-234h-892zM114 2214h296l133 -175l133 175h294l-312 -379h-230z" />
<glyph unicode="&#x17e;" horiz-adv-x="957" d="M54 1730h296l133 -175l133 175h294l-312 -379h-230zM89 0v226l447 708h-405v234h724v-222l-447 -712h423v-234h-742z" />
<glyph unicode="&#x192;" horiz-adv-x="736" d="M-103 -162q54 -5 115 -8.5t89 -3.5q35 0 55 19t20 66v1035h-141v222h141v152q0 160 90 245.5t236 85.5q73 0 138.5 -9.5t111.5 -21.5v-227q-46 10 -95.5 17.5t-112.5 7.5q-54 0 -73 -27t-19 -64v-159h268v-222h-268v-1025q0 -153 -75 -241t-239 -88q-54 0 -120.5 6 t-120.5 13v227z" />
<glyph unicode="&#x2c6;" horiz-adv-x="1018" d="M82 1354l314 379h228l314 -379h-296l-133 177l-133 -177h-294z" />
<glyph unicode="&#x2c7;" horiz-adv-x="1018" d="M82 1730h296l133 -175l133 175h294l-312 -379h-230z" />
<glyph unicode="&#x2c9;" horiz-adv-x="771" d="M61 1414v237h649v-237h-649z" />
<glyph unicode="&#x2d8;" horiz-adv-x="879" d="M82 1698h267q5 -59 25 -87t66 -28q47 0 67.5 28t25.5 87h266q-12 -148 -100.5 -239.5t-258.5 -91.5q-169 0 -257.5 91.5t-100.5 239.5z" />
<glyph unicode="&#x2d9;" horiz-adv-x="429" d="M82 1435v270h267v-270h-267z" />
<glyph unicode="&#x2da;" horiz-adv-x="670" d="M82 1524q0 113 69.5 185.5t185.5 72.5q115 0 184 -72.5t69 -185.5q0 -110 -69 -183t-184 -73t-185 73t-70 183zM270 1526q0 -42 20 -59t47 -17q28 0 46 17t18 59q0 45 -18.5 61.5t-45.5 16.5t-47 -16.5t-20 -61.5z" />
<glyph unicode="&#x2db;" horiz-adv-x="751" d="M152 -172q0 104 46 189.5t95 142.5h235q-59 -92 -96.5 -175t-37.5 -149q0 -38 18 -51t50 -13q52 0 98.5 6t86.5 18v-199q-49 -12 -103 -23.5t-112 -11.5q-155 0 -217.5 66.5t-62.5 199.5z" />
<glyph unicode="&#x2dc;" horiz-adv-x="856" d="M82 1354v236q63 54 117 75t103 21q42 0 79 -14t70 -28t64 -28t62 -14q40 0 92.5 21t104.5 75v-233q-59 -56 -104.5 -76t-92.5 -20q-51 0 -88 13.5t-67.5 28.5t-63 28t-72.5 13q-50 0 -98 -23.5t-106 -74.5z" />
<glyph unicode="&#x2dd;" horiz-adv-x="1081" d="M82 1396l244 403h375l-354 -403h-265zM565 1396l249 403h370l-356 -403h-263z" />
<glyph unicode="&#x3a9;" horiz-adv-x="1304" d="M118 835q0 204 23 357.5t82.5 255.5t158.5 152.5t252 50.5q154 0 254 -50.5t158 -152.5t81 -255.5t23 -357.5q0 -150 -19.5 -253t-49 -172.5t-63 -113t-59.5 -73.5h186v-223h-460v241q99 40 137 178.5t38 415.5q0 169 -11 279t-37 173.5t-70 88t-108 24.5t-107 -24.5 t-69 -88t-38 -172.5t-12 -280q0 -279 39.5 -419.5t139.5 -176.5v-239h-456v223h176q-27 30 -59 73.5t-61.5 113t-49 172.5t-19.5 253z" />
<glyph unicode="&#x3bc;" horiz-adv-x="1182" d="M155 -398v1566h275v-800q0 -66 34.5 -109t105.5 -43q68 0 115 51.5t47 112.5v788h276v-1168h-222l-22 118q-12 -22 -30.5 -45.5t-44 -44.5t-58.5 -33t-78 -12q-47 0 -78.5 17t-44.5 32v-430h-275z" />
<glyph unicode="&#x3c0;" horiz-adv-x="1318" d="M79 946v222h1110v-222h-183v-660q0 -35 8 -47.5t32 -12.5q20 0 41.5 3t47.5 7v-219q-32 -5 -76 -13.5t-98 -8.5q-44 0 -86 12t-74 45.5t-51.5 90t-19.5 143.5v660h-200v-946h-274v946h-177z" />
<glyph unicode="&#xe01;" horiz-adv-x="1264" d="M96 1015v132q54 40 119 77t135 65.5t145 45t149 16.5q239 0 356.5 -115t117.5 -319v-917h-265v917q0 96 -44.5 157t-164.5 61q-96 0 -165 -25.5t-113 -52.5v-11l59 -68v-978h-265v959z" />
<glyph unicode="&#xe02;" horiz-adv-x="1130" d="M103 394v201q0 73 35.5 134.5t80 115t80.5 103t36 104.5q0 38 -12.5 60.5t-50.5 22.5h-169v209h169q160 0 235 -71.5t75 -230.5q0 -69 -33 -125.5t-74 -108t-74 -100.5t-33 -101v-213q0 -96 40 -143t140 -47q40 0 87.5 3.5t82.5 8.5v1116h265v-1315q-35 -5 -89 -11 t-117.5 -11t-134 -8.5t-136.5 -3.5q-81 0 -155 24.5t-129 74t-87 127t-32 185.5z" />
<glyph unicode="&#xe03;" horiz-adv-x="1208" d="M118 1207q0 59 20 125h223q-9 -35 -11.5 -51.5t-2.5 -37.5q0 -44 44 -44q30 0 49.5 30t35.5 103h195v-236q0 -89 -36.5 -158.5t-82.5 -132.5t-83 -124.5t-37 -132.5v-154q0 -96 41 -143t141 -47q40 0 94 3.5t89 8.5v1116h265v-1315q-35 -5 -91.5 -11t-123 -11t-138 -8.5 t-137.5 -3.5q-84 0 -157 24.5t-128 74t-87.5 127t-32.5 185.5v154q0 84 46.5 156t103 136.5t103.5 124.5t47 121q-28 -24 -67 -39t-102 -15q-80 0 -130 43t-50 132z" />
<glyph unicode="&#xe04;" horiz-adv-x="1276" d="M148 0v902q0 92 33 174t96 144.5t154.5 99t206.5 36.5q116 0 208 -36.5t155 -99t96 -146.5t33 -174v-900h-265v902q0 111 -60 174.5t-167 63.5q-103 0 -164 -63.5t-61 -174.5v-283q27 71 81 113t123 42q39 0 62.5 -3.5t50.5 -13.5v-227q-35 5 -73 8t-64 3 q-73 0 -126.5 -54.5t-53.5 -144.5v-342h-265z" />
<glyph unicode="&#xe05;" horiz-adv-x="1290" d="M148 0v952q0 147 87 257.5t274 141.5l133 -139l137 137q180 -33 271.5 -142t91.5 -255v-952h-265v952q0 75 -23.5 114.5t-49.5 51.5l-148 -112h-34l-141 108q-24 -12 -46 -47t-22 -115v-333q27 71 81 113t123 42q39 0 62.5 -3.5t50.5 -13.5v-227q-35 5 -73 8t-64 3 q-73 0 -126.5 -54.5t-53.5 -144.5v-342h-265z" />
<glyph unicode="&#xe06;" horiz-adv-x="1255" d="M118 1207q0 59 20 125h223q-9 -35 -11.5 -51.5t-2.5 -37.5q0 -44 44 -44q30 0 49.5 30t35.5 103h195v-236q0 -89 -38 -158.5t-84.5 -132.5t-85 -124.5t-38.5 -132.5v-108q0 -44 16 -86t45.5 -75t71.5 -54t94 -21q96 0 143 50.5t47 167.5v908h267v-908q0 -231 -112.5 -335 t-298.5 -104q-208 0 -315 193l-22 -176h-201v548q0 89 48 163.5t105.5 138.5t105.5 122t48 114q-28 -24 -67 -39t-102 -15q-80 0 -130 43t-50 132z" />
<glyph unicode="&#xe07;" horiz-adv-x="1156" d="M24 1049h295l300 -840h45q34 0 57.5 23.5t23.5 62.5v831h-168v206h433v-1027q0 -143 -82 -224t-201 -81h-302z" />
<glyph unicode="&#xe08;" horiz-adv-x="1140" d="M113 1074v216q86 28 196.5 44.5t204.5 16.5q265 0 384.5 -127.5t119.5 -402.5q0 -141 -43.5 -284t-94.5 -265q-62 -140 -135 -272h-285l-183 539h-134v206h326l150 -519q17 44 40.5 108t44.5 140.5t34.5 163.5t13.5 183q0 164 -58 239t-183 75q-105 0 -192 -14.5 t-206 -46.5z" />
<glyph unicode="&#xe09;" horiz-adv-x="1213" d="M84 572v207h341v-373q0 -104 32.5 -152t124.5 -48q47 0 86.5 23.5t67.5 58t45.5 74t20.5 70.5v520q0 86 -63 130t-179 44q-103 0 -194 -15t-216 -49v228q86 28 200 44.5t208 16.5q268 0 388.5 -109t120.5 -290v-952h-199l-30 155q-12 -30 -35.5 -59.5t-60 -54t-88.5 -40 t-121 -15.5q-108 0 -180.5 31.5t-115.5 87t-60 132.5t-17 169v166h-76z" />
<glyph unicode="&#xe0a;" horiz-adv-x="1184" d="M138 1135v209h157q133 0 204 -55t71 -180q0 -61 -22 -114.5t-48 -104t-47 -102t-21 -105.5v-449q42 -17 81.5 -23.5t81.5 -6.5q108 0 167 47t59 174v379q0 101 -38 134t-98 33h-47v140l148 324h312l-214 -339q47 -8 84.5 -26t63 -51.5t40 -86t14.5 -128.5v-382 q0 -117 -34 -200.5t-98.5 -136.5t-156 -77.5t-207.5 -24.5q-142 0 -246.5 30.5t-176.5 77.5v580q0 68 23.5 130t52.5 113.5t52.5 90.5t23.5 69q0 35 -10.5 48t-38.5 13h-132z" />
<glyph unicode="&#xe0b;" horiz-adv-x="1208" d="M42 1207q0 59 19 125h225q-10 -35 -13 -51.5t-3 -37.5q0 -44 44 -44q30 0 49.5 30t37.5 103h194v-236q0 -89 -25.5 -155t-55.5 -126t-56 -123t-26 -144v-314q42 -17 93.5 -23.5t93.5 -6.5q108 0 167.5 47t59.5 174v379q0 101 -38.5 134t-97.5 33h-46v140l147 324h312 l-213 -339q46 -8 83 -26t62.5 -51.5t40.5 -86t15 -128.5v-382q0 -117 -34.5 -200.5t-98.5 -136.5t-156 -77.5t-208 -24.5q-130 0 -252.5 30.5t-194.5 77.5v469q0 89 34.5 156.5t77.5 128t77.5 118t34.5 123.5q-27 -24 -66 -39t-104 -15q-79 0 -129 43t-50 132z" />
<glyph unicode="&#xe0c;" horiz-adv-x="1857" d="M96 1015v132q110 79 243 141.5t283 62.5q238 0 348.5 -115t110.5 -319v-495q3 -32 19 -70t43 -71t66 -55t88 -22q89 0 118.5 54t29.5 131v941h265v-908q0 -211 -92 -325t-291 -114q-110 0 -179 51.5t-104 117.5l-24 -152h-204v917q0 96 -38.5 157t-155.5 61 q-99 0 -155.5 -28t-100.5 -50v-11l59 -68v-718q0 -39 11.5 -50t32.5 -11q19 0 42.5 3.5t39.5 8.5v-189q-37 -12 -77 -20.5t-96 -8.5q-47 0 -86 12t-68.5 43t-46.5 84t-17 136v691z" />
<glyph unicode="&#xe0d;" horiz-adv-x="1862" d="M96 1015v132q110 79 243 141.5t283 62.5q238 0 348.5 -115t110.5 -319v-467q0 -37 6 -70t24.5 -57.5t50.5 -38.5t81 -14q42 0 79.5 18.5t64.5 48t42.5 63.5t20.5 67v863h266v-1156q0 -110 -26.5 -208.5t-85 -172t-153.5 -116.5t-229 -43q-99 0 -184.5 9.5t-169.5 21.5 v222q66 -14 151 -25.5t200 -11.5q73 0 119 27t73 75t36.5 114.5t9.5 147.5q-12 -28 -34.5 -57.5t-55.5 -53.5t-79.5 -39t-107.5 -15q-185 0 -274.5 95t-89.5 304v469q0 96 -38.5 157t-155.5 61q-99 0 -155.5 -28t-100.5 -50v-11l59 -68v-718q0 -39 11.5 -50t32.5 -11 q19 0 42.5 3.5t39.5 8.5v-189q-37 -12 -77 -20.5t-96 -8.5q-47 0 -86 12t-68.5 43t-46.5 84t-17 136v691z" />
<glyph unicode="&#xe0e;" horiz-adv-x="1264" d="M35 22v189q37 -12 80 -12q24 0 39 14.5t15 54.5v686l-73 61v132q54 40 119 77t135 65.5t145 45t149 16.5q239 0 356.5 -115t117.5 -319v-1032q0 -91 -24.5 -153.5t-69 -103.5t-103 -59.5t-127.5 -18.5q-30 0 -67 5t-77 10t-77.5 10t-66.5 5q-39 0 -69.5 -6t-56.5 -12 q-27 -7 -51 -14v213q24 10 51 21q24 7 56.5 13t69.5 6q62 0 128.5 -17.5t122.5 -17.5q47 0 71.5 24.5t24.5 87.5v1039q0 96 -44.5 157t-164.5 61q-91 0 -162.5 -27t-115.5 -51v-11l74 -75v-699q0 -84 -19.5 -137t-51.5 -85.5t-74 -44.5t-86 -12q-59 0 -98.5 8.5t-75.5 20.5z " />
<glyph unicode="&#xe0f;" horiz-adv-x="1264" d="M35 19v190q37 -12 80 -12q24 0 39 14.5t15 53.5v687l-73 61v132q54 39 119 76.5t135 67t145 46t149 16.5q239 0 356.5 -116.5t117.5 -320.5v-1039q0 -84 -27 -144t-73.5 -100.5t-108 -60.5t-130.5 -20l-172 98l-155 -98q-16 0 -46 1t-61 2.5t-59 4t-42 4.5v234 q12 -2 35 -7t51.5 -10t58 -9t54.5 -4l150 94h29l145 -94q49 0 67.5 33.5t18.5 75.5v1039q0 96 -44.5 158.5t-164.5 62.5q-91 0 -162.5 -28t-115.5 -52v-11l74 -76v-698q0 -84 -19.5 -137.5t-51.5 -86t-74 -44.5t-86 -12q-59 0 -98.5 8.5t-75.5 20.5z" />
<glyph unicode="&#xe10;" horiz-adv-x="1142" d="M122 1074v216q87 28 195 44.5t201 16.5q174 0 291 -61l309 49v-246l-154 9q24 -50 39 -125t15 -180q0 -141 -43.5 -281t-94.5 -256q-62 -135 -138 -260h-285l-177 539h-135v206h327l145 -494q17 44 41.5 109t44 138.5t34.5 150t15 148.5q0 164 -58 251t-178 87 q-52 0 -98.5 -3.5t-92 -10.5t-94.5 -20t-109 -27zM157 -223q24 -12 78.5 -23.5t104.5 -11.5l174 98h30l166 -98q66 0 66 84v54h244v-67q0 -71 -21 -124t-57.5 -90t-84.5 -55t-102 -18h-47l-180 103l-181 -103q-49 0 -102 3.5t-88 15.5v232z" />
<glyph unicode="&#xe11;" horiz-adv-x="1383" d="M42 1212q0 32 5 60t14 60h227q-12 -28 -15 -52t-3 -44q0 -37 35 -37q30 0 48 27t38 106h196l-34 -221q59 103 147 169t205 66q189 0 260 -104t71 -320v-922h-265v934q0 79 -20 133t-88 54q-66 0 -123 -56.5t-98.5 -130.5t-68.5 -146.5t-29 -104.5v-683h-267v752 q0 24 14 71t31.5 96t35.5 96t25 71q-35 -28 -77.5 -42t-77.5 -14q-187 0 -186 182z" />
<glyph unicode="&#xe12;" horiz-adv-x="1867" d="M86 656q0 134 23.5 249t71 205.5t122.5 153.5t176 87l182 -144l207 142q24 0 58.5 -6t66.5 -13.5t59 -14.5t39 -13v-870q2 -32 18.5 -70t43.5 -71t66.5 -55t88.5 -22q89 0 117.5 54t28.5 130v932h267v-908q0 -216 -83 -327.5t-278 -111.5q-123 0 -197.5 50.5 t-107.5 118.5l-25 -152h-204v1098l-150 -113h-40l-174 133q-110 -81 -110 -464q0 -131 13 -216.5t36.5 -137.5t57 -74t71.5 -22q42 0 74 6t74 22v-210q-28 -12 -71.5 -25.5t-119.5 -13.5q-182 0 -291.5 168t-109.5 505z" />
<glyph unicode="&#xe13;" horiz-adv-x="1864" d="M96 1015v132q110 79 243 141.5t283 62.5q238 0 348.5 -115t110.5 -319v-514q0 -81 34.5 -140t130.5 -59q49 0 87.5 22t64 55t39 75t15.5 78v896h266v-1330h-196l-33 162q-30 -76 -103 -127.5t-199 -51.5q-185 0 -278 105.5t-93 333.5v495q0 96 -38.5 157t-155.5 61 q-99 0 -155.5 -28t-100.5 -50v-11l59 -68v-718q0 -39 11.5 -50t32.5 -11q19 0 42.5 3.5t39.5 8.5v-189q-37 -12 -77 -20.5t-96 -8.5q-47 0 -86 12t-68.5 43t-46.5 84t-17 136v691z" />
<glyph unicode="&#xe14;" horiz-adv-x="1220" d="M86 629q0 201 39 339t113 223t178.5 120t237.5 35q120 0 237 -10.5t183 -22.5v-1313h-265v1121q-35 5 -82 7t-85 2q-71 0 -125.5 -25.5t-91 -84.5t-55 -155t-18.5 -236q0 -237 43 -330t128 -93q49 0 81 5t69 10v-199q-32 -17 -76 -26.5t-121 -9.5q-84 0 -154.5 35 t-123.5 112.5t-82.5 200.5t-29.5 295z" />
<glyph unicode="&#xe15;" horiz-adv-x="1248" d="M86 656q0 296 88.5 471t292.5 224l194 -150l216 148q24 0 59 -6t66.5 -13.5t58.5 -14.5t41 -13v-1302h-267v1098l-159 -113h-40l-169 129q-57 -33 -86 -142t-29 -318q0 -131 13 -216.5t36.5 -137.5t57 -74t71.5 -22q42 0 74 6t74 22v-210q-28 -12 -71.5 -25.5 t-119.5 -13.5q-182 0 -291.5 168t-109.5 505z" />
<glyph unicode="&#xe16;" horiz-adv-x="1264" d="M96 1015v132q54 40 119 77t135 65.5t145 45t149 16.5q239 0 356.5 -115t117.5 -319v-917h-265v917q0 96 -44.5 157t-164.5 61q-96 0 -165 -28t-113 -52v-11l59 -66v-718q0 -39 11.5 -50t32.5 -11q19 0 42.5 3.5t39.5 8.5v-189q-37 -12 -77 -20.5t-96 -8.5q-47 0 -86 12 t-68.5 43t-46.5 84t-17 136v691z" />
<glyph unicode="&#xe17;" horiz-adv-x="1231" d="M148 0v1332h199l21 -169q47 79 131.5 131t194.5 52q391 0 390 -427v-919h-266v922q0 91 -34 149.5t-132 58.5q-50 0 -93 -21t-73.5 -54t-50.5 -73.5t-22 -79.5v-902h-265z" />
<glyph unicode="&#xe18;" horiz-adv-x="1093" d="M115 995q0 110 43.5 178t113.5 107.5t159.5 52.5t182.5 13q42 0 89 -4.5t88.5 -10.5t77.5 -13.5t57 -13.5v-220q-68 16 -149 31t-177 15q-71 0 -114 -9.5t-66.5 -27t-31.5 -40.5t-8 -52q0 -57 62 -79t156 -35q110 -12 187.5 -42.5t125.5 -82.5t70 -129t22 -183 q0 -244 -109.5 -355.5t-333.5 -111.5q-133 0 -242 29.5t-180 76.5v483l258 -2v-342q42 -17 90.5 -20.5t78.5 -3.5q89 0 130.5 65.5t41.5 170.5q0 96 -40.5 150t-133.5 66q-84 10 -164 25t-142.5 50.5t-102 96.5t-39.5 167z" />
<glyph unicode="&#xe19;" horiz-adv-x="1255" d="M148 422v910h265v-919q0 -94 44.5 -151.5t156.5 -57.5q94 0 159 63.5t69 166.5v898h267v-1332h-197l-32 157q-38 -75 -117.5 -124.5t-204.5 -49.5q-211 0 -310.5 114t-99.5 325z" />
<glyph unicode="&#xe1a;" horiz-adv-x="1233" d="M148 403v929h265v-929q0 -86 50.5 -142.5t153.5 -56.5t153.5 56.5t50.5 142.5v929h265v-929q0 -185 -117.5 -302.5t-351.5 -117.5q-115 0 -204 32t-148 88.5t-88 132.5t-29 167z" />
<glyph unicode="&#xe1b;" horiz-adv-x="1262" d="M148 403v929h265v-929q0 -86 57.5 -142.5t160.5 -56.5q106 0 163 56.5t57 142.5v1354h265v-1354q0 -185 -124 -302.5t-361 -117.5q-115 0 -204.5 32t-152.5 88.5t-94.5 132.5t-31.5 167z" />
<glyph unicode="&#xe1c;" horiz-adv-x="1326" d="M148 0v1332h442v-206h-182v-699l169 325h168l174 -327v907h261v-1332h-239l-273 490l-272 -490h-248z" />
<glyph unicode="&#xe1d;" horiz-adv-x="1326" d="M148 0v1332h442v-206h-182v-699l169 325h168l174 -327v1329h261v-1754h-239l-273 490l-272 -490h-248z" />
<glyph unicode="&#xe1e;" horiz-adv-x="1410" d="M122 1332h276l57 -835l164 483h202l147 -469l59 821h261l-108 -1332h-261l-206 587l-219 -587h-253z" />
<glyph unicode="&#xe1f;" horiz-adv-x="1390" d="M122 1332h276l57 -835l164 483h202l147 -469l66 1219h261l-115 -1730h-261l-206 587l-219 -587h-253z" />
<glyph unicode="&#xe20;" horiz-adv-x="1264" d="M35 22v194q37 -12 80 -12q24 0 39 15t15 53v682l-73 61v132q54 40 119 77t135 65.5t145 45t149 16.5q239 0 356.5 -115t117.5 -319v-917h-265v917q0 96 -44.5 157t-164.5 61q-86 0 -160 -28t-118 -50v-11l74 -75v-699q0 -84 -19.5 -137t-51.5 -85.5t-74 -44.5t-86 -12 q-59 0 -98.5 8.5t-75.5 20.5z" />
<glyph unicode="&#xe21;" horiz-adv-x="1231" d="M148 0v1332h265v-889q5 -103 66.5 -171t162.5 -68q59 0 93 17.5t52.5 47t24.5 66t6 75.5v922h266v-912q0 -226 -101 -331.5t-300 -105.5q-103 0 -185.5 48t-124.5 121l-24 -152h-201z" />
<glyph unicode="&#xe22;" horiz-adv-x="1196" d="M98 408q0 68 19 121t49.5 90t70.5 59.5t82 34.5q-30 9 -65.5 32.5t-64.5 59t-49 84.5t-20 108q0 99 26 165.5t74 107t114.5 58.5t146.5 18q57 0 100 -8t66 -16v-206q-28 5 -68 9.5t-87 4.5q-101 0 -101 -159q0 -94 40.5 -127t98.5 -33h138v-209h-152q-86 0 -117 -51.5 t-31 -147.5q0 -103 44.5 -151t140.5 -48q35 0 74 1t74 6q42 3 83 7v1114h265v-1310q-82 -10 -165 -20q-70 -7 -155 -13t-157 -6q-122 0 -211 18t-147.5 66t-87 130.5t-28.5 210.5z" />
<glyph unicode="&#xe23;" horiz-adv-x="999" d="M98 941q0 110 37 188t98.5 125.5t141.5 69.5t164 22q42 0 87 -4.5t88 -12t77.5 -16.5t54.5 -13v-226q-71 17 -156 32t-172 15q-73 0 -111.5 -48t-38.5 -119q0 -47 11.5 -75t31 -45.5t50.5 -27t67 -18.5q89 -19 158 -44.5t117 -69t73.5 -109.5t25.5 -167 q0 -192 -102 -303.5t-333 -111.5q-45 0 -90.5 5t-88 12t-78.5 15.5t-58 14.5v226q54 -12 145.5 -29.5t181.5 -17.5q44 0 73.5 17.5t47 44.5t24.5 58.5t7 61.5q0 47 -10.5 76.5t-29.5 45t-44.5 24.5t-54.5 14q-89 14 -161.5 40t-124 70.5t-80 111.5t-28.5 168z" />
<glyph unicode="&#xe24;" horiz-adv-x="1264" d="M96 1015v132q54 40 119 77t135 65.5t145 45t149 16.5q239 0 356.5 -115t117.5 -319v-1360h-265v1360q0 96 -44.5 157t-164.5 61q-96 0 -165 -28t-113 -52v-11l59 -66v-713q0 -39 11.5 -50t32.5 -11q19 0 42.5 3.5t39.5 8.5v-194q-37 -12 -77 -20.5t-96 -8.5q-47 0 -86 12 t-68.5 43t-46.5 84t-17 136v691z" />
<glyph unicode="&#xe25;" horiz-adv-x="1176" d="M86 391q0 221 127 319.5t382 98.5h169v129q0 94 -46.5 143t-149.5 49q-52 0 -96.5 -3.5t-88 -10.5t-93 -19.5t-110.5 -29.5v218q86 28 189 44.5t196 16.5q131 0 219 -24.5t143.5 -76t79 -130t23.5 -189.5v-926h-266v593h-182q-133 0 -181.5 -45.5t-48.5 -144.5 q0 -93 25.5 -147t112.5 -54q16 0 44.5 2t55.5 7l66 10v-221q-32 -5 -63 -10q-28 -4 -58.5 -6.5t-50.5 -2.5q-80 0 -150.5 16.5t-126 62.5t-88.5 125.5t-33 205.5z" />
<glyph unicode="&#xe26;" horiz-adv-x="1264" d="M35 22v194q37 -12 80 -12q24 0 39 15t15 53v682l-73 61v132q54 40 119 77t135 65.5t145 45t149 16.5q239 0 356.5 -115t117.5 -319v-1360h-265v1360q0 96 -44.5 157t-164.5 61q-86 0 -160 -28t-118 -50v-11l74 -75v-699q0 -84 -19.5 -137t-51.5 -85.5t-74 -44.5t-86 -12 q-59 0 -98.5 8.5t-75.5 20.5z" />
<glyph unicode="&#xe27;" horiz-adv-x="1027" d="M73 1093v211q30 8 75.5 15.5t96 13.5t101 9.5t88.5 3.5q148 0 244 -49t151 -138.5t77.5 -213.5t22.5 -272q0 -185 -28.5 -315t-90.5 -213.5t-159.5 -121t-232.5 -37.5q-62 0 -133 12t-128 32v209q61 -12 138.5 -24.5t134.5 -12.5q133 0 183.5 115t50.5 351 q0 244 -49.5 353t-182.5 109q-113 0 -197.5 -10.5t-161.5 -26.5z" />
<glyph unicode="&#xe28;" horiz-adv-x="1276" d="M148 0v914q0 92 33 171.5t96 139.5t154.5 95.5t206.5 35.5q108 0 177 -26t111 -64l293 66v-241l-147 15q19 -24 38.5 -63.5t19.5 -128.5v-914h-265v902q0 111 -60 174.5t-167 63.5q-103 0 -164 -63.5t-61 -174.5v-283q27 71 81 113t123 42q39 0 62.5 -3.5t50.5 -13.5 v-227q-35 5 -73 8t-64 3q-73 0 -126.5 -54.5t-53.5 -144.5v-342h-265z" />
<glyph unicode="&#xe29;" horiz-adv-x="1233" d="M148 403v929h265v-929q0 -86 50.5 -142.5t153.5 -56.5t153.5 56.5t50.5 142.5v221h-303v276h197v-74h106v506h265v-506h108v-202h-108v-221q0 -185 -117.5 -302.5t-351.5 -117.5q-115 0 -204 32t-148 88.5t-88 132.5t-29 167z" />
<glyph unicode="&#xe2a;" horiz-adv-x="1176" d="M86 391q0 221 127 317t382 96h169v132q0 86 -46.5 140t-149.5 54q-52 0 -96.5 -3.5t-88 -10.5t-93 -19.5t-110.5 -29.5v218q86 28 189 44.5t196 16.5q111 0 178.5 -19t109.5 -54l275 61v-243l-145 18q17 -24 32 -69t15 -109v-931h-266v587h-182q-133 0 -181.5 -42.5 t-48.5 -141.5q0 -93 25.5 -147t112.5 -54q16 0 44.5 2t55.5 7l66 10v-221q-32 -5 -63 -10q-28 -4 -58.5 -6.5t-50.5 -2.5q-80 0 -150.5 16.5t-126 62.5t-88.5 125.5t-33 205.5z" />
<glyph unicode="&#xe2b;" horiz-adv-x="1142" d="M148 0v1332h265v-396h204q68 0 107.5 90t39.5 306h268q0 -234 -51.5 -360t-150.5 -191l300 -781h-292l-248 715h-177v-715h-265z" />
<glyph unicode="&#xe2c;" horiz-adv-x="1414" d="M122 1332h274l66 -882l180 396h174l169 -391q19 255 27 398.5t8 149.5q0 76 -33 114.5t-131 40.5v169q68 0 107.5 9.5t59 36.5t26 74t6.5 119h282q0 -113 -35.5 -178.5t-77.5 -99.5q-49 -42 -110 -57q79 -19 125 -78.5t46 -144.5q0 -32 -3.5 -81.5t-13 -155t-28 -288.5 t-46.5 -483h-238l-234 544l-248 -544h-230z" />
<glyph unicode="&#xe2d;" horiz-adv-x="1130" d="M136 86v688h441v-209h-191v-333q40 -15 85 -22.5t73 -7.5q51 0 92.5 22t69.5 77t44.5 149t16.5 235q0 133 -16.5 220t-48 136.5t-78.5 69t-108 19.5q-66 0 -157 -9.5t-179 -24.5v212q24 7 68.5 13t91 12t90.5 9.5t72 3.5q120 0 218 -24.5t168.5 -95t107 -199.5t36.5 -339 q0 -200 -27 -333.5t-87 -216t-155 -117.5t-228 -35q-115 0 -224 29t-175 71z" />
<glyph unicode="&#xe2e;" horiz-adv-x="1156" d="M136 86v688h441v-209h-191v-333q40 -15 85 -22.5t73 -7.5q51 0 92.5 22t71 77t45.5 149t16 235q0 133 -13.5 220t-43 136.5t-77.5 69t-117 19.5q-66 0 -158 -9.5t-178 -24.5v212q24 7 68.5 13t91.5 12t90.5 9.5t71.5 3.5q125 0 191.5 -19t101.5 -37l333 44v-243l-178 13 q27 -42 54.5 -139t27.5 -277q0 -204 -28 -339t-88 -216t-155 -114t-228 -33q-115 0 -224 29t-175 71z" />
<glyph unicode="&#xe2f;" horiz-adv-x="1014" d="M82 1163q0 51 7 95t19 74h265q-12 -40 -19 -74t-7 -76q0 -40 16.5 -62t74.5 -22q49 0 87 22t67.5 58t48 76.5t30.5 77.5h221v-1332h-266v1008q-12 -17 -35 -39.5t-55 -40.5t-74 -32t-91 -14q-141 0 -215 71.5t-74 209.5z" />
<glyph unicode="&#xe30;" horiz-adv-x="882" d="M122 113v381h234v-147h378v-234h-612zM122 828v382h234v-148h378v-234h-612z" />
<glyph unicode="&#xe31;" d="M-713 1548v368h234v-159h612v-209h-846z" />
<glyph unicode="&#xe32;" horiz-adv-x="938" d="M73 1098v202q24 7 62.5 16t81.5 15t86.5 10.5t76.5 4.5q204 0 307.5 -103t103.5 -351v-892h-270v865q0 153 -36.5 209t-132.5 56q-71 0 -149 -9.5t-130 -22.5z" />
<glyph unicode="&#xe33;" horiz-adv-x="938" d="M-481 1667q0 110 63.5 177.5t173.5 67.5q113 0 176 -67.5t63 -177.5q0 -111 -64 -178.5t-175 -67.5q-110 0 -173.5 67t-63.5 179zM-305 1667q0 -35 17 -57t44 -22q28 0 45 22t17 57q0 39 -17 59.5t-45 20.5q-27 0 -44 -21t-17 -59zM73 1098v202q24 7 62.5 16t81.5 15 t86.5 10.5t76.5 4.5q204 0 307.5 -103t103.5 -351v-892h-270v865q0 153 -36.5 209t-132.5 56q-71 0 -149 -9.5t-130 -22.5z" />
<glyph unicode="&#xe34;" d="M-1060 1548v209h888v-209h-888z" />
<glyph unicode="&#xe35;" d="M-1046 1548v209h640v159h234v-368h-874z" />
<glyph unicode="&#xe36;" d="M-1060 1548v209h465q0 105 61.5 169.5t157.5 64.5q99 0 160 -57.5t61 -174.5q0 -211 -221 -211h-684zM-422 1762q0 -28 12 -48.5t34 -20.5q28 0 40 19.5t12 49.5q0 27 -12.5 48t-39.5 21q-21 0 -33.5 -21t-12.5 -48z" />
<glyph unicode="&#xe37;" d="M-1060 1548v209h404v159h192v-159h100v159h192v-368h-888z" />
<glyph unicode="&#xe38;" d="M-563 -122q28 9 78.5 15t98.5 6q37 0 75.5 -8.5t67.5 -33t48 -67.5t19 -112v-243h-258v211q0 14 -10.5 25.5t-39.5 11.5q-19 0 -41.5 -3.5t-37.5 -8.5v207z" />
<glyph unicode="&#xe39;" d="M-865 -138q35 12 83 20t86 8q82 0 128.5 -32t46.5 -130v-162q0 -17 15.5 -25t31.5 -8q17 0 32 7.5t15 25.5v316h251v-307q0 -125 -83 -179.5t-215 -54.5q-148 0 -223 55.5t-75 155.5v80q0 16 -11 20t-28 4q-12 0 -28.5 -2.5t-25.5 -2.5v211z" />
<glyph unicode="&#xe3a;" d="M-469 -176h293v-293h-293v293z" />
<glyph unicode="&#xe3f;" horiz-adv-x="1179" d="M155 5v1452q37 7 79 18q35 7 78.5 12t85.5 9v234h236v-236q169 -19 257.5 -115t88.5 -295q0 -50 -12 -95.5t-31.5 -84.5t-45.5 -68.5t-53 -47.5q68 -19 122.5 -95t54.5 -238q0 -125 -25.5 -211.5t-76 -140.5t-121 -81t-158.5 -34v-232h-236v230q-44 2 -87 4.5t-77 7.5 q-42 4 -79 7zM418 216q27 -2 66 -3.5t81 -1.5q40 0 73 7.5t56.5 32t37 70.5t13.5 122q0 110 -37 164t-140 54h-150v-445zM418 882h128q32 0 61 8t53.5 27t39.5 56t15 96q0 103 -33 156t-136 53q-19 0 -42 -1t-42 -1q-22 -3 -44 -3v-391z" />
<glyph unicode="&#xe40;" horiz-adv-x="624" d="M160 268v1064h265v-1072q0 -39 11.5 -50t32.5 -11q19 0 42.5 3.5t39.5 8.5v-189q-37 -12 -77 -20.5t-96 -8.5q-47 0 -86 12t-68.5 43t-46.5 84t-17 136z" />
<glyph unicode="&#xe41;" horiz-adv-x="1189" d="M160 268v1064h265v-1072q0 -39 11.5 -50t32.5 -11q19 0 42.5 3.5t39.5 8.5v-189q-37 -12 -77 -20.5t-96 -8.5q-47 0 -86 12t-68.5 43t-46.5 84t-17 136zM727 268v1064h265v-1072q0 -39 11.5 -50t33.5 -11q19 0 43 3.5t38 8.5v-189q-37 -12 -76 -20.5t-96 -8.5 q-47 0 -86 12t-68.5 43t-47 84t-17.5 136z" />
<glyph unicode="&#xe42;" horiz-adv-x="624" d="M-44 1658q0 120 40.5 198t102 122.5t135 61.5t137.5 17q108 0 190.5 -18.5t123.5 -30.5v-219q-56 19 -128.5 33t-185.5 14q-79 0 -120.5 -27t-51.5 -62q35 -19 74 -56t73 -92.5t56.5 -131.5t22.5 -172v-1035q0 -39 11.5 -50t32.5 -11q19 0 42.5 3.5t39.5 8.5v-189 q-37 -12 -77 -20.5t-96 -8.5q-47 0 -86 12t-68.5 43t-46.5 84t-17 136v1010q0 169 -58 258t-146 122z" />
<glyph unicode="&#xe43;" horiz-adv-x="624" d="M-37 1762v229q63 32 148.5 49t181.5 17q68 0 128 -14.5t105.5 -48t71.5 -85t26 -122.5q0 -69 -30.5 -124.5t-68.5 -111t-69 -120t-31 -153.5v-1018q0 -39 11.5 -50t32.5 -11q19 0 42.5 3.5t39.5 8.5v-189q-37 -12 -77 -20.5t-96 -8.5q-47 0 -86 12t-68.5 43t-46.5 84 t-17 136v1024q0 89 31.5 152.5t71 117t71.5 100t32 95.5q0 79 -106 79q-68 0 -136 -15t-161 -59z" />
<glyph unicode="&#xe44;" horiz-adv-x="624" d="M-35 1794v221q99 -37 244 -36q91 0 146 10.5t105 25.5h164v-172q0 -89 -30.5 -153.5t-68.5 -126.5t-69 -129t-31 -161v-1013q0 -39 11.5 -50t32.5 -11q19 0 42.5 3.5t39.5 8.5v-189q-37 -12 -77 -20.5t-96 -8.5q-47 0 -86 12t-68.5 43t-46.5 84t-17 136v1022 q0 89 36 161.5t79.5 132.5t85.5 113t57 102q-35 -19 -98.5 -28t-127.5 -9q-59 0 -117 9t-110 23z" />
<glyph unicode="&#xe45;" horiz-adv-x="926" d="M79 1093v207q24 7 63.5 16t83.5 15t88.5 10.5t76.5 4.5q216 0 320.5 -106.5t104.5 -345.5v-1334h-270v1332q0 124 -41 181t-137 57q-32 0 -72 -3.5t-81 -9.5t-77.5 -12.5t-58.5 -11.5z" />
<glyph unicode="&#xe46;" horiz-adv-x="1144" d="M127 973q0 180 90 268.5t223 88.5l144 -118l148 118q150 0 225 -75t75 -245v-1296h-265v1296q0 38 -14 66t-26 33l-117 -96h-47l-120 93q-15 -9 -32 -47.5t-17 -85.5q0 -49 13 -112.5t31 -112.5h-264q-19 51 -33 110t-14 115z" />
<glyph unicode="&#xe47;" d="M-978 1712v33q0 125 75 197.5t251 72.5q54 0 108 -5t119 -5q30 0 66.5 2.5t71 6t64 10t43.5 16.5v-227q-44 -9 -108 -13t-132 -4q-56 0 -111.5 8.5t-120.5 8.5q-49 0 -67 -15.5t-18 -40.5v-34q0 -24 14.5 -39t37.5 -15q35 0 54 12t44 52h108q7 -24 32 -42.5t58 -18.5h171 v-209h-122q-81 0 -129.5 39t-69.5 83q-19 -44 -72 -83t-139 -39q-110 0 -169 73t-59 176z" />
<glyph unicode="&#xe48;" d="M-403 2263v185h243v-187l-32 -256h-176z" />
<glyph unicode="&#xe49;" d="M-584 2200v196h410v-189h334v-202h-566v195h-178z" />
<glyph unicode="&#xe4a;" d="M-661 2008v204q0 37 16 66.5t42 50.5t56.5 31.5t62.5 10.5h34l155 -103l145 103h25q33 0 63 -9.5t55.5 -29.5t42 -47t16.5 -64v-26q61 0 115 12q27 7 51 14v-195q-32 -5 -66 -11q-32 -5 -71 -7.5t-81 -2.5q-30 0 -59.5 1.5t-53.5 3.5q-27 2 -51 7v150l-116 -63h-30 l-120 68v-164h-231z" />
<glyph unicode="&#xe4b;" d="M-570 2158v208h155v131h248v-131h155v-208h-162l-16 -153h-201l-15 153h-164z" />
<glyph unicode="&#xe4c;" d="M-656 2000v345h538v-209h-304v-136h-234z" />
<glyph unicode="&#xe4d;" d="M-481 1667q0 110 63.5 177.5t173.5 67.5q113 0 176 -67.5t63 -177.5q0 -111 -64 -178.5t-175 -67.5q-110 0 -173.5 67t-63.5 179zM-305 1667q0 -35 17 -57t44 -22q28 0 45 22t17 57q0 39 -17 59.5t-45 20.5q-27 0 -44 -21t-17 -59z" />
<glyph unicode="&#xe4e;" />
<glyph unicode="&#xe4f;" horiz-adv-x="1344" d="M122 626q0 162 46 280.5t122 196t175.5 114t207.5 36.5q106 0 205.5 -36.5t175.5 -114t122 -196t46 -280.5t-46 -280t-122 -195.5t-175.5 -114t-205.5 -36.5q-108 0 -207.5 36.5t-175.5 114t-122 195.5t-46 280zM312 626q0 -231 99.5 -345t261.5 -114q157 0 255.5 114 t98.5 345q0 232 -98.5 346t-255.5 114q-162 0 -261.5 -114t-99.5 -346zM484 626q0 134 54.5 192.5t132.5 58.5q79 0 133 -58.5t54 -192.5q0 -120 -55 -178.5t-132 -58.5q-76 0 -131.5 58.5t-55.5 178.5z" />
<glyph unicode="&#xe50;" horiz-adv-x="1282" d="M115 622q0 169 41 288.5t112.5 195.5t166.5 111.5t207 35.5q110 0 207 -35.5t167 -111.5t111 -195.5t41 -288.5q0 -170 -41 -290.5t-111 -196.5t-167 -111.5t-207 -35.5t-206 35.5t-167.5 111.5t-112.5 196.5t-41 290.5zM394 622q0 -123 15.5 -201.5t46.5 -125.5t78 -64 t108 -17t109 17t78.5 64t46.5 125.5t16 201.5q0 120 -16 198t-46.5 124t-78.5 64.5t-109 18.5t-108 -18.5t-78 -64.5t-46.5 -124t-15.5 -198z" />
<glyph unicode="&#xe51;" horiz-adv-x="1321" d="M115 722q0 118 35 215t102 167.5t170.5 109.5t243.5 39q152 0 255.5 -48.5t166 -137.5t90 -213t27.5 -272q0 -364 -137 -533t-404 -169q-54 0 -133 3.5t-145 20.5v223q74 -12 149 -13t126 -1q71 0 122.5 23.5t86.5 77.5t50.5 144t15.5 224q0 211 -59 328t-211 117 q-133 0 -206.5 -72.5t-73.5 -232.5q0 -73 10 -118.5t26 -71.5t36.5 -34t43.5 -8q7 0 22 1t20 3v165h244v-330q-49 -40 -116 -58t-168 -18q-79 0 -148.5 20t-122.5 71.5t-85.5 142t-32.5 235.5z" />
<glyph unicode="&#xe52;" horiz-adv-x="1454" d="M162 438v1049h281v-1053q0 -103 89.5 -163t236.5 -60q133 0 210.5 62t77.5 161v490q0 37 -4 67.5t-16 35.5l-103 -59h-29l-99 57q-16 -7 -25 -41.5t-9 -83.5q0 -68 11 -125t21 -92h-253q-12 42 -23.5 100.5t-11.5 116.5q0 185 75 266.5t218 81.5l110 -76l123 76 q159 0 227 -73t68 -251v-486q0 -86 -34.5 -167t-104.5 -144t-175.5 -102t-250.5 -39q-308 0 -459 120t-151 332z" />
<glyph unicode="&#xe53;" horiz-adv-x="1459" d="M140 329v576q0 89 26 153.5t73 109t109 66.5t133 22q59 0 102 -15t74 -37t53 -50t38 -52q14 24 36 51t54 50t73 38t92 15q141 0 229 -82.5t88 -271.5v-902h-281v912q0 118 -78 118q-51 0 -66 -40.5t-15 -84.5v-905h-256v914q0 69 -27 92.5t-76 23.5t-77.5 -28.5 t-28.5 -89.5v-598q0 -63 15 -81.5t44 -18.5q19 0 37.5 2t41.5 10v-214q-54 -28 -119 -26q-159 0 -226.5 91.5t-67.5 251.5z" />
<glyph unicode="&#xe54;" horiz-adv-x="1306" d="M140 380v340q0 244 129 380t385 136h194q42 0 59 18.5t17 42.5v121h265v-123q0 -155 -83.5 -222t-259.5 -67h-190q-241 0 -241 -286v-331q0 -94 38.5 -136t109.5 -42q49 0 75 11.5t42 25.5q-19 35 -36.5 82.5t-17.5 133.5q0 134 74 217t202 83h172v-229h-133 q-24 0 -41.5 -19t-17.5 -54q0 -125 41 -184.5t95 -59.5h171v-218h-179q-75 0 -118.5 18.5t-75.5 47.5q-35 -32 -92.5 -56t-175.5 -24q-96 0 -172 31.5t-127.5 87t-80 126.5t-28.5 149z" />
<glyph unicode="&#xe55;" horiz-adv-x="1306" d="M140 380v340q0 209 91 341.5t280 164.5q-2 10 -2 38q0 79 52.5 131t132.5 52q79 0 131 -52.5t52 -130.5q0 -17 -2 -28q54 12 54 49v133h260v-135q0 -84 -23.5 -138t-68.5 -84.5t-112.5 -42.5t-156.5 -12h-184q-120 0 -174.5 -70.5t-54.5 -215.5v-331q0 -94 38.5 -136 t109.5 -42q49 0 75 11.5t42 25.5q-19 35 -36.5 82.5t-17.5 133.5q0 134 74 217t202 83h172v-229h-133q-24 0 -41.5 -19t-17.5 -54q0 -125 41 -184.5t95 -59.5h171v-218h-179q-75 0 -118.5 18.5t-75.5 47.5q-35 -32 -92.5 -56t-175.5 -24q-96 0 -172 31.5t-127.5 87 t-80 126.5t-28.5 149zM642 1268q0 -67 54 -67t54 67q0 66 -54 66t-54 -66z" />
<glyph unicode="&#xe56;" horiz-adv-x="1225" d="M71 1438h276l44 -288q33 34 97.5 70t167.5 36q237 0 345 -129.5t108 -357.5v-279q0 -242 -123 -373t-357 -131q-136 0 -247.5 40t-194.5 114v332h270v-224q33 -16 78 -26.5t94 -10.5q105 0 154.5 75t49.5 204v279q0 125 -54 193t-157 68q-50 0 -86.5 -14.5t-62 -39 t-44.5 -54.5t-33 -62h-199z" />
<glyph unicode="&#xe57;" horiz-adv-x="1738" d="M140 335v577q0 84 25 147.5t65 108t94 66.5t110 22q57 0 97.5 -15t69 -37t44.5 -48t26 -47q9 21 26.5 47t44.5 48t65.5 37t90.5 15q142 0 209.5 -77t67.5 -267v-696q145 7 145 164v1104h280v-1088q0 -190 -107 -300t-351 -110q-42 0 -110 6t-143 25v902q0 64 -16.5 77.5 t-37.5 13.5q-54 0 -54 -91v-225h-246v225q0 49 -15.5 70t-43.5 21q-27 0 -42.5 -18.5t-15.5 -72.5v-590q0 -57 19.5 -80t59.5 -23q19 0 45 1t48 7q28 2 54 7v-227q-30 -12 -78 -20t-99 -8q-160 0 -243.5 93t-83.5 256z" />
<glyph unicode="&#xe58;" horiz-adv-x="1383" d="M140 302v495q0 98 32 179t91 137.5t140 88.5t181 32h326q39 0 53.5 17t14.5 51v163h290v-194q0 -120 -90 -191.5t-266 -71.5h-310q-86 0 -134 -49t-48 -157v-497q0 -45 18.5 -70.5t53.5 -25.5h5l206 152h57l181 -150q27 0 41.5 24.5t14.5 59.5v211h-144v212h415v-423 q0 -66 -21 -124t-56 -99.5t-84.5 -65t-105.5 -23.5h-84l-187 160l-179 -157h-70q-162 0 -251.5 87t-89.5 229z" />
<glyph unicode="&#xe59;" horiz-adv-x="1332" d="M140 326v584q0 81 29.5 144.5t80 108t116.5 69t138 24.5q125 0 186.5 -49t90.5 -114q3 71 49.5 113t105.5 42q94 0 94 65v125h267v-141q0 -120 -58.5 -196t-216.5 -76q-66 0 -83 -36.5t-17 -69.5q0 -12 6 -37.5t15 -58.5l225 -823h-288l-254 946q-9 34 -32.5 59t-72.5 25 q-106 0 -106 -120v-588q0 -111 82 -111q30 0 58.5 2.5t54.5 7.5q27 5 56 13l2 -212q-32 -15 -79.5 -25.5t-121.5 -10.5q-160 0 -243.5 90.5t-83.5 249.5z" />
<glyph unicode="&#x2000;" horiz-adv-x="1248" />
<glyph unicode="&#x2001;" horiz-adv-x="2497" />
<glyph unicode="&#x2002;" horiz-adv-x="1248" />
<glyph unicode="&#x2003;" horiz-adv-x="2497" />
<glyph unicode="&#x2004;" horiz-adv-x="832" />
<glyph unicode="&#x2005;" horiz-adv-x="624" />
<glyph unicode="&#x2006;" horiz-adv-x="416" />
<glyph unicode="&#x2007;" horiz-adv-x="416" />
<glyph unicode="&#x2008;" horiz-adv-x="312" />
<glyph unicode="&#x2009;" horiz-adv-x="499" />
<glyph unicode="&#x200a;" horiz-adv-x="138" />
<glyph unicode="&#x2010;" horiz-adv-x="1154" d="M174 619v227h806v-227h-806z" />
<glyph unicode="&#x2011;" horiz-adv-x="1154" d="M174 619v227h806v-227h-806z" />
<glyph unicode="&#x2012;" horiz-adv-x="1154" d="M174 619v227h806v-227h-806z" />
<glyph unicode="&#x2013;" horiz-adv-x="1282" d="M187 598v244h909v-244h-909z" />
<glyph unicode="&#x2014;" horiz-adv-x="1412" d="M152 598v244h1109v-244h-1109z" />
<glyph unicode="&#x2018;" horiz-adv-x="525" d="M127 1055v245l143 374h224l-74 -391v-228h-293z" />
<glyph unicode="&#x2019;" horiz-adv-x="525" d="M106 1057l76 393v229h292v-246l-143 -376h-225z" />
<glyph unicode="&#x201a;" horiz-adv-x="513" d="M115 -386l77 391v229h292v-246l-142 -374h-227z" />
<glyph unicode="&#x201c;" horiz-adv-x="921" d="M127 1055v245l143 374h224l-74 -391v-228h-293zM553 1055v245l143 374h226l-76 -391v-228h-293z" />
<glyph unicode="&#x201d;" horiz-adv-x="921" d="M106 1057l76 393v229h292v-246l-143 -376h-225zM535 1057l75 393v229h292v-246l-142 -376h-225z" />
<glyph unicode="&#x201e;" horiz-adv-x="921" d="M110 -389l77 394v229h292v-246l-142 -377h-227zM541 -389l73 394v229h293v-246l-143 -377h-223z" />
<glyph unicode="&#x2020;" horiz-adv-x="1117" d="M118 919v249h309v432h269v-432h305v-249h-305v-919h-269v919h-309z" />
<glyph unicode="&#x2021;" horiz-adv-x="1117" d="M118 452v251h309v216h-309v249h309v466h269v-466h305v-249h-305v-216h305v-251h-305v-452h-269v452h-309z" />
<glyph unicode="&#x2022;" horiz-adv-x="675" d="M120 509v420h413v-420h-413z" />
<glyph unicode="&#x2026;" horiz-adv-x="1562" d="M125 0v302h305v-302h-305zM636 0v302h302v-302h-302zM1145 0v302h305v-302h-305z" />
<glyph unicode="&#x202f;" horiz-adv-x="499" />
<glyph unicode="&#x2030;" horiz-adv-x="2857" d="M199 1165q0 113 14.5 204t54 153.5t103 95.5t164.5 33t167.5 -33t105 -95.5t54 -153.5t15.5 -204t-15.5 -205t-54 -157.5t-105 -101t-167.5 -35.5t-164.5 35.5t-103 101t-54 157.5t-14.5 205zM432 1158q0 -86 5.5 -141.5t17.5 -87t31.5 -43t48.5 -11.5q30 0 51 12.5 t34.5 43t18.5 86t5 141.5t-5 141t-18.5 86t-34.5 43t-51 12t-49 -12t-31 -43t-17.5 -86.5t-5.5 -140.5zM644 0l573 1634h235l-572 -1634h-236zM1210 484q0 112 15.5 202t54 153t103 96t165.5 33t167.5 -33t104.5 -96t54 -153t16 -202q0 -113 -16 -205t-54 -158.5 t-104.5 -102t-167.5 -35.5t-165.5 35.5t-103 102t-54 158.5t-15.5 205zM1442 476q0 -86 5 -141t19 -87t33.5 -43t48.5 -11q30 0 51 12t33 43t18 86t6 141q0 87 -6 142t-18 85.5t-33 43.5t-51 13t-49 -13t-33 -43.5t-19 -85.5t-5 -142zM1981 484q0 112 14.5 202t54 153 t103 96t164.5 33t167.5 -33t104.5 -96t54 -153t16 -202q0 -113 -16 -205t-54 -158.5t-104.5 -102t-167.5 -35.5t-164.5 35.5t-103 102t-54 158.5t-14.5 205zM2214 476q0 -86 5 -141t17.5 -87t32 -43t48.5 -11q30 0 51 12t34.5 43t18 86t4.5 141q0 87 -4.5 142t-18 85.5 t-34.5 43.5t-51 13t-49 -13t-31.5 -43.5t-17.5 -85.5t-5 -142z" />
<glyph unicode="&#x2039;" horiz-adv-x="724" d="M133 688l216 494h233l-152 -497l152 -486h-233z" />
<glyph unicode="&#x203a;" horiz-adv-x="724" d="M118 199l152 491l-152 492h234l216 -494l-216 -489h-234z" />
<glyph unicode="&#x2044;" horiz-adv-x="535" d="M-251 -236l748 2126h265l-748 -2126h-265z" />
<glyph unicode="&#x205f;" horiz-adv-x="624" />
<glyph unicode="&#x20ac;" horiz-adv-x="1166" d="M89 535l66 222h77v148h-143l66 216h91q17 155 62.5 257t114.5 163t158.5 85.5t199.5 24.5q37 0 78 -4.5t79 -12t68.5 -16.5t50.5 -16l-65 -214q-84 20 -139.5 25t-104.5 5q-104 0 -150.5 -71t-67.5 -226h368l-70 -216h-312v-148h312l-66 -222h-236q9 -182 69.5 -249.5 t154.5 -67.5q68 0 135 11.5t118 30.5v-230q-42 -14 -111 -29t-132 -15q-106 0 -193.5 27t-153.5 90.5t-110.5 169t-58.5 262.5h-155z" />
<glyph unicode="&#x2122;" horiz-adv-x="1749" d="M73 1445v189h969l142 -267l138 267h280v-1064h-228v804l-136 -307h-120l-135 305v-802h-226v875h-199v-875h-234v875h-251z" />
<glyph unicode="&#x2126;" horiz-adv-x="1280" d="M115 0v221h171q-35 39 -65.5 109.5t-54 158.5t-37.5 189t-14 204q0 204 26 350.5t86.5 240t157 136t239.5 42.5t239 -42.5t154.5 -136t84.5 -240t26 -350.5q0 -103 -13 -204t-38 -189t-56 -158.5t-65 -109.5h172v-221h-455v214q94 39 131.5 209t37.5 447q0 169 -10.5 276 t-36.5 167.5t-68 82.5t-103 22q-64 0 -106 -22t-69 -82.5t-37.5 -167.5t-10.5 -276q0 -283 37.5 -452.5t138.5 -206.5v-211h-462z" />
<glyph unicode="&#x2202;" horiz-adv-x="1117" d="M125 504q0 120 15 221t58 172t119.5 110t200.5 39q59 0 103.5 -9.5t81.5 -28.5q-5 120 -20 200t-39.5 126.5t-60 65t-81.5 18.5q-64 0 -136.5 -10t-142.5 -27v226q40 9 116 26.5t142 17.5q113 0 205.5 -33t159 -118.5t102 -238t35.5 -389.5q0 -285 -24.5 -458t-77.5 -269 t-135 -127.5t-195 -31.5q-82 0 -159.5 22t-136 78.5t-94.5 157t-36 260.5zM401 490q0 -134 35.5 -203t126.5 -69q37 0 63 21t42.5 80t27 169t12.5 286q-28 12 -73.5 26t-101.5 14q-91 0 -111.5 -82.5t-20.5 -241.5z" />
<glyph unicode="&#x2206;" horiz-adv-x="1213" d="M22 0l418 1634h308l399 -1634h-1125zM371 221h428l-209 1050q-27 -118 -54 -251t-55.5 -269.5t-55.5 -270t-54 -259.5z" />
<glyph unicode="&#x220f;" horiz-adv-x="1341" d="M82 1414v220h1132v-220h-175v-1128q0 -35 12.5 -47.5t27.5 -12.5q21 0 42 3t51 7v-219q-34 -5 -78.5 -13.5t-98.5 -8.5q-42 0 -83.5 12t-74.5 45.5t-55 90t-22 143.5v1128h-227v-1414h-277v1414h-174z" />
<glyph unicode="&#x2211;" horiz-adv-x="1117" d="M66 -214l391 838l-363 826v184h882v-220h-578l339 -795l-369 -795h635v-222h-937v184z" />
<glyph unicode="&#x2212;" horiz-adv-x="1282" d="M162 595v247h910v-247h-910z" />
<glyph unicode="&#x2215;" horiz-adv-x="535" d="M-241 -234l747 2124h263l-747 -2124h-263z" />
<glyph unicode="&#x2219;" horiz-adv-x="535" d="M108 563v300h302v-300h-302z" />
<glyph unicode="&#x221a;" horiz-adv-x="1294" d="M82 934h286l171 -632l399 1612h450v-233h-255l-423 -1681h-324z" />
<glyph unicode="&#x221e;" horiz-adv-x="1738" d="M122 715q0 187 107.5 291.5t338.5 104.5q84 0 159 -27t136 -106q51 61 132 97t185 36q225 0 333.5 -104.5t108.5 -291.5q0 -192 -108.5 -296.5t-333.5 -104.5q-87 0 -162 28.5t-136 107.5q-49 -64 -130 -100t-184 -36q-232 0 -339 104.5t-107 296.5zM396 715 q0 -86 42.5 -120.5t124.5 -34.5q101 0 140 47t42 157q-19 50 -70 75.5t-112 25.5q-82 0 -124.5 -33t-42.5 -117zM1003 661q24 -49 71 -75t110 -26q80 0 122.5 34.5t42.5 120.5q0 84 -42.5 117t-122.5 33q-103 0 -142 -46.5t-39 -157.5z" />
<glyph unicode="&#x2224;" horiz-adv-x="535" d="M108 563v300h302v-300h-302z" />
<glyph unicode="&#x2227;" horiz-adv-x="535" d="M108 563v300h302v-300h-302z" />
<glyph unicode="&#x222b;" horiz-adv-x="771" d="M-73 -290q54 -12 109 -20.5t112 -8.5q79 0 78 61v1867q0 162 88.5 240t236.5 78q79 0 146 -10t112 -20v-243q-57 12 -115 21t-114 9q-80 0 -78 -62v-1866q0 -162 -90 -239t-238 -77q-79 0 -142.5 8t-104.5 19v243z" />
<glyph unicode="&#x2248;" horiz-adv-x="1213" d="M164 335v255q50 30 88 47t70 24t60 8.5t56 1.5q42 0 80 -13.5t75.5 -29.5t77 -30t84.5 -14q39 0 71 7t59 17.5t55 29t63 40.5v-251q-63 -42 -126 -63.5t-143 -21.5q-42 0 -81 13t-78.5 29.5t-78.5 29.5t-83 13q-57 0 -117 -23.5t-132 -68.5zM164 752v258q50 30 88 46 t70 23t60 8t56 1q42 0 80 -13t75.5 -29t77 -29.5t84.5 -13.5q75 0 127 24.5t121 68.5v-248q-63 -42 -126 -64t-143 -22q-42 0 -81 13t-78.5 28t-78.5 29t-83 14q-111 0 -249 -94z" />
<glyph unicode="&#x2260;" horiz-adv-x="1309" d="M133 162l144 227h-113v245h268l116 189h-384v246h542l142 226h278l-143 -226h110v-246h-265l-113 -189h378v-245h-537l-146 -227h-277z" />
<glyph unicode="&#x2264;" horiz-adv-x="1309" d="M192 0v234h924v-234h-924zM192 644v233l924 441v-281l-605 -265l605 -226v-286z" />
<glyph unicode="&#x2265;" horiz-adv-x="1309" d="M192 0v234h924v-234h-924zM192 260v286l605 226l-605 265v281l924 -441v-233z" />
<glyph unicode="&#x22c5;" horiz-adv-x="535" d="M108 563v300h302v-300h-302z" />
<glyph unicode="&#x25af;" horiz-adv-x="1171" d="M118 0v1600h890v-1600h-890zM359 234h408v1133h-408v-1133z" />
<glyph unicode="&#x25ca;" horiz-adv-x="1154" d="M73 816l352 818h305l351 -818l-351 -816h-308zM364 816l213 -551l214 551l-214 553z" />
<glyph unicode="&#x25fc;" horiz-adv-x="1166" d="M0 0v1168h1168v-1168h-1168z" />
<glyph unicode="&#xf701;" d="M-1304 1548v209h807v-209h-807z" />
<glyph unicode="&#xf702;" d="M-1304 1548v209h574v159h233v-368h-807z" />
<glyph unicode="&#xf703;" d="M-1304 1548v209h355q5 105 66.5 169.5t157.5 64.5q99 0 163.5 -57.5t64.5 -174.5q0 -101 -61 -156t-167 -55h-579zM-774 1762q0 -28 12 -48.5t35 -20.5q27 0 38 19.5t11 49.5q0 27 -11.5 48t-37.5 21q-22 0 -34.5 -21t-12.5 -48z" />
<glyph unicode="&#xf704;" d="M-1304 1548v209h336v162h192v-162h88v162h191v-371h-807z" />
<glyph unicode="&#xf705;" d="M-769 1733v233h248v-236l-35 -255h-176z" />
<glyph unicode="&#xf706;" d="M-1205 1661v201h403v-178h318v-209h-553v186h-168z" />
<glyph unicode="&#xf707;" d="M-1250 1475v218q0 37 15.5 64t41 46t56.5 27t63 8h35l129 -68l122 68h24q32 0 62.5 -8t56.5 -27t42 -46t16 -64v-32q61 0 103 13q22 7 39 14v-196q-24 -5 -54 -10q-28 -5 -63.5 -7.5t-75.5 -2.5q-30 0 -59.5 1.5t-54.5 3.5q-28 3 -52 7v141l-90 -30h-30l-96 35v-155h-230 z" />
<glyph unicode="&#xf708;" d="M-1020 1627v209h155v130h248v-130h155v-209h-162l-14 -152h-202l-16 152h-164z" />
<glyph unicode="&#xf709;" d="M-1060 1475v344h539v-210h-305v-134h-234z" />
<glyph unicode="&#xf70a;" d="M-394 1733v233h249v-236l-35 -255h-176z" />
<glyph unicode="&#xf70b;" d="M-582 1661v201h415v-178h329v-209h-565v186h-179z" />
<glyph unicode="&#xf70c;" d="M-863 1475v218q0 37 16.5 64t42 46t56 27t63.5 8h33l155 -93l145 93h26q32 0 62 -8t56 -27t42 -46t16 -64v-32q61 0 115 13q28 7 52 14v-196l-66 -10t-72 -7.5t-81 -2.5q-30 0 -59 1.5t-53 3.5q-28 3 -52 7v141l-115 -54h-30l-120 59v-155h-232z" />
<glyph unicode="&#xf70d;" d="M-548 1627v209h154v130h249v-130h155v-209h-162l-15 -152h-201l-15 152h-165z" />
<glyph unicode="&#xf70e;" d="M-656 1475v344h538v-210h-304v-134h-234z" />
<glyph unicode="&#xf70f;" horiz-adv-x="1850" d="M96 1015v132q110 79 243 141.5t283 62.5q238 0 348.5 -115t110.5 -319v-153q0 -103 29.5 -143.5t113.5 -40.5q42 0 80 21t66 51.5t45.5 66.5t22.5 67v544h265v-840q0 -111 -24.5 -207t-81 -168.5t-149 -113.5t-226.5 -41q-99 0 -184.5 10.5t-169.5 22.5v230 q66 -14 151 -25t200 -11q73 0 117.5 24.5t68 68.5t32 104.5t8.5 129.5q-12 -22 -34.5 -49t-55.5 -49t-79.5 -37t-107.5 -15q-352 0 -352 398v155q0 103 -41 160.5t-153 57.5q-94 0 -153 -25.5t-103 -52.5v-11l59 -68v-713q0 -39 11.5 -50t32.5 -11q19 0 42.5 3.5t39.5 8.5 v-194q-37 -12 -77 -20.5t-96 -8.5q-47 0 -86 12t-68.5 43t-46.5 84t-17 136v691z" />
<glyph unicode="&#xf710;" d="M-1006 1548v368h234v-159h612v-209h-846z" />
<glyph unicode="&#xf711;" d="M-954 1667q0 110 64 177.5t175 67.5q113 0 176 -67.5t63 -177.5q0 -111 -64.5 -178.5t-174.5 -67.5q-111 0 -175 67t-64 179zM-776 1667q0 -35 16.5 -57t44.5 -22q27 0 44 22t17 57q0 39 -17 59.5t-44 20.5q-28 0 -44.5 -21t-16.5 -59z" />
<glyph unicode="&#xf712;" d="M-1234 1712v33q0 125 71.5 197.5t248.5 72.5q54 0 104 -5t114 -5q30 0 66.5 2.5t71.5 6t64.5 10t43.5 16.5v-227q-44 -9 -108 -13t-132 -4q-56 0 -108.5 8.5t-115.5 8.5q-50 0 -64 -15.5t-14 -40.5v-34q0 -24 14 -39t37 -15q35 0 54 12t45 52h108q7 -24 31.5 -42.5 t58.5 -18.5h154v-209h-105q-82 0 -130.5 39t-68.5 83q-20 -44 -72.5 -83t-139.5 -39q-110 0 -169 73t-59 176z" />
<glyph unicode="&#xf713;" d="M-732 2239v209h242v-211l-31 -232h-177z" />
<glyph unicode="&#xf714;" d="M-907 2200v196h415v-189h330v-202h-565v195h-180z" />
<glyph unicode="&#xf715;" d="M-983 2008v218q0 37 15.5 64t41.5 45.5t57 27t63 8.5h34l155 -93l145 93h24q33 0 63.5 -8.5t56.5 -27t42 -45.5t16 -64v-31q61 0 115 12q28 7 52 14v-195q-33 -5 -66 -11q-33 -5 -72 -7.5t-81 -2.5q-30 0 -59 1.5t-53 3.5q-28 2 -53 7v141l-115 -54h-29l-121 58v-154 h-231z" />
<glyph unicode="&#xf716;" d="M-889 2158v208h155v131h247v-131h156v-208h-163l-15 -153h-201l-15 153h-164z" />
<glyph unicode="&#xf717;" d="M-730 2000v345h538v-209h-305v-136h-233z" />
<glyph unicode="&#xf718;" d="M-551 -518q28 9 74.5 15t96.5 6q37 0 73.5 -8.5t66 -33t47 -67.5t17.5 -112v-243h-246v206q0 15 -10.5 26t-39.5 11q-19 0 -41 -2t-38 -7v209z" />
<glyph unicode="&#xf719;" d="M-848 -533q34 12 82 19.5t88 7.5q82 0 128 -32t46 -130v-108q0 -17 16 -25t31 -8q17 0 32 7.5t15 25.5v262h250v-258q0 -124 -82 -179t-215 -55q-148 0 -223 56t-75 156v52q0 17 -10.5 20.5t-28.5 3.5q-12 0 -28 -2t-26 -2v189z" />
<glyph unicode="&#xf71a;" d="M-422 -337h291v-292h-291v292z" />
<glyph unicode="&#xf71d;" horiz-adv-x="1414" d="M122 1332h274l66 -931l187 396h160l176 -391q10 127 17.5 202t11.5 115.5t5 52.5t1 15q0 75 -33 121.5t-131 48.5v169q68 0 110 10t64 37.5t29.5 73.5t7.5 118h270q0 -113 -33 -178t-75 -100q-47 -42 -106 -57q79 -19 120.5 -77.5t41.5 -145.5q0 -21 -1 -34t-6 -36 t-11 -67.5t-16 -128t-24.5 -215t-32.5 -330.5h-238l-234 494l-248 -494h-230z" />
<glyph unicode="&#xf8ff;" horiz-adv-x="2068" d="M115 293v1002q0 19 5 25.5t18 13.5l1018 504q14 5 24 5q9 0 19 -5l747 -375q30 -17 45 -33l54 -110q2 -10 2 -25v-1018q0 -24 -21 -31l-694 -384q-7 -2 -17.5 -3.5t-26.5 -1.5h-418q-12 0 -21 1.5t-16 3.5l-688 382q-30 7 -30 49zM192 298l631 -345v642q-7 5 -28 18 t-53 32t-69 41t-75 44q-92 51 -202 116q-12 5 -16 12t-4 12q0 14 7.5 28t26.5 14q10 0 22 -7l440 -253q17 -12 17 -30v-695h408l677 371v943l-632 -352v-392l312 171v219q0 27 34 27q42 0 42 -27v-238q0 -24 -20 -37l-368 -190v-178q30 14 85 44.5t111 60.5q64 35 141 73 q7 3 17 3q12 0 23 -8.5t11 -27.5t-20 -30l-366 -192q-10 -5 -18 -10t-22 -5q-16 0 -22 11t-6 27v685h-404q-12 0 -25.5 4.5t-20.5 9.5l-634 352v-477l305 -171q14 -12 14 -35v-241q0 -15 -8.5 -26t-23.5 -11q-17 0 -26.5 11t-9.5 26v224l-251 142v-385zM228 1295l640 -343 h429q64 34 97.5 51t50.5 27q19 9 23 14v126q0 14 9.5 25.5t21.5 11.5h265l197 111l-42 82l-739 372zM823 1261q0 19 33.5 40t57.5 21q10 0 40.5 -13.5t64 -33t58.5 -40.5t25 -34q0 -7 -10.5 -18t-22.5 -19t-25.5 -15t-21.5 -7q-12 0 -44 16.5t-66.5 37.5t-61.5 39t-27 26z M1205 1454q0 20 31 41.5t59 21.5q9 0 41.5 -14t65.5 -32.5t59 -39t26 -33.5q0 -7 -9.5 -18t-24.5 -21t-28.5 -16t-21.5 -6q-10 0 -41.5 16t-67 37t-62.5 39t-27 25z" />
<glyph horiz-adv-x="1142" d="M122 1074v216q87 28 195 44.5t201 16.5q174 0 291 -61l309 49v-246l-154 9q24 -50 39 -125t15 -180q0 -141 -43.5 -281t-94.5 -256q-62 -135 -138 -260h-285l-177 539h-135v206h327l145 -494q17 44 41.5 109t44 138.5t34.5 150t15 148.5q0 164 -58 251t-178 87 q-52 0 -98.5 -3.5t-92 -10.5t-94.5 -20t-109 -27z" />
<glyph horiz-adv-x="1264" d="M35 22v194q37 -12 80 -12q24 0 39 15t15 53v682l-73 61v132q54 40 119 77t135 65.5t145 45t149 16.5q239 0 356.5 -115t117.5 -319v-1032q0 -91 -24.5 -153.5t-69 -103.5t-103 -59.5t-127.5 -18.5q-30 0 -67 5t-77 10t-77.5 10t-66.5 5q-39 0 -69.5 -6t-56.5 -12 q-27 -7 -51 -14v213q24 10 51 21q24 7 56.5 13t69.5 6q62 0 128.5 -17.5t122.5 -17.5q47 0 71.5 24.5t24.5 87.5v1039q0 96 -44.5 157t-164.5 61q-91 0 -162.5 -27t-115.5 -51v-11l74 -75v-699q0 -84 -19.5 -137t-51.5 -85.5t-74 -44.5t-86 -12q-59 0 -98.5 8.5t-75.5 20.5z " />
<glyph horiz-adv-x="1264" d="M35 19v195q37 -12 80 -12q24 0 39 15t15 53v682l-73 61v132q54 39 119 76.5t135 67t145 46t149 16.5q239 0 356.5 -116.5t117.5 -320.5v-1039q0 -84 -27 -144t-73.5 -100.5t-108 -60.5t-130.5 -20l-172 98l-155 -98q-16 0 -46 1t-61 2.5t-59 4t-42 4.5v234q12 -2 35 -7 t51.5 -10t58 -9t54.5 -4l150 94h29l145 -94q49 0 67.5 33.5t18.5 75.5v1039q0 96 -44.5 158.5t-164.5 62.5q-91 0 -162.5 -28t-115.5 -52v-11l74 -76v-698q0 -84 -19.5 -137.5t-51.5 -86t-74 -44.5t-86 -12q-59 0 -98.5 8.5t-75.5 20.5z" />
<glyph horiz-adv-x="938" d="M-954 1667q0 110 64 177.5t175 67.5q113 0 176 -67.5t63 -177.5q0 -111 -64.5 -178.5t-174.5 -67.5q-111 0 -175 67t-64 179zM-776 1667q0 -35 16.5 -57t44.5 -22q27 0 44 22t17 57q0 39 -17 59.5t-44 20.5q-28 0 -44.5 -21t-16.5 -59zM73 1098v202q24 7 62.5 16t81.5 15 t86.5 10.5t76.5 4.5q204 0 307.5 -103t103.5 -351v-892h-270v865q0 153 -36.5 209t-132.5 56q-71 0 -149 -9.5t-130 -22.5z" />
<glyph />
<glyph horiz-adv-x="3068" d="M115 410q0 153 93.5 251.5t225.5 144.5q-61 20 -116 51.5t-95.5 75t-65 98.5t-24.5 122q0 103 51.5 176.5t130.5 120t170.5 69t175.5 22.5q59 0 142.5 -12t161 -43.5t131.5 -80.5t54 -122q0 -54 -34.5 -86t-83.5 -32q-71 0 -104.5 41.5t-65.5 93t-77.5 93.5t-137.5 42 q-61 0 -103 -25.5t-68 -66.5t-38.5 -91.5t-12.5 -101.5q0 -52 11.5 -105t37 -94t66 -68t98.5 -27q62 0 117.5 22t112.5 22q46 0 75.5 -27t29.5 -71q0 -52 -29.5 -80t-75.5 -28q-30 0 -58.5 9.5t-56.5 20t-56.5 21t-58.5 10.5q-61 0 -103.5 -29.5t-68.5 -74t-37 -98.5 t-11 -105q0 -177 81 -265.5t268 -88.5q98 0 194 33t190.5 93t190.5 142.5t194 183.5v619q0 108 -30.5 164.5t-138.5 56.5h-36.5t-33.5 -2v61q145 39 275.5 76t256.5 86v-664q0 -17 2.5 -30t16.5 -13q12 0 29.5 12t22.5 19l171 190q138 155 239 252t169 146q133 89 267 88 q34 0 71 -7.5t68.5 -23.5t51.5 -43t20 -63q0 -52 -44.5 -77.5t-86.5 -25.5q-28 0 -52 8.5t-47 16.5t-48 17t-50 9q-75 0 -171 -69q-99 -76 -256 -258l-103 -120l541 -691q89 -116 164 -167q40 -24 79 -38t81 -14v-61h-740v61q42 0 71 5t47 10q40 9 40 34q0 38 -24.5 74.5 t-45.5 59.5l-415 518l-68 -74v-688h-293v394q-82 -76 -171 -153t-191 -138t-218 -100.5t-250 -39.5q-131 0 -239 29.5t-185.5 86.5t-122 140t-44.5 191zM2945 1745v25h85v-25h-26v-91h-28v91h-31zM3040 1654l10 116h29l28 -86h2l27 86h30l9 -116h-24l-6 79h-2l-24 -79h-25 l-22 79h-2l-5 -79h-25z" />
<glyph horiz-adv-x="9955" d="M176 2v1630q80 5 159 10q66 4 138.5 6.5t128.5 2.5q242 0 371 -102t129 -348q0 -140 -55 -220.5t-149 -110.5q96 -19 170 -111.5t74 -256.5q0 -153 -34 -252.5t-100.5 -158.5t-162 -83.5t-216.5 -24.5q-71 0 -151 2.5t-147 7.5q-81 5 -155 9zM464 236q35 -2 86.5 -5 t98.5 -3q94 0 148 53t54 203q0 120 -42 184t-157 64h-188v-496zM464 968h165q35 0 68 7.5t60 31t43 66.5t16 114q0 113 -35.5 165.5t-151.5 52.5q-24 0 -51 -1t-55 -4q-30 -2 -59 -4v-428zM1416 28v249q17 -5 61.5 -13t98.5 -15.5t110 -14t101 -6.5q79 0 127.5 70t48.5 192 q0 159 -54 220.5t-141 61.5h-330v862h1580v-1393h830q94 0 141 67.5t47 172.5q0 131 -42 187.5t-150 56.5h-268v239h246q68 0 106 28t56.5 67t22 81t3.5 70q0 110 -48 152.5t-118 42.5q-40 0 -89 -4.5t-98.5 -12t-95.5 -14.5t-79 -14v252q24 2 66 10t91.5 14t102 10.5 t99.5 4.5q94 0 175 -22t141 -76t94.5 -142.5t34.5 -221.5q0 -140 -55 -218.5t-120 -110.5q40 -14 75.5 -36t64 -63t45.5 -103.5t17 -153.5q0 -133 -34.5 -228.5t-94.5 -157.5t-145 -90t-188 -28h-1396v241h286v1155h-1029v-386h42q263 0 375.5 -121.5t112.5 -379.5 q0 -148 -35 -248.5t-96 -160.5t-147 -87t-187 -27q-47 0 -98.5 4.5t-100.5 10.5t-91 13.5t-71 13.5zM4648 2v1630q81 5 159 10q66 4 141 6.5t134 2.5q138 0 241 -29.5t172 -116.5t103.5 -246t34.5 -417q0 -260 -32 -427t-97.5 -263t-163.5 -132.5t-233 -36.5q-66 0 -145 2.5 t-150 7.5q-82 5 -164 9zM4937 234q35 -2 89 -4t105 -2q49 0 89 30t65.5 99.5t39 184t13.5 284.5q0 184 -13.5 297t-39 176t-64 84.5t-87.5 21.5q-33 0 -67 -1t-63 -4q-35 -2 -67 -2v-1164zM5846 1182q0 131 41 220.5t109.5 144.5t162 79.5t199.5 24.5q86 0 163.5 -13 t143.5 -31v-245q-79 19 -162.5 31t-168.5 12q-87 0 -143.5 -45t-56.5 -153q0 -59 8.5 -98.5t31 -63t59 -38.5t91.5 -27q89 -19 161 -48.5t121 -82t76 -139.5t27 -220q0 -153 -39 -250t-108 -154.5t-162.5 -80t-203.5 -22.5q-94 0 -176 12t-153 33v244q68 -16 158.5 -30 t191.5 -14q94 0 146.5 54.5t52.5 186.5q0 73 -10.5 120t-33 76t-53 43t-69.5 22q-104 21 -180 54.5t-125 85.5t-74 128t-25 184zM6958 0v302h302v-302h-302zM6972 474v1160h270v-1160h-270zM7513 842q0 258 38 417t114 246t185.5 116.5t254.5 29.5q30 0 72 -3.5t88 -9.5 t89.5 -13t73.5 -16v-242q-104 17 -201 27.5t-164 10.5q-61 0 -109 -20.5t-80 -82t-49.5 -175.5t-17.5 -301q0 -195 16.5 -312.5t45.5 -180.5t72.5 -84t99.5 -21q28 0 70.5 3t84.5 8v429h-202v234h480v-874q-105 -20 -215 -32.5t-206 -12.5q-143 0 -244 36.5t-168 132.5 t-97.5 263t-30.5 427zM8766 0v1634h260l476 -987v987h277v-1634h-228l-509 1020v-1020h-276z" />
</font>
</defs>
</svg>
